<svg xmlns="http://www.w3.org/2000/svg" viewBox="0 0 125 108"><defs><style>.cls-10,.cls-3,.cls-6,.cls-8,.cls-9{fill:none}.cls-3{stroke:#07a6a6}.cls-10,.cls-13,.cls-3,.cls-6,.cls-8,.cls-9{stroke-linecap:round}.cls-13,.cls-3,.cls-6{stroke-linejoin:round}.cls-4{fill:#24d3c6}.cls-5{fill:#068989}.cls-13,.cls-6,.cls-8{stroke:#068989}.cls-10,.cls-8,.cls-9{stroke-miterlimit:10}.cls-10,.cls-9{stroke:#daf5f2}.cls-10{stroke-width:.8px}.cls-11{fill:#07a6a6}.cls-13{fill:#1aa8a4}</style></defs><g id="Language_Icons" data-name="Language Icons"><circle cx="63.95" cy="60.66" r="46.84" fill="#00bfb3" opacity=".5"/><path d="M93.82 41.88H34.89a1.65 1.65 0 00-1.65 1.65V96c8.14 6.82 18.63 11.47 30.08 11.47 12.45 0 23.76-4.29 32.15-12.21V43.53a1.65 1.65 0 00-1.65-1.65z" fill="#fff"/><path class="cls-3" d="M66.94 67.94h23.52"/><path class="cls-4" d="M35.33 41.88h58A2.09 2.09 0 0195.47 44v9.38H33.24V44a2.09 2.09 0 012.09-2.12z"/><circle class="cls-5" cx="89.69" cy="10.06" r="1.04"/><circle class="cls-5" cx="15.4" cy="27.85" r="1.04"/><circle class="cls-5" cx="64.32" cy="13.82" r="1.68"/><circle class="cls-5" cx="17.09" cy="60.66" r="1.68"/><circle class="cls-5" cx="110.77" cy="60.66" r="1.68"/><path class="cls-6" d="M33.9 53.34h59.2"/><g opacity=".7"><path class="cls-8" d="M4.96 38.65h5.46M7.69 41.38v-5.46M117.91 78.03h5.46M120.64 80.76V75.3M45.43 1.65v1.4M45.43 6.63v1.4M48.68 4.9h-1.4M43.67 4.9h-1.41M47.77 2.55l-.99 1M47.77 7.13l-.99-1M43.07 2.55l.99 1M43.07 7.13l.99-1"/><circle class="cls-8" cx="98.88" cy="9.2" r="2.1"/></g><path class="cls-9" d="M98.22 17.92h5.46M100.95 20.66v-5.47M11.69 93.66h5.46M14.42 96.39v-5.46"/><path class="cls-10" d="M122.12 64.44v1.13M122.12 68.46v1.14M124.75 67.07h-1.13M120.7 67.07h-1.13M124.02 65.17l-.81.81M124.02 68.86l-.81-.8M120.22 65.17l.8.81M120.22 68.86l.8-.8"/><circle class="cls-9" cx="2.85" cy="29.95" r="2.1"/><path class="cls-11" d="M43.9 58a3.34 3.34 0 00-2.4-1 2.48 2.48 0 00-1.07.26c-.35-.29-.9-.44-1-.35a2.36 2.36 0 00.28 1.09 2.65 2.65 0 00-.21 1 1.64 1.64 0 00.2.81 2.88 2.88 0 00-1.24.45 3 3 0 01.71.1l-.07.06c-.06.06-.12.11-.18.18a2.31 2.31 0 00-.2.24 1.82 1.82 0 011-.14.5.5 0 00.56-.19l.11-.12a5.32 5.32 0 00.2 1.2l.09.29v.07a.07.07 0 00.06 0 .09.09 0 00.06 0 .33.33 0 000-.06v-.06a.88.88 0 01.1-.21 1.74 1.74 0 01.88 0c0 .08.1.27.1.27a.11.11 0 000 .06.1.1 0 00.07 0H42c.05 0 0 0 0 0v-.13l.1-.3s.05-.17.1-.4l.1.07h.46a.59.59 0 00.24-.09h.06v-.06a.48.48 0 00.12-.26.59.59 0 00-.5-.71c-.35 0-.48.13-.53.23a.29.29 0 00-.07.2.37.37 0 00.37.38.21.21 0 00.13 0h.05a.17.17 0 01-.1.06h-.37l.41.06a2.88 2.88 0 00.06-.59 1.32 1.32 0 00.81-1.3 2.45 2.45 0 00-.12-.83l.14-.05h.13l.11-.05s.22-.18.2-.18z"/><rect class="cls-11" x="72.03" y="59.52" width="4.93" height="1.06" rx=".5"/><rect class="cls-11" x="79.41" y="59.52" width="4.93" height="1.06" rx=".5"/><rect class="cls-11" x="86.8" y="59.52" width="4.93" height="1.06" rx=".5"/><path class="cls-3" d="M66.94 72.45h23.52M66.94 76.97h12.51"/><path fill="#0bb5b0" opacity=".3" d="M39.17 67.76h19.77v11.6H39.17z"/><path class="cls-3" d="M39.17 65.69h21.86v13.66H39.17z"/><path class="cls-4" d="M39.17 85.06h49.2v11.6h-49.2z"/><ellipse class="cls-13" cx="38.96" cy="47.59" rx="1.05" ry="1.04"/><ellipse class="cls-13" cx="43.02" cy="47.59" rx="1.05" ry="1.04"/><ellipse class="cls-13" cx="47.08" cy="47.59" rx="1.05" ry="1.04"/><path class="cls-3" d="M39.17 82.99h51.26v13.66H39.17z"/><path class="cls-8" d="M17.66 53.34a46.87 46.87 0 0138.59-38.9M110.15 68.28a46.85 46.85 0 01-92.61-1M71.46 14.42a46.87 46.87 0 0138.81 39.38"/><path class="cls-6" d="M93.82 41.88H34.89a1.65 1.65 0 00-1.65 1.65V96c8.14 6.82 18.63 11.47 30.08 11.47 12.45 0 23.76-4.29 32.15-12.21V43.53a1.65 1.65 0 00-1.65-1.65z"/></g></svg>