<svg xmlns="http://www.w3.org/2000/svg" viewBox="0 0 65.69 65.69">
  <defs>
    <style>
      .cls-3{fill:none}.cls-3,.cls-7{stroke:#068989;stroke-linecap:round;stroke-linejoin:round;stroke-width:.69px}.cls-4{fill:#24d3c6}.cls-5{fill:#068989}.cls-7{fill:#1aa8a4}
    </style>
  </defs>
  <g id="レイヤー_2" data-name="レイヤー 2">
    <g id="レイヤー_1-2" data-name="レイヤー 1">
      <circle cx="32.85" cy="32.85" r="32.5" fill="#daf5f2"/>
      <path d="M53.58 19.82h-40.9A1.14 1.14 0 0 0 11.54 21v36.39a32.72 32.72 0 0 0 20.87 8 32 32 0 0 0 22.31-8.48V21a1.14 1.14 0 0 0-1.14-1.18z" fill="#fff"/>
      <path class="cls-3" d="M34.92 37.89h16.32"/>
      <path class="cls-4" d="M13 19.82h40.27a1.45 1.45 0 0 1 1.45 1.45v6.51H11.54v-6.51A1.45 1.45 0 0 1 13 19.82z"/>
      <path class="cls-3" d="M12 27.77h41.07"/>
      <path class="cls-5" d="M18.94 31a2.28 2.28 0 0 0-1.67-.65 1.5 1.5 0 0 0-.74.18c-.24-.21-.63-.31-.66-.25A1.54 1.54 0 0 0 16 31a1.73 1.73 0 0 0-.15.7 1.06 1.06 0 0 0 .14.56 2 2 0 0 0-.86.32 2 2 0 0 1 .49.06h-.05l-.13.12a1.15 1.15 0 0 0-.14.17 1.19 1.19 0 0 1 .67-.1.36.36 0 0 0 .39-.13l.07-.08a3.94 3.94 0 0 0 .14.83l.06.21h.05a.86.86 0 0 1 .07-.14s.6-.05.61 0l.07.19v-.05l.08-.21s0-.11.07-.28l.07.06h.25a.24.24 0 0 0 .12 0h.07a.49.49 0 0 0 .17-.06.49.49 0 0 0 .08-.18.4.4 0 0 0-.35-.49c-.24 0-.33.08-.37.15a.24.24 0 0 0-.05.14.26.26 0 0 0 .26.27h.09-.24l.32.02a1.84 1.84 0 0 0 0-.41.94.94 0 0 0 .56-.9 1.81 1.81 0 0 0-.09-.58h.14a.2.2 0 0 0 .08 0h.06s.25-.19.19-.19z"/>
      <rect class="cls-5" x="38.45" y="32.05" width="3.42" height=".73" rx=".34"/>
      <rect class="cls-5" x="43.58" y="32.05" width="3.42" height=".73" rx=".34"/>
      <rect class="cls-5" x="48.7" y="32.05" width="3.42" height=".73" rx=".34"/>
      <path class="cls-3" d="M34.92 41.03h16.32M34.92 44.17h8.68"/>
      <path fill="#0bb5b0" opacity=".3" d="M15.65 37.77h13.72v8.05H15.65z"/>
      <path class="cls-3" d="M15.65 36.34h15.17v9.48H15.65z"/>
      <path class="cls-4" d="M15.65 49.78h34.14v8.05H15.65z"/>
      <ellipse class="cls-7" cx="15.51" cy="23.77" rx=".73" ry=".72"/>
      <ellipse class="cls-7" cx="18.33" cy="23.77" rx=".73" ry=".72"/>
      <ellipse class="cls-7" cx="21.14" cy="23.77" rx=".73" ry=".72"/>
      <path class="cls-3" d="M15.65 48.34h35.57v9.48H15.65z"/>
      <path class="cls-3" d="M53.58 19.82h-40.9A1.14 1.14 0 0 0 11.54 21v36.39a32.72 32.72 0 0 0 20.87 8 32 32 0 0 0 22.31-8.48V21a1.14 1.14 0 0 0-1.14-1.18z"/>
      <circle class="cls-3" cx="32.85" cy="32.85" r="32.5"/>
    </g>
  </g>
</svg>
