<svg xmlns="http://www.w3.org/2000/svg" viewBox="0 0 65.69 65.69">
  <defs>
    <style>
      .cls-5,.cls-6{fill:none;stroke-width:.69px}.cls-6{stroke:#5074bc}.cls-5{stroke-linecap:round;stroke-linejoin:round;stroke:#4b6ab8}.cls-6{stroke-miterlimit:10}.cls-8{fill:#5074bc}
    </style>
  </defs>
  <g id="レイヤー_2" data-name="レイヤー 2">
    <g id="レイヤー_1-2" data-name="レイヤー 1">
      <circle cx="32.85" cy="32.85" r="32.5" fill="#bed4f4"/>
      <path d="M53.29 19.82H12.4A1.14 1.14 0 0 0 11.26 21v36.4a32.63 32.63 0 0 0 20.87 7.95 32.4 32.4 0 0 0 22.31-8.88V21a1.15 1.15 0 0 0-1.15-1.18z" fill="#fff"/>
      <path d="M12.95 20h41.49v8H11.26v-6.27A1.69 1.69 0 0 1 12.95 20z" fill="#98b7ea"/>
      <path stroke-linejoin="round" stroke-linecap="round" stroke="#5074bc" fill="none" stroke-width=".69" d="M12.03 27.77H53.1"/>
      <path class="cls-5" d="M14.89 22.57l1.27 1.32-1.27 1.27M16.56 25.56h1.91"/>
      <path class="cls-6" d="M53.6 19.82H12.71A1.14 1.14 0 0 0 11.57 21v36.4a32.65 32.65 0 0 0 20.87 7.95 32 32 0 0 0 22.31-8.48V21a1.15 1.15 0 0 0-1.15-1.18z"/>
      <path d="M21.75 38.17H40a1.38 1.38 0 0 1 1.38 1.38v18.23H21.75V38.17z" fill="#ffe600"/>
      <path class="cls-8" d="M29.91 50.66h3.43v1H31v.94h2.19v1H31v1h2.45v1h-3.54zM36.71 51.89a.76.76 0 0 0-.37-.25 1.17 1.17 0 0 0-.44-.08h-.24a1.06 1.06 0 0 0-.25.09.69.69 0 0 0-.18.16.41.41 0 0 0-.07.25.4.4 0 0 0 .17.35 1.72 1.72 0 0 0 .43.2c.17.06.36.12.56.17a2.34 2.34 0 0 1 .56.25 1.32 1.32 0 0 1 .43.42 1.29 1.29 0 0 1 .17.7 1.51 1.51 0 0 1-.16.73 1.34 1.34 0 0 1-.42.52 1.9 1.9 0 0 1-.62.31 2.61 2.61 0 0 1-.75.1 2.71 2.71 0 0 1-.91-.15 2.29 2.29 0 0 1-.78-.48l.79-.87a1.13 1.13 0 0 0 .43.35 1.25 1.25 0 0 0 .54.12h.27a.92.92 0 0 0 .25-.09.59.59 0 0 0 .18-.17.42.42 0 0 0 .07-.23.43.43 0 0 0-.18-.36 1.64 1.64 0 0 0-.44-.23l-.57-.18a2.58 2.58 0 0 1-.56-.25 1.33 1.33 0 0 1-.44-.41 1.19 1.19 0 0 1-.18-.68 1.58 1.58 0 0 1 .16-.71 1.56 1.56 0 0 1 .43-.52 2 2 0 0 1 .62-.31 2.46 2.46 0 0 1 .72-.1 2.81 2.81 0 0 1 .82.12 1.85 1.85 0 0 1 .72.41zM39.84 52.46a.86.86 0 0 1 .17 0h.18a1.5 1.5 0 0 1 .64.13 1.37 1.37 0 0 1 .5.35 1.46 1.46 0 0 1 .32.52 1.75 1.75 0 0 1 .12.65 1.67 1.67 0 0 1-.15.71 1.65 1.65 0 0 1-.4.54 1.79 1.79 0 0 1-.6.35 2.14 2.14 0 0 1-1.47 0 1.79 1.79 0 0 1-.6-.35 1.59 1.59 0 0 1-.55-1.3 2 2 0 0 1 .05-.5 1.87 1.87 0 0 1 .13-.42 2.25 2.25 0 0 1 .19-.38l.23-.38 1.11-1.72H41zM40.7 54a.77.77 0 0 0-.23-.56.86.86 0 0 0-1.17 0 .81.81 0 0 0 0 1.13.78.78 0 0 0 .59.22.77.77 0 0 0 .81-.79z"/>
      <path stroke-linejoin="round" stroke="#5074bc" fill="none" stroke-width=".69" d="M21.75 35.58h22.2v22.2h-22.2z"/>
      <circle class="cls-6" cx="32.85" cy="32.85" r="32.5"/>
    </g>
  </g>
</svg>
