<svg xmlns="http://www.w3.org/2000/svg" viewBox="0 0 65.69 65.69">
  <defs>
    <style>
      .cls-6{fill:#fff}.cls-3{fill:#b1f0de}.cls-4,.cls-5,.cls-9{fill:none}.cls-4,.cls-6,.cls-9{stroke:#12bcb1}.cls-4{stroke-linecap:round;stroke-linejoin:round;stroke-width:.69px}.cls-5{stroke:#00aec2}.cls-5,.cls-6,.cls-9{stroke-miterlimit:10;stroke-width:.52px}.cls-7{fill:#00b7aa}.cls-8{fill:#faffff}
    </style>
  </defs>
  <g id="レイヤー_2" data-name="レイヤー 2">
    <g id="レイヤー_1-2" data-name="レイヤー 1">
      <circle cx="32.85" cy="32.85" r="32.5" fill="#62e1be"/>
      <path d="M53.29 19.82H12.4A1.14 1.14 0 0 0 11.26 21v36.39a32.7 32.7 0 0 0 20.87 8 32 32 0 0 0 22.31-8.48V21a1.15 1.15 0 0 0-1.15-1.18z" fill="#fff"/>
      <path class="cls-3" d="M12.71 19.82H53a1.45 1.45 0 0 1 1.45 1.45v6.51H11.26v-6.51a1.45 1.45 0 0 1 1.45-1.45z"/>
      <path class="cls-4" d="M11.26 27.77h41.07"/>
      <ellipse class="cls-4" cx="15.53" cy="23.77" rx=".73" ry=".72"/>
      <ellipse class="cls-4" cx="18.35" cy="23.77" rx=".73" ry=".72"/>
      <ellipse class="cls-4" cx="21.17" cy="23.77" rx=".73" ry=".72"/>
      <path class="cls-4" d="M53.29 19.82H12.4A1.14 1.14 0 0 0 11.26 21v36.13a32.35 32.35 0 0 0 21.26 8.21 32 32 0 0 0 21.92-8.47V21a1.15 1.15 0 0 0-1.15-1.18z"/>
      <path class="cls-3" d="M39.42 64.05c0-.81.08-1.63.08-2.63 0-2.57-2.29-6.56-7.54-6.56a8.59 8.59 0 0 0-3.24.6 6.74 6.74 0 0 0-3.53 5.59c0 1.1.05 2 .1 2.87a19.72 19.72 0 0 0 7 1.29 22.51 22.51 0 0 0 7.13-1.16zM38.64 57c.48-.53.3-1 .46-1.44.09-.22-.14-.23-.45-.12a2.93 2.93 0 0 0-.7.49 2.09 2.09 0 0 0-.2.22 6.55 6.55 0 0 1 .89.85z"/>
      <circle class="cls-5" cx="28.38" cy="60.59" r="3.04"/>
      <circle class="cls-6" cx="28.38" cy="60.59" r="3.04"/>
      <path class="cls-7" d="M28.26 60.53c0 .55-.12 1-.7 1.11s-1.41-.39-1.41-.94a1.27 1.27 0 0 1 1.12-1.17 1 1 0 0 1 .99 1z"/>
      <circle class="cls-5" cx="37.16" cy="60.59" r="3.04"/>
      <path class="cls-8" d="M27.56 60.29a.36.36 0 0 1-.35.3c-.16 0-.24-.14-.24-.3a.3.3 0 0 1 .59 0z"/>
      <circle class="cls-6" cx="37.16" cy="60.59" r="3.04"/>
      <path class="cls-7" d="M37.39 60.53c0 .55 0 .87.71 1s1.4-.27 1.4-.82a1.26 1.26 0 0 0-1.11-1.17 1 1 0 0 0-1 .99z"/>
      <path class="cls-8" d="M38.71 60.09a.33.33 0 0 1 0 .45c-.11.12-.26.07-.37 0a.29.29 0 1 1 .41-.41z"/>
      <path class="cls-9" d="M38.73 57.09a1.12 1.12 0 0 0 .2-.18c.57-.57.37-1.07.53-1.52s-1 0-1.51.53a2.09 2.09 0 0 0-.2.22 6.8 6.8 0 0 1 .98.95z"/>
      <path class="cls-3" d="M26.43 55.58a2 2 0 0 0 .46 1.3 7.53 7.53 0 0 1 .82-.77 2 2 0 0 0-1.28-.53z"/>
      <path class="cls-9" d="M26.89 56.88a7.09 7.09 0 0 1 1-.93c-.57-.56-1.68-1-1.52-.53s-.01.91.52 1.46z"/>
      <path d="M32.68 63.65a1.23 1.23 0 0 0-.39.08V64a.43.43 0 0 0 .85 0v-.25a2.1 2.1 0 0 0-.46-.1z" fill="#f9fbfe"/>
      <path class="cls-9" d="M33.86 63.55c-.43.43-.71.1-1.18.1s-.86.43-1.18-.1.7-1.18 1.18-1.18 1.61.75 1.18 1.18z"/>
      <path d="M33.58 62.22c0 .32-.4.58-.89.58s-.88-.26-.88-.58.4-.39.89-.39.88.07.88.39z" fill="#12bcb1"/>
      <path d="M33 62.15c0 .09-.15.16-.32.16s-.33-.07-.33-.16.19-.08.37-.08.28-.01.28.08z" opacity=".6" fill="#fff"/>
      <path class="cls-9" d="M40.19 63.78c.05-.84.09-1.69.09-2.73 0-2.57-2.29-6.56-7.55-6.56s-7.55 4-7.55 6.56c0 1.1.05 2 .1 2.87a19.72 19.72 0 0 0 7 1.29 22.34 22.34 0 0 0 7.91-1.43z"/>
      <path d="M38.29 47.58c.45 0 .91-.07 1.37-.15a8 8 0 0 0 3.55-1.7 6.6 6.6 0 0 0 1.9-5.73 5.33 5.33 0 0 0-2.42-3.83 6.37 6.37 0 0 0-4.89-.87 7.44 7.44 0 0 0-3.45 1.48 8.22 8.22 0 0 0-.71.81 7.2 7.2 0 0 0-1.17 2.22H32c-.08.19-.15.39-.22.58h-5.42c-.24.48-.54 1.14-.72 1.57s0 .51.32.51h3.31c-.17.24-.31.45-.46.64a4 4 0 0 1-.66.59 3.18 3.18 0 0 1-2.9 1.12 2.68 2.68 0 0 1-2.31-2.7A3.59 3.59 0 0 1 24.48 39a4 4 0 0 1 .85-.73 3 3 0 0 1 3.1-.26 2.33 2.33 0 0 1 .81.65c.22.26.24.24.49.17l2.34-.61A5.34 5.34 0 0 0 30.16 36a5.9 5.9 0 0 0-4.55-.84 7.49 7.49 0 0 0-3.41 1.54 7.72 7.72 0 0 0-.75.85 6.73 6.73 0 0 0-1.46 5 5.39 5.39 0 0 0 2.18 3.81 6.07 6.07 0 0 0 4.61 1.13A6.91 6.91 0 0 0 30.27 46a7.91 7.91 0 0 0 .76-.86 7.48 7.48 0 0 0 .73-1.21c0 .12.08.22.11.33a6.35 6.35 0 0 0 .53-.91 5.31 5.31 0 0 0 1.71 2.72 6.39 6.39 0 0 0 4.18 1.51zm-3.11-6.21A3.76 3.76 0 0 1 36.7 39a3.87 3.87 0 0 1 2.12-1.21 2.82 2.82 0 0 1 3.5 2.28 3.1 3.1 0 0 1 0 .57 3.69 3.69 0 0 1-1.53 2.87 4.48 4.48 0 0 1-1.29 1 3.15 3.15 0 0 1-2.79.1 2.82 2.82 0 0 1-1.53-3.24z" fill="#f6f973"/>
      <path d="M45.75 39.42a5.29 5.29 0 0 0-2.42-3.82 6.3 6.3 0 0 0-4.88-.88 7.54 7.54 0 0 0-6 5.09h-5.51a.47.47 0 0 0-.43.28c-.24.45-.65 1.34-.87 1.87-.12.29 0 .51.32.51h3.31c-.17.24-.31.45-.46.64a3.19 3.19 0 0 1-2.92 1.13 2.68 2.68 0 0 1-2.31-2.69 3.63 3.63 0 0 1 1.75-3.26 3 3 0 0 1 3.1-.26 2.33 2.33 0 0 1 .81.65c.22.26.24.24.49.17 1.07-.27 1.8-.48 2.89-.75.2-.05.27-.14.17-.29a5.35 5.35 0 0 0-2-2.42 6 6 0 0 0-4.55-.84 7.6 7.6 0 0 0-4.8 3 6.73 6.73 0 0 0-1.46 5 5.39 5.39 0 0 0 2.18 3.81 6.07 6.07 0 0 0 4.61 1.13 7.13 7.13 0 0 0 4.89-2.91 6.91 6.91 0 0 0 .73-1.22 5.31 5.31 0 0 0 1.71 2.72 6.39 6.39 0 0 0 4.18 1.51c.45 0 .91-.07 1.37-.15a7.87 7.87 0 0 0 4.12-2.2 6.62 6.62 0 0 0 1.98-5.82zm-5.55 4.51a3.14 3.14 0 0 1-2.8.1 2.83 2.83 0 0 1-1.58-3.24 3.75 3.75 0 0 1 3-3 2.82 2.82 0 0 1 3.5 2.28 3.1 3.1 0 0 1 0 .57 3.74 3.74 0 0 1-2.12 3.29z" stroke-width=".78" stroke-miterlimit="10" stroke="#12bcb1" fill="none"/>
      <path stroke-width="1.42" stroke="#2ec4ba" stroke-miterlimit="10" stroke-linecap="round" fill="none" d="M19.91 50.61h13.41"/>
      <path stroke="#89e8cd" stroke-width="1.42" stroke-miterlimit="10" stroke-linecap="round" fill="none" d="M35.86 50.61h4.27"/>
      <path stroke="#c4f2e6" stroke-width="1.42" stroke-miterlimit="10" stroke-linecap="round" fill="none" d="M42.71 50.61h2.84"/>
      <circle class="cls-4" cx="32.85" cy="32.85" r="32.5"/>
    </g>
  </g>
</svg>
