<svg xmlns="http://www.w3.org/2000/svg" viewBox="0 0 65.69 65.69">
  <defs>
    <style>
      .cls-4{fill:#dddf62}.cls-5,.cls-6{fill:none}.cls-5,.cls-6,.cls-7{stroke:#c8bb00;stroke-linecap:round;stroke-width:.69px}.cls-5,.cls-7{stroke-linejoin:round}.cls-6{stroke-miterlimit:10}.cls-7{fill:#e6e015}
    </style>
  </defs>
  <g id="レイヤー_2" data-name="レイヤー 2">
    <g id="レイヤー_1-2" data-name="レイヤー 1">
      <circle cx="32.85" cy="32.85" r="32.5" fill="#fbec9f"/>
      <path d="M53.29 19.82H12.4A1.14 1.14 0 0 0 11.26 21v36.14c5.64 4.73 12.92 8.21 20.87 8.21a32.07 32.07 0 0 0 22.31-8.49V21a1.15 1.15 0 0 0-1.15-1.18z" fill="#f7f4eb"/>
      <path fill="#eeea60" d="M11.26 20.04h43.18v8.05H11.26z"/>
      <path class="cls-4" d="M38.32 40.42a3.38 3.38 0 0 0 4.41.31l.19-.29a3.38 3.38 0 0 1-4.62-4.62L38 36a3.38 3.38 0 0 0 .32 4.42zM34.58 44.21A6.76 6.76 0 0 1 33.51 36a7.22 7.22 0 0 0-1.06.78c-2.19 2.61-1.6 6.12.9 8.62s6 3.09 8.62.9a7.22 7.22 0 0 0 .78-1.06 6.76 6.76 0 0 1-8.17-1.03z"/>
      <path class="cls-4" d="M29.19 49.71a11.28 11.28 0 0 1-1.77-13.62 11.65 11.65 0 0 0-1.88 1.36c-4.08 4.4-3.52 10.82.79 15.13s10.72 4.87 15.12.78a11.07 11.07 0 0 0 1.36-1.88 11.28 11.28 0 0 1-13.62-1.77z"/>
      <path class="cls-5" d="M38.84 39.9a3.36 3.36 0 0 1-.53-4.08 2.94 2.94 0 0 0-.7.53 3.38 3.38 0 0 0 4.78 4.78 3.23 3.23 0 0 0 .53-.7 3.37 3.37 0 0 1-4.08-.53z"/>
      <path class="cls-5" d="M34.58 44.16A6.76 6.76 0 0 1 33.51 36a7.31 7.31 0 0 0-1.39 1.06c-2.64 2.64-2.13 6.42.51 9.06s6.41 3.15 9.06.51a7.07 7.07 0 0 0 1.06-1.4 6.74 6.74 0 0 1-8.17-1.07z"/>
      <path class="cls-5" d="M29 49.71a11.26 11.26 0 0 1-1.77-13.62 11.15 11.15 0 0 0-2.32 1.77c-4.41 4.4-3.9 11 .51 15.43s11 4.91 15.43.51a11.15 11.15 0 0 0 1.77-2.32A11.28 11.28 0 0 1 29 49.71z"/>
      <path class="cls-6" d="M53.29 19.82H12.4A1.14 1.14 0 0 0 11.26 21v36.14c5.64 4.73 12.92 8.21 20.87 8.21 8.64 0 16.48-2.71 22.31-8.21V21a1.15 1.15 0 0 0-1.15-1.18zM11.72 27.77h41.07"/>
      <circle class="cls-7" cx="15.39" cy="24.09" r=".72"/>
      <circle class="cls-7" cx="18.18" cy="24.09" r=".72"/>
      <circle class="cls-7" cx="20.96" cy="24.09" r=".72"/>
      <circle class="cls-6" cx="32.85" cy="32.85" r="32.5"/>
    </g>
  </g>
</svg>
