<svg xmlns="http://www.w3.org/2000/svg" viewBox="0 0 65.72 65.72">
  <defs>
    <style>
      .cls-9{fill:none}.cls-7{fill:#fff}.cls-7,.cls-8{stroke:#ffbe00}.cls-7,.cls-8,.cls-9{stroke-width:.72px;stroke-linecap:round;stroke-linejoin:round}.cls-8{fill:#ffd863}.cls-9{stroke:#ffa900}
    </style>
    <clipPath id="clip-path">
      <circle cx="32.86" cy="32.86" r="32.5" fill="none"/>
    </clipPath>
  </defs>
  <g id="レイヤー_2" data-name="レイヤー 2">
    <g id="レイヤー_1-2" data-name="レイヤー 1">
      <circle cx="32.86" cy="32.86" r="32.5" fill="#fbf0b6"/>
      <g clip-path="url(#clip-path)">
        <path d="M53.6 19.83H12.71A1.15 1.15 0 0 0 11.57 21v36.77a32.46 32.46 0 0 0 43.17-1.29V21a1.15 1.15 0 0 0-1.14-1.17z" stroke-width=".72" stroke-miterlimit="10" stroke="#ffbe00" fill="#fff"/>
        <path fill="#ffd752" opacity=".8" d="M11.57 20.05h43.18v8.05H11.57z"/>
        <path stroke-linejoin="round" stroke-linecap="round" stroke-width=".72" stroke="#ffbe00" fill="none" d="M12.03 27.78H53.1"/>
        <path class="cls-7" d="M19.73 45.85v2.53c0 1.16.2 1.35.75 1.35h1.16V51H20a1.9 1.9 0 0 1-2.08-2.15v-3c0-.83-.08-1.29-.8-1.39v-.8c.72-.14.8-.59.8-1.43v-2.92A1.89 1.89 0 0 1 20 37.16h1.68v1.29h-1.2c-.55 0-.75.18-.75 1.34v2.43a2.07 2.07 0 0 1-1.07 1.83 2 2 0 0 1 1.07 1.8z"/>
        <path class="cls-8" d="M26.15 47.08l.73-.75a.28.28 0 0 1 .43 0 1.2 1.2 0 0 0 .93.45c.55 0 1.13-.45 1.13-1.43V38.7a.27.27 0 0 1 .27-.27H31a.28.28 0 0 1 .27.27v6.67a2.88 2.88 0 0 1-3 3.1 2.73 2.73 0 0 1-2.15-1 .3.3 0 0 1 .03-.39zM33.81 46.94l.51-.87a.32.32 0 0 1 .48-.1 4.69 4.69 0 0 0 2.13.87 1.18 1.18 0 0 0 1.29-1.09c0-.72-.61-1.21-1.8-1.69s-2.65-1.39-2.65-3.06c0-1.26.93-2.72 3.18-2.72a5 5 0 0 1 2.82 1 .36.36 0 0 1 .09.47l-.54.8a.37.37 0 0 1-.49.17 4.71 4.71 0 0 0-2-.78 1.13 1.13 0 0 0-1.24 1c0 .67.52 1.12 1.67 1.59 1.37.55 3 1.37 3 3.19A3 3 0 0 1 37 48.47a4.59 4.59 0 0 1-3.11-1.1c-.14-.13-.21-.2-.08-.43z"/>
        <path class="cls-7" d="M46.68 42.22v-2.43c0-1.16-.2-1.34-.76-1.34h-1.15v-1.29h1.69a1.88 1.88 0 0 1 2.06 2.15v2.91c0 .84.1 1.29.82 1.43v.8c-.72.1-.82.56-.82 1.39v3A1.89 1.89 0 0 1 46.46 51h-1.69v-1.27h1.15c.56 0 .76-.19.76-1.35v-2.53a2 2 0 0 1 1.06-1.8 2.1 2.1 0 0 1-1.06-1.83z"/>
        <path class="cls-9" d="M14.88 22.58l1.28 1.32-1.28 1.27M16.56 25.57h1.91"/>
        <path d="M53.6 19.83H12.71A1.15 1.15 0 0 0 11.57 21v36.77a32.46 32.46 0 0 0 43.17-1.29V21a1.15 1.15 0 0 0-1.14-1.17z" stroke-width=".72" stroke-miterlimit="10" stroke="#ffbe00" fill="none"/>
      </g>
      <circle cx="32.86" cy="32.86" r="32.5" stroke-linecap="round" stroke-width=".72" stroke-miterlimit="10" stroke="#ffbe00" fill="none"/>
    </g>
  </g>
</svg>
