<svg xmlns="http://www.w3.org/2000/svg" xmlns:xlink="http://www.w3.org/1999/xlink" viewBox="0 0 100 100"><defs><style>.cls-1,.cls-12,.cls-13,.cls-7{fill:none;}.cls-1{clip-rule:evenodd;}.cls-2{fill:#c7ead4;}.cls-3{fill:#fff;}.cls-4{fill:#edb92b;}.cls-5{fill:#a8e573;}.cls-6{fill:#6cbe2d;}.cls-13,.cls-7{stroke:#6cbe2d;stroke-miterlimit:10;}.cls-8{clip-path:url(#clip-path);}.cls-10,.cls-9{opacity:0.6;}.cls-10{fill:#7cda33;}.cls-11{fill:#dcf3df;}.cls-13{stroke-width:1.08px;fill-rule:evenodd;}</style><clipPath id="clip-path"><path class="cls-1" d="M51.66,52.81a1.73,1.73,0,0,0-1.76,0l-14.57,8.4a1.76,1.76,0,0,0-.88,1.52V79.56a1.76,1.76,0,0,0,.88,1.52L49.9,89.49a1.73,1.73,0,0,0,1.76,0l14.56-8.41a1.76,1.76,0,0,0,.88-1.52V62.73a1.76,1.76,0,0,0-.88-1.52Z"/></clipPath></defs><title>アートボード 132</title><g id="言語一覧"><circle class="cls-2" cx="50.28" cy="49.81" r="48.41"/><path class="cls-3" d="M81.17,30.41H20.27a1.72,1.72,0,0,0-1.71,1.71v54.8A48.4,48.4,0,0,0,82.88,85V32.12A1.72,1.72,0,0,0,81.17,30.41Z"/><path class="cls-4" d="M49.65,98.76a49.12,49.12,0,0,1-31.4-11.64L18.06,87l0-54.84a2.24,2.24,0,0,1,2.24-2.24h60.9a2.24,2.24,0,0,1,2.24,2.24V85.23l-.17.16A48.72,48.72,0,0,1,49.65,98.76ZM19.09,86.67a47.85,47.85,0,0,0,63.25-1.9V32.12a1.17,1.17,0,0,0-1.17-1.18H20.27a1.18,1.18,0,0,0-1.18,1.18Z"/><rect class="cls-5" x="18.56" y="30.73" width="64.32" height="11.99"/><path class="cls-6" d="M80.42,42.79H19.25a.54.54,0,1,1,0-1.07H80.42a.54.54,0,1,1,0,1.07Z"/><path class="cls-6" d="M49.65,98.76a49.12,49.12,0,0,1-31.4-11.64L18.06,87l0-54.84a2.24,2.24,0,0,1,2.24-2.24h60.9a2.24,2.24,0,0,1,2.24,2.24V85.23l-.17.16A48.72,48.72,0,0,1,49.65,98.76ZM19.09,86.67a47.85,47.85,0,0,0,63.25-1.9V32.12a1.17,1.17,0,0,0-1.17-1.18H20.27a1.18,1.18,0,0,0-1.18,1.18Z"/><ellipse class="cls-7" cx="25.89" cy="36.68" rx="1.07" ry="1.06"/><ellipse class="cls-7" cx="30.04" cy="36.68" rx="1.07" ry="1.06"/><ellipse class="cls-7" cx="34.19" cy="36.68" rx="1.07" ry="1.06"/><g class="cls-8"><g class="cls-9"><path class="cls-10" d="M51.28,53.75l-14.59,8.4a1.83,1.83,0,0,0-.95,1.53V80.5a1.68,1.68,0,0,0,.46,1.12L52.6,53.57A1.79,1.79,0,0,0,51.28,53.75Z"/><path class="cls-11" d="M52.68,90.61a2.09,2.09,0,0,0,.41-.17L67.67,82a1.78,1.78,0,0,0,.91-1.52V63.68a1.74,1.74,0,0,0-.53-1.23Z"/><path class="cls-6" d="M67.66,62.15l-14.61-8.4c-.14-.08-1.42-.87-1.57-.9L36.2,81.62a1.72,1.72,0,0,0,.49.4l14.63,8.42a1.84,1.84,0,0,0,1.36.17L68.05,62.45A2.88,2.88,0,0,0,67.66,62.15Z"/></g><path class="cls-12" d="M68.58,80.5V63.68a1.82,1.82,0,0,0-.92-1.53l-14.61-8.4a1.7,1.7,0,0,0-.53-.2l16,27.35A1.75,1.75,0,0,0,68.58,80.5Z"/><path class="cls-12" d="M36.69,62.15a1.83,1.83,0,0,0-.95,1.53V80.5A1.82,1.82,0,0,0,36.69,82l14.63,8.42a1.78,1.78,0,0,0,1.13.21L36.77,62.1Z"/><polygon class="cls-12" points="50.83 50.66 50.63 50.77 50.89 50.77 50.83 50.66"/><path class="cls-11" d="M67.67,82a1.83,1.83,0,0,0,.86-1.12L51.67,53.68c-.42-.08,0-.15-.39.07L35.93,62.61l16,28.15a6.35,6.35,0,0,0,1.21-.32Z"/><polygon class="cls-12" points="69.03 81.75 68.93 81.59 68.93 81.81 69.03 81.75"/><path class="cls-12" d="M67.67,82,53.09,90.44a1.85,1.85,0,0,1-.64.21l.29.53,16.19-9.37v-.22l-.4-.69A1.83,1.83,0,0,1,67.67,82Z"/><path class="cls-12" d="M67.67,82,53.09,90.44a1.85,1.85,0,0,1-.64.21l.29.53,16.19-9.37v-.22l-.4-.69A1.83,1.83,0,0,1,67.67,82Z"/></g><path class="cls-13" d="M51.32,52.54a1.76,1.76,0,0,0-1.75,0L35,61a1.76,1.76,0,0,0-.88,1.52V79.29A1.78,1.78,0,0,0,35,80.82l14.57,8.41a1.76,1.76,0,0,0,1.75,0l14.57-8.41a1.78,1.78,0,0,0,.88-1.53V62.47A1.76,1.76,0,0,0,65.89,61Z"/><circle class="cls-7" cx="49.85" cy="49.77" r="48.41"/></g></svg>