<svg xmlns="http://www.w3.org/2000/svg" viewBox="0 0 65.69 65.69">
  <defs>
    <style>
      .cls-4,.cls-7{fill:none}.cls-4,.cls-5{stroke:#857bbf}.cls-4,.cls-5,.cls-7{stroke-linecap:round;stroke-width:.69px}.cls-4{stroke-miterlimit:10}.cls-5,.cls-7{stroke-linejoin:round}.cls-5{fill:#c9dcf3}.cls-7{stroke:#a48fd7}.cls-9{fill:#a5ebfb}
    </style>
  </defs>
  <g id="レイヤー_2" data-name="レイヤー 2">
    <g id="レイヤー_1-2" data-name="レイヤー 1">
      <circle cx="32.85" cy="32.85" r="32.5" fill="#e3dcf3"/>
      <path d="M53.45 20H12.56a1.15 1.15 0 0 0-1.14 1.15v36.13a35.63 35.63 0 0 0 21.91 8.06 29.71 29.71 0 0 0 21.27-8.67v-35.5A1.16 1.16 0 0 0 53.45 20z" fill="#fff"/>
      <path fill="#b4b8e7" d="M11.42 20.24H54.6v8.05H11.42z"/>
      <path class="cls-4" d="M53.45 20H12.56a1.15 1.15 0 0 0-1.14 1.15v36.13c6.23 5 13.48 8.07 21.43 8.07A32 32 0 0 0 54.6 57V21.17A1.16 1.16 0 0 0 53.45 20zM11.88 27.97h41.07"/>
      <circle class="cls-5" cx="15.55" cy="24.29" r=".72"/>
      <circle class="cls-5" cx="18.34" cy="24.29" r=".72"/>
      <circle class="cls-5" cx="21.12" cy="24.29" r=".72"/>
      <path d="M44.77 43.38a11.1 11.1 0 0 0-9.07-5.06 8.29 8.29 0 0 0-5.5 1.52c-1.15 1.37-1.95 3.58-1.95 7.15 0 1.71-.55 2.73-1.33 3.22a3.27 3.27 0 0 1-4.86-3.14h-1.69c.18 1.45 1 5 4.5 5.43 3 .36 4.82-.23 5.88-1 .8-1 .81-.84.81-.84a3.8 3.8 0 0 0 .71-2v5.68h3.27a2.79 2.79 0 0 1 .94-1.72 2.44 2.44 0 0 1 2-1.12 3.79 3.79 0 0 1 3.13 2.84h3.58c.93-1.71 2.09-7.4-.42-10.96z" fill="#cdc1e9"/>
      <path class="cls-7" d="M32.27 48.66v5.68h3.6a2.9 2.9 0 0 1 2.59-2.84 3.79 3.79 0 0 1 3.13 2.84h3.67c.68 0 3.4-6 .68-10.48s-6.39-6.26-9.52-6.26-8.17.4-8.17 9.4c0 5.72-6.21 3.8-6.21-.28h-1.73s0 5.25 4.56 5.8c7.4.88 7.4-3.89 7.4-3.89M33.79 42.57a4.05 4.05 0 1 1 .1 5.27"/>
      <circle cx="30.01" cy="45.63" r=".48" fill="#a48fd7"/>
      <path class="cls-9" d="M23.1 43.25a1.49 1.49 0 0 0 .22-.38 1.1 1.1 0 0 0-1.84-.28 3.84 3.84 0 0 0-.81 2 4.74 4.74 0 0 0 2.43-1.34zM19 45.56a5.57 5.57 0 0 0 .13-.78 1.59 1.59 0 0 0-.13-.51c-.26-.48-1-.35-1.31.08.39.78 1.01.72 1.31 1.21z"/>
      <path class="cls-7" d="M20.29 44.62c.64-.84.42-2.06 1.19-2.75 1.14-1 2.51.29 1.62 1.38a5.17 5.17 0 0 1-2.81 1.37zM19 45.56c-.3-.5-.95-.41-1.35-1.28s1-1.41 1.35-.73a3.58 3.58 0 0 1 0 2.01z"/>
      <circle class="cls-4" cx="32.85" cy="32.85" r="32.5"/>
    </g>
  </g>
</svg>
