<svg xmlns="http://www.w3.org/2000/svg" viewBox="0 0 65.69 65.69">
  <defs>
    <style>
      .cls-2{fill:#fff}.cls-4,.cls-5{fill:none;stroke-width:.69px;stroke:#00b8fa;stroke-linecap:round;stroke-linejoin:round}.cls-5{stroke:#00affa}.cls-8{fill:#00b8fa}
    </style>
  </defs>
  <g id="レイヤー_2" data-name="レイヤー 2">
    <g id="レイヤー_1-2" data-name="レイヤー 1">
      <circle cx="32.85" cy="32.85" r="32.5" fill="#beedfe"/>
      <path class="cls-2" d="M53.59 19.82H12.7A1.15 1.15 0 0 0 11.55 21v36.75a32.37 32.37 0 0 0 20.87 7.6c8.64 0 16.35-2.85 22.17-8.35l.14-36a1.14 1.14 0 0 0-1.14-1.18z"/>
      <path fill="#93e1fd" d="M11.81 20.19h42.78v7.59H11.81z"/>
      <path class="cls-4" d="M12.01 27.77h41.08M53.59 19.82H12.7A1.15 1.15 0 0 0 11.55 21v36.39a32.35 32.35 0 0 0 21.11 8 36.48 36.48 0 0 0 5.68-.47c.35-.05.69-.11 1-.18a32.32 32.32 0 0 0 15.32-7.81V21a1.14 1.14 0 0 0-1.07-1.18z"/>
      <path class="cls-5" d="M14.43 22.51l1.28 1.33-1.28 1.27M16.11 25.51h1.91"/>
      <path d="M26.82 52.27l.06-3.48c0-1.93 2.27-2.43 4.24-2.43l4.9.08c1.62 0 2.69-.88 2.69-3l.18-4.88c0-.85-.07-1.7-.93-2.07a12 12 0 0 0-3.78-.49 24.65 24.65 0 0 0-2.81.17c-1.06.16-2.14.47-2.14 2.15v.92a.77.77 0 0 0 .83.77h3.7v1.44l-6.22.2c-1.69 0-3.87.3-4.41 1.9s-1.71 9 2.76 8.73z" fill="#f8e15b"/>
      <path d="M28 38.59a4.5 4.5 0 0 1-1.19-.09 1.21 1.21 0 0 1-.94-.83c-.1-.42-.11-.94-.22-1.32a5 5 0 0 0-.57.78c-.27 0-.67-.23-.95-.29s1 1.83 1.95 2.26a3 3 0 0 0 1.92.29 4.27 4.27 0 0 1 0-.8z" fill="#ff5465" stroke-width=".35" stroke-linecap="round" stroke-linejoin="round" stroke="#00b8fa"/>
      <path class="cls-8" d="M33.4 35.42a17.43 17.43 0 0 1 2.83.23A2.59 2.59 0 0 1 38.56 38v5.76A2.24 2.24 0 0 1 36.32 46h-6a3.89 3.89 0 0 0-3.91 4.12v2h-1.52a2.08 2.08 0 0 1-1.74-.82c-1.38-1.75-1-5.67-.68-7.19a2.93 2.93 0 0 1 3-2.42h8a.7.7 0 0 0 .7-.7v-.74a.69.69 0 0 0-.7-.69h-5.16V38c0-1.34.22-2 2.34-2.34a17.24 17.24 0 0 1 2.67-.23h.08m0-.69h-.09a17 17 0 0 0-2.78.24c-2.46.43-2.91 1.34-2.91 3v2.22h5.82v.8h-8a3.63 3.63 0 0 0-3.63 3c-.54 2.21-1 8.87 3.09 8.87h2.22v-2.76a3.18 3.18 0 0 1 3.21-3.42h6a3 3 0 0 0 2.94-2.94V38a3.25 3.25 0 0 0-2.91-3 18.34 18.34 0 0 0-3-.24z"/>
      <path class="cls-2" d="M30.16 38.31a.69.69 0 0 1 0-1.37.69.69 0 0 1 0 1.37z"/>
      <path class="cls-8" d="M30.16 37.22a.41.41 0 0 1 0 .81.41.41 0 0 1 0-.81m0-.56a1 1 0 1 0 .95 1 1 1 0 0 0-.95-1z"/>
      <path d="M33.31 58.6a18.15 18.15 0 0 1-2.88-.23 2.93 2.93 0 0 1-2.62-2.68v-5.8a2.55 2.55 0 0 1 2.55-2.55h6A3.51 3.51 0 0 0 40 43.57v-2.32h1.87a2.4 2.4 0 0 1 2 1c1.46 1.86 1.12 5.92.74 7.49a3.3 3.3 0 0 1-3.3 2.69h-8.38v1.43h5.82v1.88c0 1.56-.36 2.28-2.62 2.68a15.78 15.78 0 0 1-2.73.23z" fill="#6ed7fc"/>
      <path class="cls-8" d="M41.83 41.6a2.1 2.1 0 0 1 1.74.82c1.38 1.75 1 5.67.68 7.19a2.94 2.94 0 0 1-3 2.42h-8.7v2.13h5.83v1.53c0 1.23-.11 1.94-2.34 2.34a17.24 17.24 0 0 1-2.67.23h-.08a17.43 17.43 0 0 1-2.8-.26 2.6 2.6 0 0 1-2.34-2.34v-5.8a2.21 2.21 0 0 1 2.21-2.2h6a3.89 3.89 0 0 0 3.9-4.12v-2h1.53m0-.7h-2.18v2.67A3.19 3.19 0 0 1 36.4 47h-6a2.9 2.9 0 0 0-2.9 2.89v5.8a3.25 3.25 0 0 0 2.91 3 18.34 18.34 0 0 0 2.95.24h.09a17 17 0 0 0 2.78-.24c2.46-.43 2.91-1.34 2.91-3v-2.22h-5.86v-.74h8a3.63 3.63 0 0 0 3.64-3c.54-2.21 1-8.87-3.09-8.87z"/>
      <path class="cls-2" d="M36.55 56.74a.69.69 0 1 1 .68-.69.69.69 0 0 1-.68.69z"/>
      <path class="cls-8" d="M36.55 55.65a.41.41 0 1 1-.39.4.4.4 0 0 1 .39-.4m0-.56a1 1 0 1 0 1 1 .95.95 0 0 0-1-1z"/>
      <circle class="cls-4" cx="32.85" cy="32.85" r="32.5"/>
    </g>
  </g>
</svg>
