<svg xmlns="http://www.w3.org/2000/svg" viewBox="0 0 65.69 65.71">
  <defs>
    <style>
      .cls-10{fill:#fbb6cd}.cls-4,.cls-9{fill:none}.cls-10,.cls-4{stroke:#e1326d;stroke-width:.69px}.cls-10,.cls-4,.cls-9{stroke-linecap:round;stroke-linejoin:round}.cls-6{fill:#f2447e}.cls-9{stroke:#f2447e;stroke-width:.28px}.cls-8{fill:#fccfde}
    </style>
  </defs>
  <g id="レイヤー_2" data-name="レイヤー 2">
    <g id="レイヤー_1-2" data-name="レイヤー 1">
      <circle cx="32.85" cy="32.85" r="32.5" fill="#fbb6cd"/>
      <path d="M53.59 19.82H12.7A1.15 1.15 0 0 0 11.55 21v36.43a32.7 32.7 0 0 0 20.87 7.92 32 32 0 0 0 22.31-8.48V21a1.14 1.14 0 0 0-1.14-1.18z" fill="#fff"/>
      <path fill="#f13976" opacity=".6" d="M11.55 20.04h43.18v8.05H11.55z"/>
      <path class="cls-4" d="M12.01 27.77h41.08M53.59 19.82H12.7A1.15 1.15 0 0 0 11.55 21v36.43a32.7 32.7 0 0 0 20.87 7.92 32 32 0 0 0 22.31-8.48V21a1.14 1.14 0 0 0-1.14-1.18z"/>
      <path d="M37.18 53.41c.66-6.12 5.4-9.35 7.83-9.62 2.1-.23 3.19-.17 4.42.74a.25.25 0 0 0 .38-.06l.24-.41a.3.3 0 0 0 0-.37c-.72-.75-3.31-3.14-8.77-2.61C33.3 41.86 27 52.4 26.14 64.79a29.54 29.54 0 0 0 7.14.57 24 24 0 0 0 6.09-.65c-.97-2.62-2.65-7.05-2.19-11.3z" fill="#f56d9a"/>
      <path class="cls-4" d="M37.24 52.76a10.33 10.33 0 0 1 8.34-9.24 5.19 5.19 0 0 1 4 1.17.28.28 0 0 0 .43-.06l.27-.41a.29.29 0 0 0 0-.37 13.18 13.18 0 0 0-8.76-3.37c-9 0-15.4 11.57-16.34 24a31.69 31.69 0 0 0 7.4.88 31 31 0 0 0 7-.79C38.44 62 36.72 57 37.24 52.76z"/>
      <path class="cls-6" d="M21.29 58.48a.28.28 0 0 0-.31.25l-.23 1.93A.29.29 0 0 0 21 61l1.89.23a.3.3 0 0 0 .32-.24l.34-2a.29.29 0 0 0-.26-.34zM25.53 52.67l.59-1.39a.3.3 0 0 0-.12-.38l-1.72-.78a.28.28 0 0 0-.38.15l-.63 1.5a.29.29 0 0 0 .16.39l1.76.66a.28.28 0 0 0 .34-.15zM28.89 45.78a.28.28 0 0 0 .38-.06l1-1.15a.27.27 0 0 0-.06-.42l-1.27-.84a.28.28 0 0 0-.37 0l-1 1.12a.29.29 0 0 0 .06.43zM34.25 41a.29.29 0 0 0 .37.07l1.12-.65a.3.3 0 0 0 .08-.45l-.82-.92a.28.28 0 0 0-.34-.07l-1.13.59a.28.28 0 0 0-.09.44zM42.15 38h-1.54a.29.29 0 0 0-.3.34l.18.85a.28.28 0 0 0 .29.23h1.47a.28.28 0 0 0 .28-.33l-.11-.74a.29.29 0 0 0-.27-.35zM46.77 40.1v.18a.27.27 0 0 0 .15.27l1 .54a.29.29 0 0 0 .38-.09.29.29 0 0 0-.07-.4l-1-.72a.29.29 0 0 0-.46.22zM46.62 44.62a.29.29 0 0 0-.38.24V45a.28.28 0 0 0 .23.31l.76.16a.29.29 0 0 0 .34-.26.28.28 0 0 0-.2-.3zM44.06 45.57l-.75.19a.28.28 0 0 0-.19.41l.31.57a.28.28 0 0 0 .43.09l.53-.42a.31.31 0 0 0 .11-.3l-.09-.33a.28.28 0 0 0-.35-.21zM41.92 49.73l.31-.54a.29.29 0 0 0 0-.31l-.71-1.07a.29.29 0 0 0-.43-.05l-.59.53a.29.29 0 0 0 0 .41l1 1.08a.28.28 0 0 0 .42-.05zM39.71 51.63l-.4.79a.29.29 0 0 0 .07.35l1.17 1a.29.29 0 0 0 .47-.15l.24-1a.27.27 0 0 0-.1-.29l-1-.78a.29.29 0 0 0-.45.08zM39.45 57.31l1.48.63a.28.28 0 0 0 .4-.28l-.06-1a.3.3 0 0 0-.15-.24l-1.36-.71a.29.29 0 0 0-.42.24L39.28 57a.28.28 0 0 0 .17.31zM40.16 62.24a.29.29 0 0 0 .27.21l1.94.11a.28.28 0 0 0 .28-.41L42 60.81a.3.3 0 0 0-.26-.17H40.1a.3.3 0 0 0-.28.37z"/>
      <path d="M19.2 38l4.88-2.53h.1l2.07 1.15a.09.09 0 0 1 0 .12l-1.62 5.76a.12.12 0 0 1-.13.07l-5.61-2a.09.09 0 0 1-.07-.1l.28-2.43a.1.1 0 0 1 .1-.04z" stroke="#f2447e" stroke-width=".28" fill="#f56d9a" stroke-linecap="round" stroke-linejoin="round"/>
      <path class="cls-8" d="M21.18 39.86l-1 .49a.1.1 0 0 0 0 .18l3.19 1.1zM21.85 39.51l2.26 1.83-.18-2.91-2.08 1.08zM24.66 38.06a.11.11 0 0 0-.07.11l.13 2.55.85-3.14zM23.48 37.9a.09.09 0 0 0 0-.17l-1.11-.39-.37 1.35zM22.82 37.11l1.05.36-.06-1-1 .51a.1.1 0 0 0 .01.13zM20.39 38.33l.67.55.37-1.23-1 .53a.09.09 0 0 0-.04.15zM25.32 37a.1.1 0 0 0 0-.17l-.64-.36v.83zM20.53 39.51a.1.1 0 0 0 0-.16l-.45-.35-.1.82z"/>
      <path class="cls-9" d="M19.77 40.43l3.58 1.23a.09.09 0 0 0 .09-.16l-2.37-1.86a.08.08 0 0 0-.1 0l-1.21.62a.1.1 0 0 0 .01.17zM21.39 39.41L24 41.52a.09.09 0 0 0 .15-.08L24 38.23a.1.1 0 0 0-.14-.08l-2.43 1.26zM25.5 37.28l-1.12.58a.08.08 0 0 0-.05.09l.15 3a.1.1 0 0 0 .19 0l1-3.56a.09.09 0 0 0-.17-.11zM21.57 38.88l1.91-1a.09.09 0 0 0 0-.17L22 37.22a.1.1 0 0 0-.12.07l-.44 1.48a.09.09 0 0 0 .13.11zM23.7 36.13l-1.35.7a.1.1 0 0 0 0 .18l1.42.48a.1.1 0 0 0 .13-.09l-.07-1.19a.1.1 0 0 0-.13-.08zM19.93 38.23l1 .77a.09.09 0 0 0 .07 0l.45-1.5a.1.1 0 0 0-.14-.11l-1.4.72a.1.1 0 0 0 .02.12zM25.36 36.76l-1-.56a.1.1 0 0 0-.14.09l.07 1a.1.1 0 0 0 .14.08l.93-.48a.09.09 0 0 0 0-.13zM19.65 39.88l.92-.48a.09.09 0 0 0 0-.16l-.78-.63a.09.09 0 0 0-.15.06l-.13 1.11a.09.09 0 0 0 .14.1z"/>
      <circle class="cls-10" cx="15.55" cy="24.06" r=".72"/>
      <circle class="cls-10" cx="18.34" cy="24.06" r=".72"/>
      <circle class="cls-10" cx="21.12" cy="24.06" r=".72"/>
      <circle class="cls-4" cx="32.85" cy="32.85" r="32.5"/>
    </g>
  </g>
</svg>
