<svg xmlns="http://www.w3.org/2000/svg" viewBox="0 0 65.69 65.69">
  <defs>
    <style>
      .cls-1,.cls-5{fill:#e3cfb1}.cls-4,.cls-6{fill:none}.cls-4,.cls-5,.cls-6{stroke:#a5743a;stroke-linecap:round;stroke-width:.69px}.cls-4{stroke-miterlimit:10}.cls-5,.cls-6{stroke-linejoin:round}.cls-7{fill:#a06d30}
    </style>
  </defs>
  <g id="レイヤー_2" data-name="レイヤー 2">
    <g id="レイヤー_1-2" data-name="レイヤー 1">
      <circle class="cls-1" cx="32.85" cy="32.85" r="32.5"/>
      <path d="M53.45 20H12.56a1.15 1.15 0 0 0-1.14 1.15v36.13a35.63 35.63 0 0 0 21.91 8.06 29.71 29.71 0 0 0 21.27-8.67v-35.5A1.16 1.16 0 0 0 53.45 20z" fill="#fff"/>
      <path fill="#d0b07f" opacity=".9" d="M11.42 20.24H54.6v8.05H11.42z"/>
      <path class="cls-4" d="M53.45 20H12.56a1.15 1.15 0 0 0-1.14 1.15v36.13c6.23 5 13.48 8.07 21.43 8.07A32 32 0 0 0 54.6 57V21.17A1.16 1.16 0 0 0 53.45 20zM11.88 27.97h41.07"/>
      <path class="cls-4" d="M14.75 22.49l1.28 1.32-1.28 1.28M16.43 25.49h1.91"/>
      <path class="cls-5" d="M41.82 45.92A3.19 3.19 0 1 0 45 49.11a3.19 3.19 0 0 0-3.18-3.19zm-.09 4.58a1.39 1.39 0 1 1 1.39-1.39 1.39 1.39 0 0 1-1.39 1.39z"/>
      <path class="cls-1" d="M41.36 49.25v-6.89H25v6.89a7.82 7.82 0 0 0 7.82 7.82h.7a7.82 7.82 0 0 0 7.84-7.82z"/>
      <path class="cls-6" d="M23.59 42.36h17.77v5.83a8.88 8.88 0 0 1-8.88 8.88 8.88 8.88 0 0 1-8.88-8.88v-5.83zM24.52 45.29h13.79"/>
      <path class="cls-5" d="M33.88 35.33a3.73 3.73 0 0 1-1.54 2.26c-.66.51-1.32 1.86.19 3.18a2.2 2.2 0 0 1 .7-2.56c.7-.54 1.42-1.89.65-2.88zM32.34 33.44c.54 1.05.29 1.75-.73 2.6a2.75 2.75 0 0 0-.67 3 3.86 3.86 0 0 1 1.55-2.54 1.79 1.79 0 0 0-.15-3.06z"/>
      <path class="cls-7" d="M32.12 50.07a4.11 4.11 0 0 1 1.26-1.18 1.84 1.84 0 0 0-2.45 2.54 7.44 7.44 0 0 0 1.19-1.36zM32.36 50.21a7.8 7.8 0 0 1-1.23 1.41 1.84 1.84 0 0 0 2.46-2.54 3.87 3.87 0 0 0-1.23 1.13z"/>
      <path class="cls-1" d="M41.52 57.14a.07.07 0 0 0-.06-.07H25.89a.07.07 0 0 0-.06.07 1.05 1.05 0 0 0 1 1.09H40.5a1.06 1.06 0 0 0 1.02-1.09z"/>
      <path class="cls-6" d="M23.5 57.07h18a.07.07 0 0 1 .07.07 1.09 1.09 0 0 1-1.09 1.09H24.52a1.09 1.09 0 0 1-1.09-1.09.07.07 0 0 1 .07-.07z"/>
      <circle class="cls-4" cx="32.85" cy="32.85" r="32.5"/>
    </g>
  </g>
</svg>
