<?xml version="1.0" encoding="utf-8"?>
<!-- Generator: Adobe Illustrator 22.1.0, SVG Export Plug-In . SVG Version: 6.00 Build 0)  -->
<svg version="1.1" id="レイヤー_1" xmlns="http://www.w3.org/2000/svg" xmlns:xlink="http://www.w3.org/1999/xlink" x="0px"
	 y="0px" viewBox="0 0 65.7 65.7" style="enable-background:new 0 0 65.7 65.7;" xml:space="preserve">
<style type="text/css">
	.st0{fill:#CCF4FA;}
	.st1{fill:#FFFFFF;}
	.st2{fill:none;stroke:#00C7E5;stroke-width:0.8514;stroke-linecap:round;stroke-linejoin:round;}
	.st3{fill:#00C7E5;stroke:#00C7E5;stroke-width:0.8514;stroke-linecap:round;stroke-linejoin:round;}
	.st4{fill:#FFFFFF;stroke:#00C7E5;stroke-width:0.9224;stroke-miterlimit:10;}
	.st5{fill:#FFFFFF;stroke:#00C7E5;stroke-width:0.8514;stroke-miterlimit:10;}
	.st6{fill:#80E3F2;}
	.st7{fill:none;stroke:#00C7E5;stroke-width:0.69;stroke-linecap:round;stroke-linejoin:round;}
	.st8{fill:none;stroke:#00C7E5;stroke-width:0.69;stroke-miterlimit:10;}
	.st9{fill:none;stroke:#00C7E5;stroke-width:0.6811;stroke-linecap:round;stroke-linejoin:round;}
</style>
<g id="言語一覧_1_">
	<ellipse class="st0" cx="32.9" cy="32.9" rx="32.1" ry="32.3"/>
	<path class="st1" d="M53.3,20H13c-0.6,0-1.1,0.5-1.1,1.1v36.6c12.4,10.5,30.8,10,42.6-1.3V21.1C54.5,20.5,54,20,53.3,20z"/>
	<ellipse transform="matrix(0.7099 -0.7043 0.7043 0.7099 -21.9186 37.4479)" class="st0" cx="34.5" cy="45.3" rx="4.4" ry="12.3"/>
	<ellipse transform="matrix(0.9654 -0.2608 0.2608 0.9654 -10.6295 10.5704)" class="st0" cx="34.5" cy="45.3" rx="12.3" ry="4.4"/>
	<ellipse transform="matrix(0.2568 -0.9665 0.9665 0.2568 -18.1662 67.0312)" class="st0" cx="34.5" cy="45.3" rx="12.4" ry="4.4"/>
	<path class="st2" d="M35,53.6c3.2,2.1,6.1,2.8,7.3,1.6c0.9-0.9,0.7-2.7-0.3-5"/>
	<path class="st2" d="M27.8,47.1c-0.5-0.6-1.1-1.3-1.5-1.9"/>
	<path class="st2" d="M35,53.6c-1.2-0.8-2.4-1.7-3.4-2.6"/>
	<path class="st2" d="M29.5,58.7c1.6,0.4,3.7-1.6,5.5-5.1"/>
	<path class="st2" d="M27.3,51.5c0,0.8,0,1.5,0,2.1"/>
	<path class="st2" d="M36.3,32.8c-1.6-0.4-3.7,1.6-5.5,5.1"/>
	<path class="st2" d="M27.8,47.1c0.6,0.6,1.2,1.3,1.8,2s1.3,1.3,1.9,1.8"/>
	<path class="st2" d="M34.3,40.5c-0.8,0.2-1.7,0.4-2.6,0.6s-1.7,0.5-2.5,0.8"/>
	<path class="st2" d="M31.5,50.9c0.8-0.2,1.7-0.4,2.6-0.6c0.9-0.2,1.7-0.5,2.5-0.8"/>
	<path class="st2" d="M34.3,40.5c1.4-0.3,2.8-0.5,4.3-0.5"/>
	<path class="st2" d="M25.2,43.6c1.3-0.7,2.6-1.2,4-1.7"/>
	<path class="st2" d="M40.6,47.8c-1.3,0.7-2.6,1.2-4,1.7"/>
	<path class="st3" d="M36.6,49.6c0.3-0.8,0.5-1.7,0.8-2.6c0.2-0.9,0.4-1.8,0.6-2.6"/>
	<path class="st2" d="M36.6,49.6c-0.5,1.4-1,2.7-1.7,4"/>
	<path class="st2" d="M27.3,51.5c0.1-1.5,0.2-2.9,0.5-4.3"/>
	<path class="st2" d="M25.2,43.6c-3.4,1.8-5.5,3.9-5,5.6c0.4,1.7,3.2,2.4,7.1,2.3"/>
	<path class="st2" d="M31.5,50.9c-1.4,0.3-2.8,0.5-4.3,0.5"/>
	<path class="st2" d="M29.1,41.9c0.5-1.4,1-2.7,1.7-4"/>
	<path class="st2" d="M29.1,41.9c-0.3,0.8-0.5,1.7-0.8,2.6c-0.2,0.9-0.4,1.8-0.6,2.6"/>
	<path class="st2" d="M30.8,37.9c-3.2-2.1-6.1-2.8-7.3-1.7c-0.8,0.8-0.9,3,0.4,5"/>
	<path class="st2" d="M30.8,37.9c1.2,0.8,2.4,1.7,3.4,2.6"/>
	<ellipse class="st4" cx="33" cy="46" rx="1.7" ry="1.7"/>
	<ellipse class="st5" cx="38.4" cy="34.5" rx="1" ry="1"/>
	<ellipse class="st5" cx="27.7" cy="56.6" rx="1" ry="1"/>
	<path class="st2" d="M40.6,47.8c3.4-1.8,5.5-3.9,5-5.6c-0.4-1.7-3.2-2.4-7.1-2.3"/>
	<path class="st2" d="M38.5,40c0.1-0.8,0.1-1.6,0-2.4"/>
	<path class="st2" d="M38.5,40c-0.1,1.5-0.2,2.9-0.5,4.3"/>
	<path class="st2" d="M38,44.3c-0.6-0.7-1.2-1.3-1.8-2c-0.6-0.7-1.3-1.3-1.9-1.8"/>
	<path class="st2" d="M38,44.3c0.4,0.5,0.9,1,1.2,1.5"/>
</g>
<g id="レイヤー_2_1_">
	<g id="レイヤー_1-2">
		<path class="st6" d="M12.9,20h41.5v8H11.3v-6.3C11.2,20.8,12,20,12.9,20C12.9,20,12.9,20,12.9,20z"/>
		<path class="st7" d="M12,27.8h41.1"/>
		<path class="st8" d="M53.6,19.8H12.7c-0.6,0-1.1,0.5-1.1,1.1c0,0,0,0,0,0v36.4c5.8,5,13.2,7.8,20.9,7.9c8.3,0.2,16.2-2.9,22.3-8.5
			V21C54.8,20.4,54.3,19.8,53.6,19.8C53.6,19.8,53.6,19.8,53.6,19.8z"/>
		<circle class="st8" cx="32.8" cy="32.8" r="32.5"/>
		<ellipse class="st9" cx="16.7" cy="24.2" rx="0.7" ry="0.7"/>
		<ellipse class="st9" cx="19.5" cy="24.2" rx="0.7" ry="0.7"/>
		<ellipse class="st9" cx="22.2" cy="24.2" rx="0.7" ry="0.7"/>
	</g>
</g>
</svg>
