<svg xmlns="http://www.w3.org/2000/svg" viewBox="0 0 65.69 65.69">
  <defs>
    <style>
      .cls-1{fill:#ffbec4}.cls-5,.cls-6{stroke:#e63c52;stroke-linecap:round;stroke-linejoin:round;stroke-width:.69px;fill:none}.cls-6{stroke:#dc3f60}
    </style>
  </defs>
  <g id="レイヤー_2" data-name="レイヤー 2">
    <g id="レイヤー_1-2" data-name="レイヤー 1">
      <circle class="cls-1" cx="32.85" cy="32.85" r="32.5"/>
      <path d="M53.59 19.82H12.7A1.15 1.15 0 0 0 11.55 21v36.43a32.7 32.7 0 0 0 20.87 7.92 32 32 0 0 0 22.31-8.48V21a1.14 1.14 0 0 0-1.14-1.18z" fill="#fff"/>
      <path fill="#ffa2a2" d="M11.55 20.04h43.18v8.05H11.55z"/>
      <path d="M24.42 36.16h17.87a.35.35 0 0 1 .28.15l4.26 6.4a.33.33 0 0 1 0 .41l-13.32 14.2a.33.33 0 0 1-.48 0l-13.29-14a.33.33 0 0 1 0-.42l4.45-6.58a.34.34 0 0 1 .23-.16z" stroke-linecap="round" stroke-linejoin="round" stroke-width=".69" stroke="#e63c52" fill="#ff7684"/>
      <path class="cls-1" d="M27.65 44.19h-3.52a.31.31 0 0 0-.22.53l7.57 8a.26.26 0 0 0 0-.11zM30.1 44.19l3.82 8.67 3.81-8.67H30.1zM40.38 44.19a.38.38 0 0 0-.35.23L36.6 52l7.14-7.78zM36.94 42.24a.31.31 0 0 0 .22-.53L34.52 39l-3.15 3.29zM36.5 38.71l2.5 2.61 1.37-3.13h-3.65a.31.31 0 0 0-.22.52zM27.65 38.62l1.14 2.57 2.87-3h-3.72a.31.31 0 0 0-.29.43zM43.83 42.24a.31.31 0 0 0 .26-.48l-1.32-2-1.08 2.46zM26.3 42.24a.32.32 0 0 0 .29-.44l-.8-1.8-1.5 2.23z"/>
      <path class="cls-5" d="M22.48 44L31 52.91a.31.31 0 0 0 .5-.34l-4.1-8.91a.32.32 0 0 0-.28-.19H22.7a.31.31 0 0 0-.22.53zM28.67 43.47l4.4 10a.32.32 0 0 0 .57 0l4.22-9.58a.31.31 0 0 0-.29-.44zM43.69 43.47H39.6a.34.34 0 0 0-.29.19l-4 8.82a.32.32 0 0 0 .52.34L43.92 44a.31.31 0 0 0-.23-.53zM30 42.24h7a.31.31 0 0 0 .22-.53l-3.48-3.63a.31.31 0 0 0-.45 0l-3.47 3.63a.31.31 0 0 0 .18.53zM40.21 37.47h-4.92a.31.31 0 0 0-.22.53l3.37 3.52a.31.31 0 0 0 .51-.09l1.55-3.52a.31.31 0 0 0-.29-.44zM26.22 37.91l1.61 3.66a.31.31 0 0 0 .51.09L31.85 38a.31.31 0 0 0-.23-.53H26.5a.31.31 0 0 0-.28.44zM44.09 41.76L42 38.67a.3.3 0 0 0-.54 0l-1.33 3.13a.31.31 0 0 0 .29.44h3.41a.31.31 0 0 0 .26-.48zM23 42.24h3.3a.31.31 0 0 0 .28-.44l-1.32-3a.31.31 0 0 0-.54 0l-2 3a.3.3 0 0 0 .28.44z"/>
      <path class="cls-6" d="M12.01 27.77h41.08M14.98 22.39l1.28 1.32-1.28 1.28M16.66 25.39h1.91"/>
      <path class="cls-6" d="M53.59 19.82H12.7A1.15 1.15 0 0 0 11.55 21v36.43a32.7 32.7 0 0 0 20.87 7.92 32 32 0 0 0 22.31-8.48V21a1.14 1.14 0 0 0-1.14-1.18z"/>
      <circle class="cls-6" cx="32.85" cy="32.85" r="32.5"/>
    </g>
  </g>
</svg>
