<svg xmlns="http://www.w3.org/2000/svg" viewBox="0 0 65.72 65.72">
  <defs>
    <style>
      .cls-6{fill:none}.cls-4{fill:#fff}.cls-5{fill:#efb1d5}.cls-6{stroke:#d34693;stroke-miterlimit:10;stroke-width:.72px;stroke-linecap:round}
    </style>
    <clipPath id="clip-path">
      <circle cx="32.86" cy="32.86" r="32.5" fill="none"/>
    </clipPath>
  </defs>
  <g id="レイヤー_2" data-name="レイヤー 2">
    <g id="レイヤー_1-2" data-name="レイヤー 1">
      <circle cx="32.86" cy="32.86" r="32.5" fill="#ffcaec"/>
      <g clip-path="url(#clip-path)">
        <path class="cls-4" d="M53.33 19.83H12.44A1.15 1.15 0 0 0 11.3 21v36.77a32.37 32.37 0 0 0 20.87 7.59c8.64 0 16.34-2.85 22.17-8.35l.13-36a1.15 1.15 0 0 0-1.14-1.18z"/>
        <path class="cls-5" d="M11.8 19.97h42.78v7.59H11.8z"/>
        <path class="cls-6" d="M12.01 27.55h41.07M53.58 19.6H12.69a1.14 1.14 0 0 0-1.14 1.14v36.79a32.33 32.33 0 0 0 20.87 7.6c8.64 0 16.48-2.85 22.31-8.35v-36a1.15 1.15 0 0 0-1.15-1.18z"/>
        <path class="cls-6" d="M14.43 22.29l1.27 1.33-1.27 1.27M16.1 25.29h1.91"/>
        <path d="M44.65 47.46a6.24 6.24 0 0 0-2.73.64 5.77 5.77 0 0 1-.61-1.42 3.84 3.84 0 0 1-.05-1.19c.07-.5.36-1.22.35-1.28s-.06-.31-.67-.31-1.13.11-1.19.27a7.66 7.66 0 0 0-.25.9 20.65 20.65 0 0 1-1.84 3.54 3.58 3.58 0 0 1-.41-1 3.84 3.84 0 0 1-.06-1.19 10.13 10.13 0 0 1 .36-1.28s-.07-.31-.67-.32-1.13.12-1.19.28-.13.54-.25.9-1.6 3.64-2 4.49c-.2.43-.37.78-.49 1v.05l-.16.31c-.08.15-.17.29-.22.29a1.9 1.9 0 0 1 0-.94c.22-1.13.74-2.91.74-3s.09-.34-.35-.5a.54.54 0 0 0-.62.11l-.06.09s.47-2-.91-2a4.17 4.17 0 0 0-2.67 1.81l-2 1.1-1 .54-.07-.07C24 47.5 20.87 46.23 21 43.82c.05-.88.35-3.19 6-6 4.61-2.3 8.3-1.67 8.93-.27.91 2-2 5.72-6.75 6.26a3.6 3.6 0 0 1-3-.77c-.25-.27-.29-.29-.38-.24s-.05.33 0 .48a2.84 2.84 0 0 0 1.73 1.36 9.16 9.16 0 0 0 5.61-.55c2.9-1.13 5.16-4.25 4.5-6.85s-5.08-3.53-9.24-2a21 21 0 0 0-7.09 4.06c-2.29 2.15-2.65 4-2.5 4.8.53 2.77 4.35 4.57 5.88 5.91l-.21.11c-.77.38-3.68 1.91-4.41 3.52-.82 1.82.13 3.13.77 3.31a4.7 4.7 0 0 0 5.06-2 5.13 5.13 0 0 0 .46-4.68l.6-.35c.39-.23.77-.44 1.1-.62a7.65 7.65 0 0 0-.39 2 4.14 4.14 0 0 0 .9 2.9 1 1 0 0 0 .72.24c.65 0 .94-.54 1.27-1.17.4-.79.75-1.69.75-1.69s-.51 2.32.69 2.32c.44 0 .88-.57 1.08-.86a.64.64 0 0 0 .07-.12c.17-.31.57-1 1.16-2.17.76-1.49 1.49-3.36 1.49-3.36a10.28 10.28 0 0 0 .29 1.21 10.75 10.75 0 0 0 .68 1.4l-.29.39c-.14.19-.3.39-.46.59a16.22 16.22 0 0 0-1.41 1.77.48.48 0 0 0 .13.65 1.18 1.18 0 0 0 .74.12 3.1 3.1 0 0 0 1.1-.26 3.41 3.41 0 0 0 1-.5 2.12 2.12 0 0 0 .91-1.87 4 4 0 0 0-.35-1.33 1.88 1.88 0 0 0 .16-.23 25.22 25.22 0 0 0 1.65-2.85 10.65 10.65 0 0 0 .29 1.22 9.62 9.62 0 0 0 .54 1.21 5.16 5.16 0 0 0-1.61 2.07c-.34 1-.07 1.46.44 1.56a1.55 1.55 0 0 0 .8-.16 3.7 3.7 0 0 0 1-.53 2.26 2.26 0 0 0 1.12-1.86 3.31 3.31 0 0 0-.25-1.1 5.76 5.76 0 0 1 2.92-.34c2.62.31 3.13 1.94 3 2.63a1.68 1.68 0 0 1-.83 1.17c-.18.12-.24.16-.22.24s.11.12.26.09a2 2 0 0 0 1.43-1.82c.07-1.65-1.47-3.41-4.19-3.4zm-20.19 6.81c-.87.94-2.08 1.3-2.6 1s-.34-1.72.72-2.72A14.08 14.08 0 0 1 24.63 51l.53-.32h.06l.14-.08a3.78 3.78 0 0 1-.9 3.67zM30.78 50c-.3.74-.94 2.62-1.32 2.52s-.53-1.52-.07-2.93a6.8 6.8 0 0 1 1-1.89c.48-.53 1-.7 1.12-.48a9.32 9.32 0 0 1-.73 2.78zM36 52.46c-.13.07-.24.11-.3.08s0-.11 0-.11.66-.71.92-1l.51-.65v.07c.05.82-.77 1.38-1.13 1.61zm4-.91c-.1-.07-.08-.29.23-1a3.54 3.54 0 0 1 .89-1.15 1.38 1.38 0 0 1 .09.51A1.66 1.66 0 0 1 40 51.55z" fill="#ffbbea"/>
        <path d="M32.81 54.35a1.21 1.21 0 0 1-.8.27 1.38 1.38 0 0 1-1.09-.5l-.09-.12a1.83 1.83 0 0 1-1.61 1 1.66 1.66 0 0 1-1.22-.41 3.3 3.3 0 0 1-.75-1.22 5.76 5.76 0 0 1-.8 1.89 5.62 5.62 0 0 1-4.55 2.52 4.74 4.74 0 0 1-1.3-.18 2.2 2.2 0 0 1-1.32-1.25 3.59 3.59 0 0 1 .09-3.05c.65-1.43 2.61-2.71 3.95-3.44l-.62-.43c-1.87-1.29-4.19-2.89-4.65-5.24-.22-1.13.36-3.24 2.72-5.45a22.14 22.14 0 0 1 7.34-4.22 13.07 13.07 0 0 1 4.27-.75c3.12 0 5.38 1.26 5.9 3.3.81 3.15-1.9 6.52-4.93 7.69a12.76 12.76 0 0 1-1.53.49 1.47 1.47 0 0 1 .86.54 2.09 2.09 0 0 1 .41 1.2h.14a1.25 1.25 0 0 1 .71.59c.41-.92.77-1.74.82-1.89s.11-.37.15-.52.08-.31.11-.4c.19-.49.8-.74 1.83-.74 1.3 0 1.41.88 1.41 1a1.08 1.08 0 0 1-.1.51 5.56 5.56 0 0 0-.26.92v.32a12.9 12.9 0 0 0 .92-1.87 7.3 7.3 0 0 1 .28-1c.19-.49.8-.74 1.83-.74 1.31 0 1.41.88 1.42 1a1.11 1.11 0 0 1-.11.51 6.78 6.78 0 0 0-.25.92 2.6 2.6 0 0 0 0 .79v.21a2.55 2.55 0 0 0 .24.58 7 7 0 0 1 2.39-.43 5.27 5.27 0 0 1 3.86 1.48 3.65 3.65 0 0 1 1.05 2.62 2.71 2.71 0 0 1-2 2.5h-.25a.83.83 0 0 1-.84-.7 1 1 0 0 1 .55-1 1 1 0 0 0 .5-.66 1.3 1.3 0 0 0-.29-.85 3 3 0 0 0-2.12-1 5.56 5.56 0 0 0-1.94.08 4.44 4.44 0 0 1 .08.61 2.93 2.93 0 0 1-1.41 2.47 4.44 4.44 0 0 1-1.21.7 2.49 2.49 0 0 1-.91.21 1.09 1.09 0 0 1-.26 0 1.4 1.4 0 0 1-.85-.49 3.5 3.5 0 0 1-.62.59 4.37 4.37 0 0 1-1.14.6 3.83 3.83 0 0 1-1.29.29h-.24a1.58 1.58 0 0 1-1-.27 1.19 1.19 0 0 1-.47-.74l-.14.23a4.55 4.55 0 0 1-.87.93zm-10.49.31a2.54 2.54 0 0 0 1.61-.88 3.06 3.06 0 0 0 .86-2 11.38 11.38 0 0 0-1.71 1.3 2.2 2.2 0 0 0-.8 1.59zm13.41-5.2c-.22.5-.48 1-.74 1.56 0-.06.49-.59.49-.59l.17-.21.29-.39c-.08-.1-.15-.23-.21-.37zm-5.46-.15a4.89 4.89 0 0 0-.2.48v.08l.06-.17c.03-.11.08-.24.14-.39zm8.69.43a6.26 6.26 0 0 1 .89-1.06l-.15-.34c-.23.4-.5.84-.79 1.27.02.04.03.09.09.13zM32.7 37a12.65 12.65 0 0 0-5.4 1.45c-3.61 1.8-5.49 3.61-5.58 5.39-.07 1.29 1.2 2.27 2.55 3.31a20.11 20.11 0 0 1 1.59 1.31l2.38-1.3a5.73 5.73 0 0 1 1.91-1.64h-1a6.58 6.58 0 0 1-1.92-.25 3.52 3.52 0 0 1-2.18-1.78c-.32-.85.06-1.22.32-1.36a.83.83 0 0 1 .42-.12 1.15 1.15 0 0 1 .84.5 2.64 2.64 0 0 0 1.86.57h.56a7.75 7.75 0 0 0 5.95-3.4 2.09 2.09 0 0 0 .3-1.82c-.22-.4-1.1-.86-2.6-.86z" fill="#d34693"/>
        <path class="cls-5" d="M44.65 47.46a6.24 6.24 0 0 0-2.73.64 5.77 5.77 0 0 1-.61-1.42 3.84 3.84 0 0 1-.05-1.19c.07-.5.36-1.22.35-1.28s-.06-.31-.67-.31-1.13.11-1.19.27a7.66 7.66 0 0 0-.25.9 20.65 20.65 0 0 1-1.84 3.54 3.58 3.58 0 0 1-.41-1 3.84 3.84 0 0 1-.06-1.19 10.13 10.13 0 0 1 .36-1.28s-.07-.31-.67-.32-1.13.12-1.19.28-.13.54-.25.9-1.6 3.64-2 4.49c-.2.43-.37.78-.49 1v.05l-.16.31c-.08.15-.17.29-.22.29a1.9 1.9 0 0 1 0-.94c.22-1.13.74-2.91.74-3s.09-.34-.35-.5a.54.54 0 0 0-.62.11l-.06.09s.47-2-.91-2a4.17 4.17 0 0 0-2.67 1.81l-2 1.1-1 .54-.07-.07C24 47.5 20.87 46.23 21 43.82c.05-.88.35-3.19 6-6 4.61-2.3 8.3-1.67 8.93-.27.91 2-2 5.72-6.75 6.26a3.6 3.6 0 0 1-3-.77c-.25-.27-.29-.29-.38-.24s-.05.33 0 .48a2.84 2.84 0 0 0 1.73 1.36 9.16 9.16 0 0 0 5.61-.55c2.9-1.13 5.16-4.25 4.5-6.85s-5.08-3.53-9.24-2a21 21 0 0 0-7.09 4.06c-2.29 2.15-2.65 4-2.5 4.8.53 2.77 4.35 4.57 5.88 5.91l-.21.11c-.77.38-3.68 1.91-4.41 3.52-.82 1.82.13 3.13.77 3.31a4.7 4.7 0 0 0 5.06-2 5.13 5.13 0 0 0 .46-4.68l.6-.35c.39-.23.77-.44 1.1-.62a7.65 7.65 0 0 0-.39 2 4.14 4.14 0 0 0 .9 2.9 1 1 0 0 0 .72.24c.65 0 .94-.54 1.27-1.17.4-.79.75-1.69.75-1.69s-.51 2.32.69 2.32c.44 0 .88-.57 1.08-.86a.64.64 0 0 0 .07-.12c.17-.31.57-1 1.16-2.17.76-1.49 1.49-3.36 1.49-3.36a10.28 10.28 0 0 0 .29 1.21 10.75 10.75 0 0 0 .68 1.4l-.29.39c-.14.19-.3.39-.46.59a16.22 16.22 0 0 0-1.41 1.77.48.48 0 0 0 .13.65 1.18 1.18 0 0 0 .74.12 3.1 3.1 0 0 0 1.1-.26 3.41 3.41 0 0 0 1-.5 2.12 2.12 0 0 0 .91-1.87 4 4 0 0 0-.35-1.33 1.88 1.88 0 0 0 .16-.23 25.22 25.22 0 0 0 1.65-2.85 10.65 10.65 0 0 0 .29 1.22 9.62 9.62 0 0 0 .54 1.21 5.16 5.16 0 0 0-1.61 2.07c-.34 1-.07 1.46.44 1.56a1.55 1.55 0 0 0 .8-.16 3.7 3.7 0 0 0 1-.53 2.26 2.26 0 0 0 1.12-1.86 3.31 3.31 0 0 0-.25-1.1 5.76 5.76 0 0 1 2.92-.34c2.62.31 3.13 1.94 3 2.63a1.68 1.68 0 0 1-.83 1.17c-.18.12-.24.16-.22.24s.11.12.26.09a2 2 0 0 0 1.43-1.82c.07-1.65-1.47-3.41-4.19-3.4zm-20.19 6.81c-.87.94-2.08 1.3-2.6 1s-.34-1.72.72-2.72A14.08 14.08 0 0 1 24.63 51l.53-.32h.06l.14-.08a3.78 3.78 0 0 1-.9 3.67zM30.78 50c-.3.74-.94 2.62-1.32 2.52s-.53-1.52-.07-2.93a6.8 6.8 0 0 1 1-1.89c.48-.53 1-.7 1.12-.48a9.32 9.32 0 0 1-.73 2.78zM36 52.46c-.13.07-.24.11-.3.08s0-.11 0-.11.66-.71.92-1l.51-.65v.07c.05.82-.77 1.38-1.13 1.61zm4-.91c-.1-.07-.08-.29.23-1a3.54 3.54 0 0 1 .89-1.15 1.38 1.38 0 0 1 .09.51A1.66 1.66 0 0 1 40 51.55z"/>
        <path class="cls-4" d="M28.05 36c7.44-2.1 9.54 1.21 9.54 1.21a3 3 0 0 0-1.32-1.77c-1.75-1.19-4.9-1.35-7.92-.28a21 21 0 0 0-7.09 4.06c-.33.32-.63.63-.89.93 0 .04 4.1-3.15 7.68-4.15z"/>
      </g>
      <circle cx="32.86" cy="32.86" r="32.5" stroke="#d34693" stroke-miterlimit="10" stroke-width=".72" fill="none"/>
    </g>
  </g>
</svg>
