<svg width="31" height="18" viewBox="0 0 31 18" fill="none" xmlns="http://www.w3.org/2000/svg">
<path d="M21.3901 11.3464L25.2787 6.28711" stroke="#8491A5" stroke-width="2.0813" stroke-linecap="round" stroke-linejoin="round"/>
<path d="M13.4847 8.0871L17.8153 11.7642" stroke="#8491A5" stroke-width="2.0813" stroke-linecap="round" stroke-linejoin="round"/>
<path d="M5.65656 12.3236L9.71812 8.24786" stroke="#8491A5" stroke-width="2.0813" stroke-linecap="round" stroke-linejoin="round"/>
<path d="M5.65654 12.3235C5.95425 12.6226 6.17389 12.9907 6.29601 13.3953C6.41814 13.7999 6.43899 14.2284 6.35672 14.643C6.27444 15.0576 6.09158 15.4455 5.82432 15.7722C5.55706 16.099 5.21364 16.3546 4.82447 16.5164C4.43529 16.6782 4.01236 16.7412 3.59312 16.6999C3.17388 16.6586 2.77125 16.5142 2.42088 16.2795C2.07051 16.0448 1.7832 15.7271 1.58439 15.3544C1.38558 14.9817 1.2814 14.5656 1.28107 14.1428C1.28091 13.7327 1.37852 13.3285 1.56574 12.9639C1.75297 12.5993 2.02438 12.285 2.35732 12.0471" stroke="#57D5C1" stroke-width="2.0813" stroke-linecap="round" stroke-linejoin="round"/>
<path d="M9.7181 8.24782C9.42039 7.94874 9.20075 7.58062 9.07862 7.17605C8.95649 6.77148 8.93564 6.34293 9.01792 5.92834C9.10019 5.51376 9.28305 5.12592 9.55031 4.79916C9.81758 4.4724 10.161 4.2168 10.5502 4.05498C10.9393 3.89317 11.3623 3.83013 11.7815 3.87144C12.2008 3.91276 12.6034 4.05716 12.9538 4.29185C13.3041 4.52655 13.5914 4.8443 13.7902 5.21699C13.9891 5.58968 14.0932 6.00581 14.0936 6.42854C14.0924 7.03619 13.8768 7.62378 13.485 8.08711" stroke="#8491A5" stroke-width="2.0813" stroke-linecap="round" stroke-linejoin="round"/>
<path d="M25.3877 6.33213C24.8994 6.13091 24.485 5.78328 24.201 5.33675C23.917 4.89022 23.7774 4.36658 23.8013 3.83741C23.8251 3.30824 24.0112 2.79937 24.3341 2.38035C24.657 1.96133 25.101 1.65261 25.6054 1.49639C26.1098 1.34017 26.65 1.34407 27.1521 1.50757C27.6542 1.67107 28.0937 1.98618 28.4106 2.40982C28.7275 2.83347 28.9062 3.34498 28.9224 3.87444C28.9387 4.4039 28.7915 4.92547 28.5012 5.36784" stroke="#57D5C1" stroke-width="2.0813" stroke-linecap="round" stroke-linejoin="round"/>
<path d="M21.3967 11.3464C21.7968 11.6475 22.1005 12.0596 22.2701 12.5317C22.4397 13.0039 22.4679 13.5156 22.3512 14.0036C22.2346 14.4917 21.9781 14.9348 21.6135 15.2784C21.2488 15.622 20.792 15.8509 20.2992 15.9371C19.8065 16.0232 19.2994 15.9628 18.8405 15.7632C18.3815 15.5636 17.9909 15.2336 17.7166 14.8139C17.4423 14.3942 17.2964 13.9031 17.2969 13.4012C17.2975 12.8992 17.4443 12.4084 17.7195 11.9893" stroke="#8491A5" stroke-width="2.0813" stroke-linecap="round" stroke-linejoin="round"/>
</svg>
