<svg xmlns="http://www.w3.org/2000/svg" viewBox="0 0 124.9 106.85">
  <defs>
    <style>
      .cls-2{fill:#4b6a96}.cls-3,.cls-4,.cls-5{fill:none;stroke:#4b6a96;stroke-linecap:round;stroke-miterlimit:10}.cls-4,.cls-5{stroke:#ffda63}.cls-5{stroke-width:.8px}.cls-7{fill:#a1b3d1;opacity:.7}
    </style>
  </defs>
  <g id="レイヤー_2" data-name="レイヤー 2">
    <g id="レイヤー_4" data-name="レイヤー 4">
      <circle cx="63.7" cy="59.52" r="46.84" fill="#ffda63"/>
      <circle class="cls-2" cx="89.44" cy="8.91" r="1.04"/>
      <circle class="cls-2" cx="15.15" cy="26.71" r="1.04"/>
      <circle class="cls-2" cx="64.07" cy="12.67" r="1.68"/>
      <circle class="cls-2" cx="16.84" cy="59.51" r="1.68"/>
      <circle class="cls-2" cx="110.52" cy="59.51" r="1.68"/>
      <path class="cls-3" d="M4.71 37.5h5.46M7.44 40.24v-5.47M117.66 76.88h5.46M120.39 79.61v-5.46M45.18.5v1.41M45.18 5.48v1.41M48.43 3.76h-1.4M43.42 3.76h-1.41M47.52 1.41l-.99.99M47.52 5.98l-.99-.99M42.82 1.41l.99.99M42.82 5.98l.99-.99"/>
      <circle class="cls-3" cx="98.63" cy="8.05" r="2.1"/>
      <path class="cls-4" d="M97.97 16.78h5.46M100.7 19.51v-5.46M11.44 92.51h5.46M14.17 95.24v-5.46"/>
      <path class="cls-5" d="M121.87 63.29v1.14M121.87 67.32v1.13M124.5 65.92h-1.13M120.45 65.92h-1.13M123.77 64.03l-.81.8M123.77 67.72l-.81-.81M119.97 64.03l.8.8M119.97 67.72l.8-.81"/>
      <circle class="cls-4" cx="2.6" cy="28.81" r="2.1"/>
      <path class="cls-3" d="M17.41 52.19A46.86 46.86 0 0156 13.3M109.9 67.14a46.85 46.85 0 01-92.61-1.06M71.21 13.27A46.89 46.89 0 01110 52.65"/>
      <rect x="32.78" y="38.23" width="61.83" height="42.58" rx="3" fill="#fff"/>
      <rect class="cls-3" x="32.78" y="38.23" width="61.83" height="42.58" rx="3"/>
      <path class="cls-7" d="M69 49.22a8.11 8.11 0 00-6.14-2.37 6.46 6.46 0 00-3 .76c-1-.79-2.46-1.19-2.6-.9a6.94 6.94 0 00.65 3.16 5.89 5.89 0 00-.48 2.52c.06 3.13 2.4 4.23 5.31 4.23s5.26-1.27 5.36-4.23a6.27 6.27 0 00-.37-2.26c.82-.29 1.42-.77 1.27-.91z"/>
      <path class="cls-7" d="M33.28 45.37L63.6 66.62l27.77-20.47-26 23.13a3 3 0 01-3.64.19L33.28 50.08z"/>
      <path d="M70.88 48a9.36 9.36 0 00-7.11-2.75 7.53 7.53 0 00-3.47.88c-1.11-.91-2.85-1.37-3-1a8 8 0 00.7 3.66 6.84 6.84 0 00-.56 2.92c.07 3.64 2.79 4.91 6.16 4.91s6.13-1.47 6.19-4.91a7.35 7.35 0 00-.42-2.62c.99-.33 1.68-.89 1.51-1.09z" stroke-miterlimit="10" stroke="#4b6a96" fill="none"/>
      <path class="cls-3" d="M32.78 45l29.13 20.65a3 3 0 003.54 0L91.7 45.9"/>
      <path d="M86.2 77.5h3a2 2 0 002-2v-5.43" stroke="#a1b3d1" stroke-linejoin="round" opacity=".7" stroke-linecap="round" fill="none"/>
      <circle class="cls-7" cx="91.22" cy="67.28" r=".75"/>
    </g>
  </g>
</svg>
