<svg xmlns="http://www.w3.org/2000/svg" viewBox="0 0 65.69 65.69">
  <defs>
    <style>
      .cls-4,.cls-5,.cls-8,.cls-9{fill:none}.cls-4,.cls-9{stroke:#4a8cdd}.cls-4,.cls-5{stroke-linecap:round;stroke-linejoin:round}.cls-4,.cls-5,.cls-9{stroke-width:.69px}.cls-5{stroke:#5e93d3}.cls-6{fill:#fcfcfc}.cls-7{fill:#92b6ef}.cls-9{stroke-miterlimit:10}.cls-10{fill:#dbf4b0}
    </style>
  </defs>
  <g id="レイヤー_2" data-name="レイヤー 2">
    <g id="レイヤー_1-2" data-name="レイヤー 1">
      <circle cx="32.85" cy="32.85" r="32.5" fill="#8ecdf4"/>
      <path d="M53.72 19.48H12.83a1.15 1.15 0 0 0-1.15 1.14v36.79A32.37 32.37 0 0 0 32.55 65c8.64 0 16.35-2.85 22.17-8.35l.14-36a1.14 1.14 0 0 0-1.14-1.17z" fill="#fff"/>
      <path fill="#93c6f9" opacity=".9" d="M11.94 19.85h42.78v7.59H11.94z"/>
      <path class="cls-4" d="M12.14 27.43h41.08M53.72 19.48H12.83a1.15 1.15 0 0 0-1.15 1.14v36.79A32.37 32.37 0 0 0 32.55 65c8.64 0 16.49-2.85 22.31-8.35v-36a1.14 1.14 0 0 0-1.14-1.17z"/>
      <path class="cls-5" d="M14.56 22.17l1.28 1.33-1.28 1.27M16.24 25.17h1.91"/>
      <path class="cls-6" d="M21.51 35.3h22.44v6.5H21.51"/>
      <path class="cls-6" d="M21.51 41.81c0 .64 5 1.17 11.22 1.17S44 42.45 44 41.81V35.3"/>
      <ellipse class="cls-6" cx="32.73" cy="35.3" rx="11.22" ry="1.17"/>
      <path class="cls-6" d="M21.51 42.52h22.44v6.5H21.51"/>
      <path class="cls-6" d="M21.51 49c0 .65 5 1.17 11.22 1.17S44 49.68 44 49v-6.48"/>
      <ellipse class="cls-6" cx="32.73" cy="42.52" rx="11.22" ry="1.17"/>
      <path class="cls-7" d="M22.66 36.24h21.29v6.36H22.66"/>
      <path class="cls-7" d="M22.66 42.62c0 .63 4.77 1.14 10.65 1.14S44 43.25 44 42.62v-6.38"/>
      <ellipse class="cls-7" cx="33.31" cy="36.24" rx="10.64" ry="1.14"/>
      <path class="cls-7" d="M22.66 36.24v6.36M22.66 43.51h21.29v6.36H22.66"/>
      <path class="cls-7" d="M22.66 49.89c0 .63 4.77 1.14 10.65 1.14S44 50.52 44 49.89v-6.38"/>
      <ellipse class="cls-7" cx="33.31" cy="43.51" rx="10.64" ry="1.14"/>
      <path class="cls-7" d="M22.66 43.51v6.36M22.66 50.82h21.29v6.35H22.66"/>
      <path class="cls-7" d="M22.66 57.19c0 .63 4.77 1.14 10.65 1.14S44 57.82 44 57.19v-6.37"/>
      <ellipse class="cls-7" cx="33.31" cy="50.82" rx="10.64" ry="1.14"/>
      <path class="cls-7" d="M22.66 50.82v6.35"/>
      <path class="cls-8" d="M21.51 50h22.44v6.5H21.51"/>
      <path class="cls-9" d="M21.51 50v6.5c0 .65 5 1.17 11.22 1.17S44 57.16 44 56.51V50"/>
      <path class="cls-9" d="M42.79 49.48c.74.16 1.16.33 1.16.52 0 .64-5 1.16-11.22 1.16S21.51 50.64 21.51 50c0-.16.29-.3.81-.44"/>
      <path class="cls-8" d="M21.51 42.53h22.44v6.5H21.51"/>
      <path class="cls-9" d="M21.51 42.53v6.52c0 .64 5 1.16 11.22 1.16S44 49.69 44 49.05v-6.52"/>
      <path class="cls-9" d="M42.83 42c.72.15 1.12.32 1.12.5 0 .65-5 1.17-11.22 1.17s-11.22-.52-11.22-1.17c0-.15.3-.3.83-.44"/>
      <path class="cls-8" d="M21.51 35.1h22.44v6.5H21.51"/>
      <path class="cls-9" d="M44 35.1v6.52c0 .64-5 1.16-11.22 1.16s-11.22-.52-11.22-1.16V35.1"/>
      <ellipse class="cls-9" cx="32.73" cy="35.1" rx="11.22" ry="1.17"/>
      <ellipse class="cls-10" cx="24.07" cy="37.57" rx=".58" ry=".7"/>
      <ellipse class="cls-10" cx="24.07" cy="40.29" rx=".58" ry=".7"/>
      <ellipse class="cls-10" cx="24.07" cy="37.57" rx=".58" ry=".7"/>
      <ellipse class="cls-10" cx="24.07" cy="40.29" rx=".58" ry=".7"/>
      <ellipse class="cls-10" cx="24.07" cy="45.33" rx=".58" ry=".7"/>
      <ellipse class="cls-10" cx="24.07" cy="48.05" rx=".58" ry=".7"/>
      <ellipse class="cls-10" cx="24.07" cy="52.67" rx=".58" ry=".7"/>
      <ellipse class="cls-10" cx="24.07" cy="55.39" rx=".58" ry=".7"/>
      <circle class="cls-4" cx="32.85" cy="32.85" r="32.5"/>
    </g>
  </g>
</svg>
