<svg xmlns="http://www.w3.org/2000/svg" xmlns:xlink="http://www.w3.org/1999/xlink" viewBox="0 0 791.21 740.68"><defs><style>.cls-1,.cls-11,.cls-79,.cls-83{fill:none;}.cls-2,.cls-21,.cls-27,.cls-29{fill:#fff;}.cls-3{isolation:isolate;}.cls-4{fill:#ebf3f6;}.cls-5{fill:#d0e5ea;}.cls-14,.cls-16,.cls-18,.cls-22,.cls-31,.cls-32,.cls-37,.cls-38,.cls-39,.cls-42,.cls-43,.cls-45,.cls-5,.cls-54,.cls-8{mix-blend-mode:multiply;}.cls-54,.cls-6{fill:#d33337;}.cls-7{fill:#f75d5d;}.cls-9{fill:#bd3a5d;}.cls-10{fill:#c9f7cf;}.cls-11{stroke:#25e1b4;stroke-miterlimit:10;stroke-width:9.32px;}.cls-11,.cls-21,.cls-79,.cls-83{stroke-linecap:round;}.cls-12{fill:#3ac5b4;}.cls-13{fill:#7979c4;}.cls-14,.cls-16,.cls-19,.cls-22{fill:#605985;}.cls-14,.cls-18,.cls-32,.cls-43,.cls-54{opacity:0.3;}.cls-15{fill:#686bbd;}.cls-16{opacity:0.3;}.cls-17{fill:#7679c4;}.cls-20{clip-path:url(#clip-path);}.cls-21{stroke:#2d376e;stroke-width:2.33px;}.cls-21,.cls-79,.cls-83{stroke-linejoin:round;}.cls-22{opacity:0.4;}.cls-23{fill:#c6ced5;}.cls-24{fill:#e2c080;}.cls-25{fill:#d1d1d1;}.cls-26{fill:#a0a1c2;opacity:0.45;}.cls-27{opacity:0.9;}.cls-28{fill:#2d376e;}.cls-29{opacity:0.8;}.cls-30{fill:#414a54;}.cls-31,.cls-33{fill:#4f5a68;}.cls-31{opacity:0.4;}.cls-32,.cls-35,.cls-39,.cls-45{fill:#687ca0;}.cls-34{fill:#606f8b;}.cls-36,.cls-42{fill:#8094b9;}.cls-37,.cls-38,.cls-40,.cls-78{fill:#bdcddf;}.cls-38,.cls-45{opacity:0.7;}.cls-39{opacity:0.15;}.cls-41{fill:#9bb6cf;}.cls-42{opacity:0.35;}.cls-43{fill:#a9f0e3;}.cls-44{fill:#606060;}.cls-46{fill:#ffffd0;}.cls-47{fill:#ffffba;}.cls-48{fill:#f5e085;}.cls-49{fill:#2c9487;}.cls-50{fill:#f5e0ac;}.cls-51{clip-path:url(#clip-path-2);}.cls-52{clip-path:url(#clip-path-3);}.cls-53{fill:#f2d188;}.cls-55{fill:#d2d6ca;}.cls-56{fill:#d4d7cc;}.cls-57{fill:#d5d9cd;}.cls-58{fill:#d7dacf;}.cls-59{fill:#d8dcd1;}.cls-60{fill:#daddd3;}.cls-61{fill:#dbdfd4;}.cls-62{fill:#dde0d6;}.cls-63{fill:#dfe2d8;}.cls-64{fill:#e0e3d9;}.cls-65{fill:#e2e5db;}.cls-66{fill:#e3e6dd;}.cls-67{fill:#e5e8df;}.cls-68{fill:#e6e9e0;}.cls-69{fill:#e8ebe2;}.cls-70{fill:#eaece4;}.cls-71{fill:#ebeee5;}.cls-72{fill:#edefe7;}.cls-73{fill:#eef1e9;}.cls-74{fill:#f0f2eb;}.cls-75{fill:#f1f4ec;}.cls-76{fill:#f3f5ee;}.cls-77{fill:#414141;}.cls-77,.cls-78{fill-rule:evenodd;}.cls-79{stroke:#ebeef2;stroke-width:2.08px;stroke-dasharray:0.15 5.96;}.cls-80{clip-path:url(#clip-path-4);}.cls-81{opacity:0.6;}.cls-82{fill:#b0e8e1;}.cls-83{stroke:#3ac5b4;stroke-width:2.98px;}</style><clipPath id="clip-path" transform="translate(-129.92 -13.53)"><path class="cls-1" d="M797.94,556.25c-1,17.37-33.29,29.63-33.29,29.63s-24.4-15.92-23.39-33.29,4.61-31.51,27-29.63C794.71,525.17,799,538.88,797.94,556.25Z"/></clipPath><clipPath id="clip-path-2" transform="translate(-129.92 -13.53)"><rect class="cls-1" x="221.62" y="552.87" width="35.54" height="15.99"/></clipPath><clipPath id="clip-path-3" transform="translate(-129.92 -13.53)"><rect class="cls-1" x="205.37" y="625.73" width="35.54" height="12.19"/></clipPath><clipPath id="clip-path-4" transform="translate(-129.92 -13.53)"><path class="cls-2" d="M417.85,615.42a2.83,2.83,0,0,0-2.79,0L392,628.7a2.79,2.79,0,0,0-1.39,2.41v26.58a2.78,2.78,0,0,0,1.39,2.43l23,13.28a2.74,2.74,0,0,0,2.79,0l23.13-13.28a2.81,2.81,0,0,0,1.4-2.42V631.11a2.79,2.79,0,0,0-1.4-2.41Z"/></clipPath></defs><title>path_Node-js_200302</title><g class="cls-3"><g id="shadow"><path class="cls-4" d="M174.91,722c26.8,0,439.32-1.66,442.6-1.66,56.93,0,61.6-29.76,118.33-29.76H851.69c42.92,0,69.45,8.95,69.45,25.94,0,10.27-18.18,20.56-57.53,20.56-120.63,0-42.33,18.78-156.79,17-45.15-.71-71.8,0-136.45-.7-44.54-.5-105.26-.2-172-.2-47.82,0-137.25-.46-139.08-.46-2.78,0-82.61.18-91.94-.57-20.93-1.67-23.51-12.27-23.51-18.37C143.86,724.08,169.05,722,174.91,722Z" transform="translate(-129.92 -13.53)"/><rect class="cls-5" x="713.18" y="695.1" width="15.12" height="2.38"/><path class="cls-6" d="M834.91,616.18H770.22v55l41.3.13c13.92,0,20.85-1.5,24.81,12.54,1.34,4.75,6.83,25.61,6.83,25.61h15.06V671.2h0V644.08C858.22,631.2,847.79,616.18,834.91,616.18Z" transform="translate(-129.92 -13.53)"/><rect class="cls-7" x="640.3" y="639.52" width="88" height="3.69"/><g class="cls-8"><path class="cls-9" d="M812.67,671.33c13.92,0,24.14-1.7,27.29,8.7,1,3.2,7.36,29.45,7.36,29.45h10.9V656.75h-88v14.58Z" transform="translate(-129.92 -13.53)"/></g></g><g id="tree"><path class="cls-10" d="M657.44,80.78v2.07c0,12.07,9.48,21.85,21.17,21.85h4c11.69,0,21.16-9.78,21.16-21.85V80.78c0-12.06-9.47-21.85-21.16-21.85h-4C666.92,58.93,657.44,68.72,657.44,80.78Z" transform="translate(-129.92 -13.53)"/><path class="cls-10" d="M683.5,13.53h-.7a7.27,7.27,0,0,0-7.4,7.13V22a7.27,7.27,0,0,0,7.4,7.13h.7A7.27,7.27,0,0,0,690.9,22V20.66A7.27,7.27,0,0,0,683.5,13.53Z" transform="translate(-129.92 -13.53)"/><path class="cls-10" d="M152.93,350.28h-1.4c-8.16,0-14.78,6.37-14.78,14.23v2.73c0,7.86,6.62,14.23,14.78,14.23h1.4a14.52,14.52,0,0,0,14.79-14.24v-2.72C167.72,356.65,161.1,350.28,152.93,350.28Z" transform="translate(-129.92 -13.53)"/><path class="cls-10" d="M696.78,242.91c0-6.37-1.13-11.46-2-16-3.17-16.93-6.89-26.79-18.1-36.67-7.8-6.89-17.09-4.08-14.73-15.63a44.06,44.06,0,0,0,3.94-18.27v-8.75c0-25.28-21.29-45.78-47.56-45.78h-4.5a49,49,0,0,0-17.94,3.38,29,29,0,0,0-17.46,11.67c-10.29,14.26-40.51,14-51.64-1.89-8.26-11.76-7.47-19.88-11.37-31.4a10.36,10.36,0,0,1-1.33-2.23c-14.88-34.68-51.45-59.21-94.22-59.21H407.07c-40.79,0-75.95,22.31-92,54.47A19.52,19.52,0,0,1,297.6,87.49H254.69c-33.58,0-60.81,25.2-60.81,56.29v4.71a52.29,52.29,0,0,0,1.15,10.9,14.54,14.54,0,0,1-11,17.27c-34.17,7.62-54.09,37.48-54.09,73.16h0c0,32.87,16.91,60.78,46.29,70.94-.18.32,9.74,2.64,13.48,7.43,3.1,4,.17,7,.17,7a17.35,17.35,0,0,0,5.58,22.6c8.65,5.86,18.42,3.35,27.35-.55l9.49-3.35c8.18-3,17.11-3.72,28.28,3s14.14,18,14.14,28.84c0,11.72,7.81,20.65,16.74,25.68s13.67,1.39,24.56,6.69c8.38,4,11.79,17.47,13.55,26.2,2.17,10.74,1.08,31.08.18,43.67a10,10,0,0,0,10,10.76H487.21a10,10,0,0,0,10-10.76c-.9-12.59-2-32.93.17-43.67,2.53-12.5,14.19-21,28.26-23.09,17.39-2.52,31.43-4.59,47.92-9.08,42.56-11,59.49-25.58,59.49-56.26v-4.71A52,52,0,0,0,631,336.48a10.06,10.06,0,0,1,8-12.73c36.58-6.14,58-36.9,58-73.93h0C697.05,247.49,697,245.19,696.78,242.91Z" transform="translate(-129.92 -13.53)"/><polyline class="cls-11" points="234.47 464.87 234.47 378.47 172.4 336.81 172.4 301.98 119.34 267.17 119.34 195.87"/><line class="cls-11" x1="80.86" y1="241.63" x2="117.04" y2="241.63"/><polyline class="cls-11" points="155.38 225.32 155.38 253.33 197.76 280.58"/><line class="cls-11" x1="197.45" y1="179.91" x2="197.45" y2="301.37"/><polyline class="cls-11" points="250.49 126.17 250.49 184.45 222.49 207.91 222.49 311.57 258.69 347.02 258.69 466.73"/><polyline class="cls-11" points="247.1 260.9 247.1 296.34 283.4 334.31 283.4 466.82"/><line class="cls-11" x1="276.87" y1="221.79" x2="276.87" y2="280.7"/><polyline class="cls-11" points="303.99 142.82 303.99 180.67 348.27 224.94"/><polyline class="cls-11" points="349.77 178.4 349.77 250.3 310.2 302.82"/><line class="cls-11" x1="308.53" y1="256.36" x2="308.53" y2="464.3"/><polyline class="cls-11" points="430.72 182.36 430.72 203.32 403.48 218.51 403.48 266.19 365.63 299.5 365.63 333.56 331.57 366.1 331.57 468.78"/><path class="cls-12" d="M560.15,184.76h-.54a8.62,8.62,0,0,1-6-2.88l-.32-.43a8.67,8.67,0,1,1,13-11.5l.31.32a8.73,8.73,0,0,1-.74,12.25A8.32,8.32,0,0,1,560.15,184.76ZM557.49,173a3.61,3.61,0,0,0-.35,5.09l.26.26a3.61,3.61,0,1,0,5.44-4.74l-.27-.26A3.6,3.6,0,0,0,557.49,173Z" transform="translate(-129.92 -13.53)"/><path class="cls-12" d="M407,222.16h-.53a8.61,8.61,0,0,1-6-2.87l-.31-.43a8.67,8.67,0,1,1,13-11.5l.32.32a8.74,8.74,0,0,1-.74,12.25A8.32,8.32,0,0,1,407,222.16Zm-2.66-11.74a3.62,3.62,0,0,0-.35,5.09l.27.26a3.61,3.61,0,0,0,2.45,1.23,3.52,3.52,0,0,0,2.63-.88,3.61,3.61,0,0,0,.35-5.09l-.26-.26A3.6,3.6,0,0,0,404.29,210.42Z" transform="translate(-129.92 -13.53)"/><line class="cls-11" x1="375.71" y1="161.74" x2="375.71" y2="244.24"/><polyline class="cls-11" points="435.96 240.19 435.96 282.52 413.25 305.28"/><polyline class="cls-11" points="470.4 217.54 470.4 235.05 435.96 262.94"/><line class="cls-11" x1="407.65" y1="332.04" x2="365.63" y2="332.04"/><path class="cls-12" d="M407.31,311.14h-.54a8.57,8.57,0,0,1-5.95-2.88l-.32-.42a8.67,8.67,0,1,1,13-11.51l.32.33a8.72,8.72,0,0,1-.74,12.24A8.32,8.32,0,0,1,407.31,311.14Zm-2.66-11.75a3.62,3.62,0,0,0-.35,5.1l.26.26A3.7,3.7,0,0,0,407,306a3.56,3.56,0,0,0,2.64-.88A3.62,3.62,0,0,0,410,300l-.27-.27A3.61,3.61,0,0,0,404.65,299.39Z" transform="translate(-129.92 -13.53)"/><path class="cls-12" d="M545.63,353.55h-.53a8.62,8.62,0,0,1-6-2.88l-.32-.42a8.67,8.67,0,0,1,13-11.51l.32.32a8.74,8.74,0,0,1-.75,12.25A8.28,8.28,0,0,1,545.63,353.55ZM543,341.8a3.61,3.61,0,0,0-.35,5.09l.26.27a3.72,3.72,0,0,0,2.46,1.23,3.61,3.61,0,0,0,3-6l-.26-.26A3.61,3.61,0,0,0,543,341.8Z" transform="translate(-129.92 -13.53)"/><path class="cls-12" d="M284.5,224.6H284a8.57,8.57,0,0,1-6-2.88l-.32-.42a8.67,8.67,0,1,1,13-11.51l.32.32a8.74,8.74,0,0,1-.74,12.25A8.33,8.33,0,0,1,284.5,224.6Zm-2.65-11.75a3.61,3.61,0,0,0-.36,5.09l.27.27a3.7,3.7,0,0,0,2.45,1.23,3.61,3.61,0,0,0,3-6l-.26-.26A3.6,3.6,0,0,0,281.85,212.85Z" transform="translate(-129.92 -13.53)"/><path class="cls-12" d="M380.5,125.48H380a8.61,8.61,0,0,1-6-2.87l-.32-.43a8.67,8.67,0,1,1,13-11.5l.32.32a8.74,8.74,0,0,1-.75,12.25A8.27,8.27,0,0,1,380.5,125.48Zm-2.66-11.75a3.62,3.62,0,0,0-.35,5.1l.26.26a3.72,3.72,0,0,0,2.46,1.23,3.53,3.53,0,0,0,2.63-.88,3.61,3.61,0,0,0,.35-5.09l-.26-.26A3.61,3.61,0,0,0,377.84,113.73Z" transform="translate(-129.92 -13.53)"/><path class="cls-12" d="M327.64,342.67h-.53a8.62,8.62,0,0,1-6-2.88l-.32-.42a8.67,8.67,0,1,1,13-11.51l.32.32a8.74,8.74,0,0,1-.75,12.25A8.28,8.28,0,0,1,327.64,342.67ZM325,330.92a3.61,3.61,0,0,0-.35,5.09l.26.27a3.72,3.72,0,0,0,2.46,1.23,3.61,3.61,0,0,0,3-6l-.26-.26A3.61,3.61,0,0,0,325,330.92Z" transform="translate(-129.92 -13.53)"/><path class="cls-12" d="M505.34,275.54h-.54a8.56,8.56,0,0,1-5.95-2.87l-.32-.43a8.67,8.67,0,1,1,13-11.5l.31.32a8.73,8.73,0,0,1-.74,12.25A8.31,8.31,0,0,1,505.34,275.54Zm-2.66-11.74a3.61,3.61,0,0,0-.35,5.09l.26.26a3.61,3.61,0,1,0,5.44-4.74l-.27-.26A3.6,3.6,0,0,0,502.68,263.8Z" transform="translate(-129.92 -13.53)"/></g><g id="wanko"><g id="right"><path class="cls-13" d="M715.29,529.93c-12.85,6.43-30.23,16.72-43.15,35.56h0l.13,0c39-12,34.28-3.76,42.7-4.3,14.84-1,16.92-11.22,24-16.91C738.63,544.14,719.71,534.38,715.29,529.93Z" transform="translate(-129.92 -13.53)"/><path class="cls-14" d="M729.15,541.7c-12.88,4.22-36.39,11.38-39,18.91,19-4.18,18.12.58,24.08.56l.76,0a25.11,25.11,0,0,0,7.12-1.43,19.38,19.38,0,0,0,5.13-2.84,32.81,32.81,0,0,0,5.49-5.71l1.59-2a34.46,34.46,0,0,1,4-4.36c.21-.19.43-.37.65-.55C738.76,544.18,735.33,545.29,729.15,541.7Z" transform="translate(-129.92 -13.53)"/><path class="cls-15" d="M710.18,523.88c-14.93,2.06-34.52,8.57-46.31,17.4a109.76,109.76,0,0,1,27.5,3.68s14.93-10.6,24.42-14.54A69,69,0,0,1,710.18,523.88Z" transform="translate(-129.92 -13.53)"/><path class="cls-16" d="M683,543.08c3.36.58,5.27,1.06,8.4,1.88,0,0,14.93-10.6,24.42-14.54-1-1.07-2.4-2.56-3.62-4l1.31,1.51S695,532.76,683,543.08Z" transform="translate(-129.92 -13.53)"/><path class="cls-17" d="M831.78,596.91c20.14,24.9,47,19.61,62.86,3.62,13.39-13.47,10.48-35.7,3.3-45.46-15-20.33-40.14-14-48.94-3.7-6.64,7.81-9.64,24.63,3.08,33.26,9.91,6.73,20.4,4.63,26.14-2.45.55,5-15.92,19-41.62.69" transform="translate(-129.92 -13.53)"/><g class="cls-18"><path class="cls-19" d="M852.08,584.63c9.38,6.36,19.27,4.82,25.17-1.36-27.84,8.09-34-21.51-26.51-33.69a20.83,20.83,0,0,0-1.74,1.79C842.36,559.18,839.36,576,852.08,584.63Z" transform="translate(-129.92 -13.53)"/></g><path class="cls-14" d="M832,597.13c6.29,8.38,26.63,29.23,59.35,6.81-8.39,6.29-33.67,12.84-56.73-14.42Z" transform="translate(-129.92 -13.53)"/><path class="cls-17" d="M836.76,563.56c-3.2-25.77-13.72-61.28-51.31-61.28s-55,34.69-55,61.68c-.44,13.51.28,21,2.29,27l-9.92,9.32c-9.28,8.54-7,15.11,5.5,14,0,0,14.39-1.13,23.13-2.82a91,91,0,0,0,16.68,5.14,3.38,3.38,0,0,1,1.79.22l-.81,1c-8.41,12.64-3.93,19.69,10.42,14.75,0,0,21.1-6.93,29.65-11.59,1.4-.77,3.06-1.59,4.64-2.47,6.31-2.76,10.15-6.4,13.26-9.19C831.78,605.08,840.39,592.74,836.76,563.56Z" transform="translate(-129.92 -13.53)"/><path class="cls-2" d="M797.94,556.25c-1,17.37-33.29,29.63-33.29,29.63s-24.4-15.92-23.39-33.29,4.61-31.51,27-29.63C794.71,525.17,799,538.88,797.94,556.25Z" transform="translate(-129.92 -13.53)"/><g class="cls-20"><path class="cls-21" d="M767.81,553.84c-6.21,4.58-18.77,12.35-21.88,13.7" transform="translate(-129.92 -13.53)"/><path class="cls-21" d="M791.78,554.24c-6.22,4.59-32.55,22.19-37.08,23.6" transform="translate(-129.92 -13.53)"/><path class="cls-21" d="M766.15,553.75c5.68,5.22,19.68,15.85,22.63,17.53" transform="translate(-129.92 -13.53)"/><path class="cls-21" d="M742.28,551.57c5.68,5.23,31,26.41,35.38,28.3" transform="translate(-129.92 -13.53)"/></g><path class="cls-22" d="M830.13,540.91c0,10.31-38.35,25.58-63.72,23.37-19.7-1.72-35.85-16.94-35.83-21.71s5,1.95,36,4.48C801.2,549.88,830.13,536.14,830.13,540.91Z" transform="translate(-129.92 -13.53)"/><path class="cls-17" d="M762.34,608.37c-2.08,1.13-5.36,1.75-7.81,2.4-7.82,2.08-26.22,3.52-26.22,3.52-12.55,1.15-14.78-5.42-5.5-14L738,587.42" transform="translate(-129.92 -13.53)"/><path class="cls-23" d="M721.92,600.86a6.6,6.6,0,0,0,1.53-1.24c1.44,1.33,6.56,6.63,6.16,14.41,0,.05,0,.09,0,.14l-1.29.12C715.76,615.44,713.34,608.71,721.92,600.86Z" transform="translate(-129.92 -13.53)"/><path class="cls-14" d="M768.71,618.41c2,.23,4,.49,6.13.8,13.7,2,22.93,3.61,29,4.3,2-.89,3.88-1.75,5.35-2.55,1.29-.71,2.8-1.46,4.26-2.27-3.18-6.42-24.19-10.68-41.25-11.33-12.66-.49-18-5.84-20.78-5.2-2.11.49-7,2.54-15,4.92-13.62,4.06-15.55,2.69-16.73,6.26,1.61.69,3.84,1.36,8.64.95,0,0,14.39-1.13,23.13-2.82a91,91,0,0,0,16.68,5.14,3.38,3.38,0,0,1,1.79.22l-.81,1Z" transform="translate(-129.92 -13.53)"/><path class="cls-17" d="M817.61,615.92c-2.11,1.91-5.76,3.57-8.44,5-8.55,4.66-29.65,11.59-29.65,11.59-14.35,4.94-18.83-2.11-10.42-14.75l14.11-19.44" transform="translate(-129.92 -13.53)"/><path class="cls-23" d="M768.72,618.56l.92-1.77c2.06,1.15,9.57,5.88,11.32,15.09,0,.06,0,.11,0,.17l-1.46.5C765.17,637.49,760.31,631.19,768.72,618.56Z" transform="translate(-129.92 -13.53)"/><path class="cls-14" d="M836.22,559.67c-.33-2.25-.73-4.56-1.2-6.89a1.42,1.42,0,0,0,0-.2q-.36-1.8-.78-3.63l-6.43.79s3.82,26-2,39.81c-12.17,28.7-46.86,31.87-58.81,43.36,2.32,1.67,6.6,1.71,12.61-.36,0,0,21.1-6.93,29.65-11.59,1.4-.77,3.06-1.59,4.64-2.47,6.31-2.76,10.15-6.4,13.26-9.19,4.71-4.22,13.32-16.56,9.69-45.74-.13-1-.28-2.11-.43-3.18C836.29,560.14,836.26,559.91,836.22,559.67Z" transform="translate(-129.92 -13.53)"/><path class="cls-17" d="M841.14,401.1c-17.17-6.57-38-9.55-54.37-9.86-20-.38-31,2.53-42.29,5.19-2.7-20.82-36.08-40.64-36.08-40.64-24.18-15.79-17.21,53.82-11.63,71.54-11.86,20.51-8,38.83-10.09,60.22-3.94,40.27,28.9,67.58,88,68.68s105.78-12.16,103.21-63.87c-.62-12.34-3.39-26.61-7-40.07,13.5,4.9,38.52,6.85,43.87,2.76S880.58,384.35,841.14,401.1Z" transform="translate(-129.92 -13.53)"/><path class="cls-14" d="M832.46,550.71c30.74-8.53,47.56-29.62,45.63-57.29a222.17,222.17,0,0,0-7-40.07c.2,5.82.25,11.16.15,16.08,0,2.22-.12,4.35-.22,6.4C868.76,522,853.16,533,832.46,550.71Z" transform="translate(-129.92 -13.53)"/><path class="cls-14" d="M741,385.71c-.23-.45-.48-.9-.72-1.35l-.09-.16c-.25-.45-.51-.89-.77-1.33l0-.06c-5.91-9.79-22.27-20.73-27.4-24.51l0,0-.67-.48-.07-.05c-.82-.59-1.49-1.05-2-1.38l-.15-.1-.22-.15-.14-.09-.14-.09-.13-.08,0,0-.07,0c-.33-.22-.67-.42-1-.61l-.45-.24-.49-.26-.57-.27-.29-.12c-.22-.1-.45-.19-.67-.27-1.06,2.14,2,9.06,3.66,11.93,16.23,37.05,14.7,40.77,25.78,34.31a41.29,41.29,0,0,1,10.08-3.95,42.61,42.61,0,0,0-3.43-10.6Z" transform="translate(-129.92 -13.53)"/><path class="cls-14" d="M744.5,396.43h0a.5.5,0,0,0,0-.12h0a.5.5,0,0,1,0,.12Z" transform="translate(-129.92 -13.53)"/><path class="cls-24" d="M838.59,501.51C840,527,819.43,545.85,758,542c-59.17-3.7-60.48-33.17-59.6-46.31.94-13.92,16.43-44.48,58.89-44.46C817.2,451.26,836.82,470.25,838.59,501.51Z" transform="translate(-129.92 -13.53)"/><path class="cls-25" d="M705.25,477c.63-.25,47.3-17.43,128.16,3.19-8.77-17.57-29.55-28-70.53-28.9h-.24q-2.62-.06-5.37-.06c-1.23,0-2.43,0-3.62.08l-.52,0C728,452.54,713.05,464.79,705.25,477Z" transform="translate(-129.92 -13.53)"/><polygon class="cls-2" points="624.37 421.88 641.15 438.55 624.49 455.34 609.55 438.52 624.37 421.88"/><polygon class="cls-26" points="624.47 423.57 639.52 438.61 624.48 453.65 624.47 423.57"/><path class="cls-27" d="M721.62,485.63c-1.68,3.36,2,4.1,5.34,4.78s6.87,3.71,7.26-2.23c.15-2.34-2-4.75-5.09-5.59C724.68,481.49,722.43,484,721.62,485.63Z" transform="translate(-129.92 -13.53)"/><path class="cls-27" d="M792.52,485.65c1.88,3.25-1.75,4.21-5,5.08s-6.65,4.09-7.38-1.81c-.29-2.33,1.76-4.86,4.76-5.87A6.16,6.16,0,0,1,792.52,485.65Z" transform="translate(-129.92 -13.53)"/><circle class="cls-28" cx="597.82" cy="489.41" r="6.8"/><circle class="cls-2" cx="596.27" cy="491.18" r="0.9"/><circle class="cls-2" cx="599.73" cy="487.63" r="2.16"/><circle class="cls-28" cx="657.38" cy="490.4" r="6.8"/><circle class="cls-2" cx="659.44" cy="492.12" r="0.9"/><circle class="cls-2" cx="655.89" cy="488.66" r="2.16"/><path class="cls-2" d="M777.46,518.59c-.17,8.31-10,13.48-22,12.79-10.45-.61-19.36-6.63-19.19-14.93s7.84-15.39,19.81-15.15S777.64,510.29,777.46,518.59Z" transform="translate(-129.92 -13.53)"/><path class="cls-28" d="M761.24,510.46c0,2.75-3.86,4.87-8.07,4.92-3.41,0-6.46-2.32-6.49-5.06s2.22-3.19,6.43-3.23S761.22,507.72,761.24,510.46Z" transform="translate(-129.92 -13.53)"/><path class="cls-29" d="M755.44,509.61c0,1-1.17,1.75-2.63,1.77s-2.66-.74-2.67-1.7,1.17-1.17,2.63-1.19S755.43,508.66,755.44,509.61Z" transform="translate(-129.92 -13.53)"/><path class="cls-28" d="M765.58,515.73a1.05,1.05,0,0,0-1.41.48,5.56,5.56,0,0,1-4.06,2.82,7.64,7.64,0,0,1-6.38-1.79,23.46,23.46,0,0,1,0-4.52,1.06,1.06,0,0,0-.93-1.17,1,1,0,0,0-1.17.93,22.93,22.93,0,0,0,.06,5.34c0,.14-.46.71-1.51.94a3.38,3.38,0,0,1-4-2.13,1.06,1.06,0,0,0-1.4-.53,1.07,1.07,0,0,0-.52,1.41,5.49,5.49,0,0,0,5.2,3.45,5.42,5.42,0,0,0,1.16-.13,4.47,4.47,0,0,0,2.48-1.41,9.87,9.87,0,0,0,5.78,1.85,9.64,9.64,0,0,0,1.6-.16,7.67,7.67,0,0,0,5.57-4A1,1,0,0,0,765.58,515.73Z" transform="translate(-129.92 -13.53)"/></g></g><g id="machine"><path class="cls-30" d="M195.88,440.79H374.7a5,5,0,0,1,5,5v37.27a0,0,0,0,1,0,0H190.88a0,0,0,0,1,0,0V445.79A5,5,0,0,1,195.88,440.79Z"/><path class="cls-31" d="M300.46,440.79H374.7a5,5,0,0,1,5,5v37.27a0,0,0,0,1,0,0H300.46a0,0,0,0,1,0,0V440.79A0,0,0,0,1,300.46,440.79Z"/><path class="cls-32" d="M163.44,445.38h-2.53a4.79,4.79,0,0,0-4.78,4.78v20.38a19,19,0,0,0,12.09,0V450.16A4.79,4.79,0,0,0,163.44,445.38Z" transform="translate(-129.92 -13.53)"/><path class="cls-33" d="M102.06,457.07H472.52a5,5,0,0,1,5,5v37.27a0,0,0,0,1,0,0H97.06a0,0,0,0,1,0,0V462.07A5,5,0,0,1,102.06,457.07Z"/><path class="cls-31" d="M317.86,457.07H472.52a5,5,0,0,1,5,5v37.27a0,0,0,0,1,0,0H317.86a0,0,0,0,1,0,0V457.07A0,0,0,0,1,317.86,457.07Z"/><rect class="cls-34" x="26.17" y="514.2" width="28.31" height="43.24" rx="7.35"/><rect class="cls-33" x="26.17" y="515.74" width="28.31" height="43.24" rx="7.35"/><path class="cls-35" d="M160.91,572.33l14.2.12c.13.14-7.2-11.31-7.13-31.17.13-36.08.24-91,.24-91a4.79,4.79,0,0,0-4.78-4.78h-2.53a4.79,4.79,0,0,0-4.78,4.78V567.55A4.79,4.79,0,0,0,160.91,572.33Z" transform="translate(-129.92 -13.53)"/><path class="cls-32" d="M168,541.28c.13-36.08.24-91,.24-91a4.78,4.78,0,0,0-2.87-4.37,4.78,4.78,0,0,0-2.86,4.37V567.55a4.79,4.79,0,0,0,4.77,4.78l7.82.07C174.61,571.57,167.92,560.28,168,541.28Z" transform="translate(-129.92 -13.53)"/><rect class="cls-34" x="26.17" y="518.48" width="28.31" height="38.96" rx="5.38"/><rect class="cls-36" x="26.17" y="520.02" width="28.31" height="38.96" rx="5.38"/><rect class="cls-5" x="86.22" y="713.73" width="26.67" height="6.18"/><rect class="cls-5" x="319.5" y="716.4" width="31.45" height="5.82"/><rect class="cls-5" x="586.58" y="714.13" width="26.5" height="5.57"/><polygon class="cls-36" points="112.26 717.25 85.89 716.67 69.07 694.8 130.62 696.15 112.26 717.25"/><polygon class="cls-37" points="99.59 716.96 112.65 716.96 130.25 695.47 99.59 695.47 99.59 716.96"/><polygon class="cls-36" points="613.14 716.96 586.76 716.96 569.17 695.47 630.73 695.47 613.14 716.96"/><polygon class="cls-38" points="596.46 716.96 613.14 716.96 630.73 695.47 596.46 695.47 596.46 716.96"/><polygon class="cls-36" points="351.02 719.23 318.65 719.23 297.06 695.16 372.61 695.16 351.02 719.23"/><polygon class="cls-37" points="326.75 719.23 351.02 719.23 372.61 695.16 326.75 695.16 326.75 719.23"/><path class="cls-35" d="M74.7,473.65h415a5,5,0,0,1,5,5v37.27a0,0,0,0,1,0,0H69.7a0,0,0,0,1,0,0V478.65A5,5,0,0,1,74.7,473.65Z"/><path class="cls-39" d="M308,473.65H489.69a5,5,0,0,1,5,5v37.27a0,0,0,0,1,0,0H308a0,0,0,0,1,0,0V473.65A0,0,0,0,1,308,473.65Z"/><path class="cls-36" d="M642.54,576.45H190.07c-7.58-2.67-10.63-5.72-10.63-9.49V520.68A13.65,13.65,0,0,1,193.08,507H631.91a13.65,13.65,0,0,1,13.65,13.65V567C645.56,570.73,642.5,573.78,642.54,576.45Z" transform="translate(-129.92 -13.53)"/><path class="cls-40" d="M62.43,569.87h572.8a15,15,0,0,1,15,15V690.21a5,5,0,0,1-5,5H67.43a5,5,0,0,1-5-5V569.87A0,0,0,0,1,62.43,569.87Z"/><path class="cls-41" d="M346.95,574H640.19a10,10,0,0,1,10,10V690.25a5,5,0,0,1-5,5H346.95a0,0,0,0,1,0,0V574A0,0,0,0,1,346.95,574Z"/><path class="cls-42" d="M302.76,493.5H502a13.61,13.61,0,0,1,13.61,13.61v44.52a8.61,8.61,0,0,1-8.61,8.61H302.76a0,0,0,0,1,0,0V493.5A0,0,0,0,1,302.76,493.5Z"/><path class="cls-40" d="M59.51,507.15H505.63a10,10,0,0,1,10,10V568.9a5,5,0,0,1-5,5H54.51a5,5,0,0,1-5-5V517.15A10,10,0,0,1,59.51,507.15Z"/><path class="cls-41" d="M302.76,507.15H505.63a10,10,0,0,1,10,10V568.9a5,5,0,0,1-5,5H302.76a0,0,0,0,1,0,0V507.15A0,0,0,0,1,302.76,507.15Z"/><polygon class="cls-43" points="346.98 695.25 182.91 575.63 182.91 573.86 513.12 573.86 346.98 695.25"/><rect class="cls-44" x="69.26" y="529.19" width="201.07" height="25.13" rx="5"/><rect class="cls-44" x="334.14" y="529.19" width="167.58" height="23.99" rx="5"/><rect class="cls-45" x="343.13" y="534.98" width="150.84" height="13.65" rx="5"/><rect class="cls-45" x="77.48" y="534.98" width="184.48" height="13.65" rx="5"/><path class="cls-46" d="M657,668.23c-12.45,0-28.12-8.29-28.08-24.94v-70c0-10.7-5.8-19.38-16.5-19.38H484.37v2c6.4,3.17,12.95,9.74,12.95,17.37l2.72,79.9a48.66,48.66,0,0,0,49,47l108.15-.67S655.94,668.23,657,668.23Z" transform="translate(-129.92 -13.53)"/><path class="cls-47" d="M378.73,552.86H222.86c-7.92.21-10.79,6.3-10.79,17.18l-.63,29.86c0,31-25.49,39.61-43.26,39.61h.1l.34,1.21c-1.25.06,6,21.64,6,21.64l153.66-.24c7.55.13,17.69.4,26.06-6.08,7.93-6.15,12.56-8.38,12.94-54.84l.64-29.86c0-5.65,2.78-15.29,10.43-15.79h.41v0h0Z" transform="translate(-129.92 -13.53)"/><path class="cls-48" d="M378.73,555.51v-2.65H374c-7.48.67-10.22,10.16-10.22,15.75l-.63,29.86c-.38,46.46-2.91,48.76-11.11,54.56-7.8,5.52-22.28,5.14-33.32,4.38l.57,4.71c22.86.36,28.23.42,36.75-6.24,7.91-6.17,10.82-8.22,11.2-54.68l.64-29.86c0-5.65,2.78-15.29,10.43-15.79h.41v0h0Z" transform="translate(-129.92 -13.53)"/><circle class="cls-12" cx="391.16" cy="596.23" r="9.73"/><circle class="cls-12" cx="393.32" cy="629.4" r="9.73"/><circle class="cls-12" cx="104.42" cy="568.79" r="10.28"/><path class="cls-49" d="M544.73,672.54c1.78,3.87-1.72,7.06-7.84,7.1s-11.91-3.09-13-7,2.46-7.11,7.84-7.11S543,668.66,544.73,672.54Z" transform="translate(-129.92 -13.53)"/><path class="cls-2" d="M536.79,669.87l-3.62,3.35-2.52-1.38a1.83,1.83,0,0,0-1.92,0h0c-.42.36-.24.95.41,1.31l5,2.69,5.14-4.67c.37-.37.13-.95-.54-1.31h0a1.79,1.79,0,0,0-1.89,0Z" transform="translate(-129.92 -13.53)"/><path class="cls-12" d="M571.46,689.07c1.83,3.18-1.51,5.76-7.47,5.78s-11.82-2.56-13.07-5.75,2.1-5.78,7.47-5.78S569.62,685.89,571.46,689.07Z" transform="translate(-129.92 -13.53)"/><path class="cls-50" d="M500.51,653.15l-2.8-79.94c-.4-7-2.68-12.42-8.18-16.41a25.08,25.08,0,0,0-5.19-2.85v4.6c6.4,3.16,9.53,7.15,9.53,14.78l2.71,79.9c.81,23.94,24.34,46.38,52.1,47.28,1.8.06,4.64,0,7.76-.14l5.53-5.94c-5.29,2.46-10.09,2.35-17.66,2C527,695.57,501.29,676.22,500.51,653.15Z" transform="translate(-129.92 -13.53)"/><g class="cls-51"><path class="cls-12" d="M248.17,553.93c-.95,2.73-7,4.91-13.5,4.88s-10.34-2.23-8.56-4.92,7.83-4.88,13.5-4.88S249.12,551.21,248.17,553.93Z" transform="translate(-129.92 -13.53)"/></g><g class="cls-52"><path class="cls-12" d="M229.38,639.18c-.95,2.52-7,4.54-13.5,4.51s-10.33-2.06-8.56-4.56,7.83-4.51,13.51-4.51S230.34,636.66,229.38,639.18Z" transform="translate(-129.92 -13.53)"/></g><circle class="cls-49" cx="390.17" cy="563.37" r="9.73"/><path class="cls-2" d="M523.4,573.14l-4.59,4.59-1.92-1.91a1.28,1.28,0,0,0-1.81,0h0a1.28,1.28,0,0,0,0,1.81l3.73,3.72,6.41-6.4a1.28,1.28,0,0,0,0-1.81h0a1.28,1.28,0,0,0-1.81,0Z" transform="translate(-129.92 -13.53)"/><circle class="cls-49" cx="101.54" cy="602.59" r="10.28"/><path class="cls-2" d="M235,612.14,230.1,617l-2-2a1.35,1.35,0,0,0-1.91,0h0a1.35,1.35,0,0,0,0,1.91l3.94,3.94,6.77-6.77a1.35,1.35,0,0,0,0-1.91h0a1.34,1.34,0,0,0-1.9,0Z" transform="translate(-129.92 -13.53)"/><rect class="cls-40" x="406.23" y="561.98" width="41.85" height="3.88" rx="1.94"/><rect class="cls-40" x="452.31" y="561.98" width="13.43" height="3.88" rx="1.94"/><rect class="cls-40" x="468.35" y="561.98" width="13.43" height="3.88" rx="1.94"/><rect class="cls-40" x="409.83" y="592.35" width="28.94" height="3.88" rx="1.94"/><rect class="cls-40" x="441.97" y="592.35" width="23.77" height="3.88" rx="1.94"/><rect class="cls-40" x="413.82" y="626.51" width="13.43" height="3.88" rx="1.94"/><rect class="cls-40" x="430.47" y="626.51" width="23.77" height="3.88" rx="1.94"/><rect class="cls-40" x="458.59" y="626.51" width="27.64" height="3.88" rx="1.94"/><path class="cls-40" d="M560.32,672.85h-3.15a4.88,4.88,0,0,1-3.19-1.34h0c-.67-.74-.35-1.34.72-1.34h3.1a5.09,5.09,0,0,1,3.22,1.34h0C561.72,672.25,561.41,672.85,560.32,672.85Z" transform="translate(-129.92 -13.53)"/><path class="cls-40" d="M572,672.84h-4.47a5.24,5.24,0,0,1-3.28-1.33h0c-.72-.74-.44-1.34.63-1.34h4.39a5.53,5.53,0,0,1,3.32,1.33h0C573.36,672.24,573.09,672.84,572,672.84Z" transform="translate(-129.92 -13.53)"/><path class="cls-40" d="M604.56,672.83H580.37A5.7,5.7,0,0,1,577,671.5h0c-.78-.73-.55-1.33.52-1.33h23.77a6.72,6.72,0,0,1,3.6,1.33h0C605.79,672.23,605.65,672.83,604.56,672.83Z" transform="translate(-129.92 -13.53)"/><path class="cls-53" d="M573.33,667.87c-3.07,0-3.43,1.14-3.43,3.48.66,14.74-6.24,24.78-21.35,28.35a.41.41,0,0,0,.09.81l121-1.1c9.32,0,24-11.94,19-31.22a.43.43,0,0,0-.41-.32Z" transform="translate(-129.92 -13.53)"/><rect class="cls-40" x="124.43" y="566.43" width="61.95" height="4.09" rx="2.05"/><rect class="cls-40" x="189.77" y="566.43" width="25.11" height="4.09" rx="2.05"/><rect class="cls-40" x="123.29" y="600.7" width="21.01" height="4.09" rx="2.05"/><rect class="cls-40" x="147.69" y="600.7" width="25.11" height="4.09" rx="2.05"/><rect class="cls-40" x="176.25" y="600.7" width="40.12" height="4.09" rx="2.05"/><path class="cls-40" d="M287.8,646.18h-3.21c-1.11,0-1.47-.67-.81-1.5h0a4.7,4.7,0,0,1,3.25-1.51h3.28c1.13,0,1.47.68.77,1.51h0A4.86,4.86,0,0,1,287.8,646.18Z" transform="translate(-129.92 -13.53)"/><path class="cls-40" d="M299.68,646.18h-4.55c-1.11,0-1.42-.67-.7-1.5h0a5.08,5.08,0,0,1,3.36-1.51h4.64c1.13,0,1.42.68.65,1.51h0A5.3,5.3,0,0,1,299.68,646.18Z" transform="translate(-129.92 -13.53)"/><path class="cls-40" d="M332.8,646.18H308.19c-1.1,0-1.36-.67-.56-1.5h0a5.57,5.57,0,0,1,3.49-1.51h25.11c1.13,0,1.27.68.31,1.51h0A6.7,6.7,0,0,1,332.8,646.18Z" transform="translate(-129.92 -13.53)"/><path class="cls-40" d="M298.38,555.36l-40.75.11c-1.11,0-1-.58.23-1.3h0a10.17,10.17,0,0,1,4.29-1.31h41.48c1.14,0,.87.56-.59,1.25h0A13.56,13.56,0,0,1,298.38,555.36Z" transform="translate(-129.92 -13.53)"/><path class="cls-40" d="M310.29,555.33h-4.56c-1.11,0-.81-.55.66-1.24h0a13.8,13.8,0,0,1,4.73-1.24h4.64c1.13,0,.81.55-.71,1.23h0A14.54,14.54,0,0,1,310.29,555.33Z" transform="translate(-129.92 -13.53)"/><path class="cls-40" d="M343.49,555.24l-24.67.07c-1.11,0-.76-.55.79-1.22h0a14.89,14.89,0,0,1,4.84-1.23h25.1c1.14,0,.69.53-1,1.19h0A17.58,17.58,0,0,1,343.49,555.24Z" transform="translate(-129.92 -13.53)"/><circle class="cls-35" cx="33.79" cy="527.85" r="1.64"/><circle class="cls-35" cx="42.73" cy="527.85" r="1.64"/><circle class="cls-35" cx="33.79" cy="551.2" r="1.64"/><circle class="cls-35" cx="42.73" cy="551.2" r="1.64"/><circle class="cls-6" cx="32.31" cy="435.68" r="19.17"/><path class="cls-54" d="M174.52,434.51c-12.53,5.76-.71,19.22-8.9,26.07-4.79,4-11.12,4.09-14.74,4.05a19.15,19.15,0,0,0,23.64-30.12Z" transform="translate(-129.92 -13.53)"/><path class="cls-48" d="M324.35,637.73H150.19c.41,12.82,10.91,24.63,23.83,24.63H328.25c5.62,0,9.14-.19,9.14-.19a42.37,42.37,0,0,0,.19-4.76C325.87,658,324.74,648.71,324.35,637.73Z" transform="translate(-129.92 -13.53)"/><path class="cls-55" d="M689.59,585.79l-8.38-.67a.1.1,0,0,1,0-.19H701l8.38.67a.1.1,0,1,1,0,.19Z" transform="translate(-129.92 -13.53)"/><path class="cls-55" d="M701,585l8.37.67H689.59l-8.37-.67H701m0-.19H681.22a.2.2,0,0,0,0,.39l8.37.67H709.4a.2.2,0,0,0,.19-.19.19.19,0,0,0-.17-.2l-8.38-.67Z" transform="translate(-129.92 -13.53)"/><path class="cls-55" d="M689.59,585.46l-8.38-.67a.09.09,0,0,1-.09-.1.11.11,0,0,1,.1-.09H701l8.38.67a.1.1,0,1,1,0,.19Z" transform="translate(-129.92 -13.53)"/><path class="cls-55" d="M701,584.7l8.37.67H689.59l-8.37-.67H701m0-.2H681.22a.2.2,0,0,0-.19.19.19.19,0,0,0,.18.2l8.37.67H709.4a.2.2,0,0,0,0-.39l-8.38-.66Z" transform="translate(-129.92 -13.53)"/><path class="cls-55" d="M689.59,585.14l-8.38-.67a.11.11,0,0,1-.09-.1.12.12,0,0,1,.1-.1H701l8.38.67a.11.11,0,0,1,.09.1.1.1,0,0,1-.1.1Z" transform="translate(-129.92 -13.53)"/><path class="cls-55" d="M701,584.37l8.37.67H689.59l-8.37-.67H701m0-.19H681.22a.19.19,0,0,0-.19.18.18.18,0,0,0,.18.2l8.37.67H709.4a.19.19,0,0,0,0-.38l-8.38-.67Z" transform="translate(-129.92 -13.53)"/><path class="cls-55" d="M689.59,584.81l-8.38-.67a.1.1,0,0,1-.09-.1.11.11,0,0,1,.1-.09H701l8.38.67a.1.1,0,1,1,0,.19Z" transform="translate(-129.92 -13.53)"/><path class="cls-55" d="M701,584.05l8.37.66H689.59l-8.37-.66H701m0-.2H681.22a.2.2,0,0,0,0,.39l8.37.67H709.4a.2.2,0,0,0,0-.39l-8.38-.67Z" transform="translate(-129.92 -13.53)"/><path class="cls-55" d="M689.59,584.49l-8.38-.67a.1.1,0,0,1,0-.2H701l8.38.67a.11.11,0,0,1,.09.1.11.11,0,0,1-.1.1Z" transform="translate(-129.92 -13.53)"/><path class="cls-55" d="M701,583.72l8.37.67H689.59l-8.37-.67H701m0-.19H681.22a.19.19,0,0,0,0,.38l8.37.67H709.4a.19.19,0,0,0,.19-.18.18.18,0,0,0-.17-.2l-8.38-.67Z" transform="translate(-129.92 -13.53)"/><path class="cls-55" d="M689.59,584.16l-8.38-.67a.1.1,0,0,1,0-.19H701l8.38.67a.1.1,0,1,1,0,.19Z" transform="translate(-129.92 -13.53)"/><path class="cls-55" d="M701,583.39l8.37.67H689.59l-8.37-.67H701m0-.19H681.22a.2.2,0,0,0,0,.39l8.37.67H709.4a.2.2,0,0,0,.19-.19.19.19,0,0,0-.17-.2L701,583.2Z" transform="translate(-129.92 -13.53)"/><path class="cls-55" d="M689.59,583.83l-8.38-.67a.1.1,0,0,1-.09-.1.11.11,0,0,1,.1-.09H701l8.38.67a.11.11,0,0,1,.09.1.1.1,0,0,1-.1.09Z" transform="translate(-129.92 -13.53)"/><path class="cls-55" d="M701,583.07l8.37.67H689.59l-8.37-.67H701m0-.2H681.22a.2.2,0,0,0-.19.19.19.19,0,0,0,.18.2l8.37.67H709.4a.2.2,0,0,0,0-.39l-8.38-.67Z" transform="translate(-129.92 -13.53)"/><path class="cls-55" d="M689.59,583.51l-8.38-.67a.11.11,0,0,1-.09-.1.12.12,0,0,1,.1-.1H701l8.38.68a.09.09,0,0,1,.09.09.1.1,0,0,1-.1.1Z" transform="translate(-129.92 -13.53)"/><path class="cls-55" d="M701,582.74l8.37.67H689.59l-8.37-.67H701m0-.19H681.22a.19.19,0,0,0-.19.18.18.18,0,0,0,.18.2l8.37.67H709.4a.19.19,0,0,0,.19-.18.18.18,0,0,0-.17-.2l-8.38-.67Z" transform="translate(-129.92 -13.53)"/><path class="cls-55" d="M689.59,583.18l-8.38-.67a.1.1,0,0,1-.09-.1.11.11,0,0,1,.1-.09H701l8.38.67a.1.1,0,1,1,0,.19Z" transform="translate(-129.92 -13.53)"/><path class="cls-55" d="M701,582.41l8.37.67H689.59l-8.37-.67H701m0-.19H681.22a.2.2,0,0,0,0,.39l8.37.67H709.4a.2.2,0,0,0,0-.39l-8.38-.67Z" transform="translate(-129.92 -13.53)"/><path class="cls-55" d="M689.59,582.86l-8.38-.68a.09.09,0,0,1-.09-.1.11.11,0,0,1,.1-.09H701l8.38.67a.11.11,0,0,1,.09.1.11.11,0,0,1-.1.1Z" transform="translate(-129.92 -13.53)"/><path class="cls-55" d="M701,582.09l8.37.67H689.59l-8.37-.67H701m0-.19H681.22a.19.19,0,0,0,0,.38l8.37.67H709.4a.19.19,0,0,0,.19-.18.18.18,0,0,0-.17-.2L701,581.9Z" transform="translate(-129.92 -13.53)"/><path class="cls-55" d="M689.59,582.53l-8.38-.67a.1.1,0,0,1,0-.19H701l8.38.67a.09.09,0,0,1,.09.1.1.1,0,0,1-.1.09Z" transform="translate(-129.92 -13.53)"/><path class="cls-55" d="M701,581.76l8.37.67H689.59l-8.37-.67H701m0-.19H681.22a.19.19,0,0,0-.19.18.18.18,0,0,0,.18.2l8.37.67H709.4a.2.2,0,0,0,.19-.19.19.19,0,0,0-.17-.2l-8.38-.67Z" transform="translate(-129.92 -13.53)"/><path class="cls-55" d="M689.59,582.2l-8.38-.67a.1.1,0,0,1-.09-.1.11.11,0,0,1,.1-.09H701l8.38.67a.1.1,0,1,1,0,.19Z" transform="translate(-129.92 -13.53)"/><path class="cls-55" d="M701,581.44l8.37.67H689.59l-8.37-.67H701m0-.2H681.22a.2.2,0,0,0-.19.19.19.19,0,0,0,.18.2l8.37.67H709.4a.2.2,0,0,0,0-.39l-8.38-.67Z" transform="translate(-129.92 -13.53)"/><path class="cls-55" d="M689.59,581.88l-8.38-.67a.11.11,0,0,1-.09-.1.12.12,0,0,1,.1-.1H701l8.38.67a.11.11,0,0,1,.09.1.1.1,0,0,1-.1.1Z" transform="translate(-129.92 -13.53)"/><path class="cls-55" d="M701,581.11l8.37.67H689.59l-8.37-.67H701m0-.19H681.22a.19.19,0,0,0-.19.18.18.18,0,0,0,.18.2l8.37.67H709.4a.19.19,0,0,0,.19-.18.18.18,0,0,0-.17-.2l-8.38-.67Z" transform="translate(-129.92 -13.53)"/><path class="cls-55" d="M689.59,581.55l-8.38-.67a.1.1,0,0,1-.09-.1.11.11,0,0,1,.1-.09H701l8.38.67a.1.1,0,1,1,0,.19Z" transform="translate(-129.92 -13.53)"/><path class="cls-55" d="M701,580.78l8.37.67H689.59l-8.37-.67H701m0-.19H681.22a.2.2,0,0,0,0,.39l8.37.67H709.4a.2.2,0,0,0,0-.39l-8.38-.67Z" transform="translate(-129.92 -13.53)"/><path class="cls-55" d="M689.59,581.22l-8.38-.67a.09.09,0,0,1-.09-.1.11.11,0,0,1,.1-.09H701l8.38.67a.11.11,0,0,1,.09.1.1.1,0,0,1-.1.09Z" transform="translate(-129.92 -13.53)"/><path class="cls-55" d="M701,580.46l8.37.67H689.59l-8.37-.67H701m0-.19H681.22a.19.19,0,0,0,0,.38l8.37.67H709.4a.19.19,0,0,0,.19-.18.18.18,0,0,0-.17-.2l-8.38-.67Z" transform="translate(-129.92 -13.53)"/><path class="cls-55" d="M689.59,580.9l-8.38-.67a.1.1,0,0,1,0-.19H701l8.38.67a.09.09,0,0,1,.09.1.1.1,0,0,1-.1.09Z" transform="translate(-129.92 -13.53)"/><path class="cls-55" d="M701,580.13l8.37.67H689.59l-8.37-.67H701m0-.19H681.22a.19.19,0,0,0-.19.18.18.18,0,0,0,.18.2l8.37.67H709.4a.19.19,0,0,0,0-.38l-8.38-.67Z" transform="translate(-129.92 -13.53)"/><path class="cls-55" d="M689.59,580.57l-8.38-.67a.1.1,0,0,1-.09-.1.11.11,0,0,1,.1-.09H701l8.38.67a.1.1,0,1,1,0,.19Z" transform="translate(-129.92 -13.53)"/><path class="cls-55" d="M701,579.81l8.37.67H689.59l-8.37-.67H701m0-.2H681.22a.2.2,0,0,0,0,.39l8.37.67H709.4a.2.2,0,0,0,0-.39l-8.38-.67Z" transform="translate(-129.92 -13.53)"/><path class="cls-55" d="M689.59,580.25l-8.38-.67a.1.1,0,0,1,0-.2H701l8.38.67a.11.11,0,0,1,.09.1.1.1,0,0,1-.1.1Z" transform="translate(-129.92 -13.53)"/><path class="cls-55" d="M701,579.48l8.37.67H689.59l-8.37-.67H701m0-.19H681.22a.19.19,0,0,0-.19.18.18.18,0,0,0,.18.2l8.37.67H709.4a.19.19,0,0,0,.19-.18.18.18,0,0,0-.17-.2l-8.38-.67Z" transform="translate(-129.92 -13.53)"/><path class="cls-55" d="M689.59,579.92l-8.38-.67a.1.1,0,0,1-.09-.1.11.11,0,0,1,.1-.09H701l8.38.67a.1.1,0,1,1,0,.19Z" transform="translate(-129.92 -13.53)"/><path class="cls-55" d="M701,579.15l8.37.67H689.59l-8.37-.67H701m0-.19H681.22a.2.2,0,0,0,0,.39l8.37.67H709.4a.2.2,0,0,0,.19-.19.19.19,0,0,0-.17-.2L701,579Z" transform="translate(-129.92 -13.53)"/><path class="cls-55" d="M689.59,579.59l-8.38-.67a.09.09,0,0,1-.09-.1.11.11,0,0,1,.1-.09H701l8.38.67a.11.11,0,0,1,.09.1.1.1,0,0,1-.1.09Z" transform="translate(-129.92 -13.53)"/><path class="cls-55" d="M701,578.83l8.37.67H689.59l-8.37-.67H701m0-.2H681.22a.2.2,0,0,0-.19.19.19.19,0,0,0,.18.2l8.37.67H709.4a.19.19,0,0,0,.19-.18.18.18,0,0,0-.17-.2l-8.38-.67Z" transform="translate(-129.92 -13.53)"/><path class="cls-55" d="M689.59,579.27l-8.38-.67a.11.11,0,0,1-.09-.1.12.12,0,0,1,.1-.1H701l8.38.68a.09.09,0,0,1,.09.1.1.1,0,0,1-.1.09Z" transform="translate(-129.92 -13.53)"/><path class="cls-55" d="M701,578.5l8.37.67H689.59l-8.37-.67H701m0-.19H681.22a.19.19,0,0,0-.19.18.18.18,0,0,0,.18.2l8.37.67H709.4a.19.19,0,0,0,0-.38l-8.38-.67Z" transform="translate(-129.92 -13.53)"/><path class="cls-55" d="M689.59,578.94l-8.38-.67a.1.1,0,0,1-.09-.1.11.11,0,0,1,.1-.09H701l8.38.67a.1.1,0,1,1,0,.19Z" transform="translate(-129.92 -13.53)"/><path class="cls-55" d="M701,578.18l8.37.67H689.59l-8.37-.67H701m0-.2H681.22a.2.2,0,0,0,0,.39l8.37.67H709.4a.2.2,0,0,0,0-.39L701,578Z" transform="translate(-129.92 -13.53)"/><path class="cls-56" d="M689.59,579l-8.38-.67a.11.11,0,0,1,0-.21H701l8.38.67a.11.11,0,1,1,0,.21Z" transform="translate(-129.92 -13.53)"/><path class="cls-56" d="M701,578.18l8.37.67H689.59l-8.37-.67H701m0-.22H681.22a.22.22,0,0,0,0,.43l8.38.67H709.4a.22.22,0,0,0,.22-.22.21.21,0,0,0-.2-.22l-8.37-.67Z" transform="translate(-129.92 -13.53)"/><path class="cls-57" d="M689.59,579l-8.38-.67a.13.13,0,0,1,0-.25H701l8.38.67a.13.13,0,0,1,0,.25Z" transform="translate(-129.92 -13.53)"/><path class="cls-57" d="M701,578.18l8.37.67H689.59l-8.37-.67H701m0-.25H681.22a.25.25,0,0,0,0,.49l8.37.67H709.4a.25.25,0,0,0,.25-.23.25.25,0,0,0-.23-.26l-8.37-.67Z" transform="translate(-129.92 -13.53)"/><path class="cls-58" d="M689.59,579l-8.38-.67a.14.14,0,0,1-.13-.14.15.15,0,0,1,.14-.13H701l8.38.67a.14.14,0,0,1,0,.27Z" transform="translate(-129.92 -13.53)"/><path class="cls-58" d="M701,578.18l8.37.67H689.59l-8.37-.67H701m0-.28H681.22a.27.27,0,0,0-.27.26.27.27,0,0,0,.25.29l8.37.67H709.4a.27.27,0,0,0,.27-.26.27.27,0,0,0-.25-.29l-8.37-.67Z" transform="translate(-129.92 -13.53)"/><path class="cls-59" d="M689.59,579l-8.38-.68a.15.15,0,0,1-.14-.15.15.15,0,0,1,.15-.15H701l8.38.68a.15.15,0,0,1,.14.15.15.15,0,0,1-.15.15Z" transform="translate(-129.92 -13.53)"/><path class="cls-59" d="M701,578.18l8.37.67H689.59l-8.37-.67H701m0-.3H681.22a.3.3,0,0,0,0,.59l8.37.67H709.4a.31.31,0,0,0,.3-.29.29.29,0,0,0-.28-.31l-8.37-.67Z" transform="translate(-129.92 -13.53)"/><path class="cls-60" d="M689.59,579l-8.38-.67a.17.17,0,0,1,0-.33H701l8.38.67a.17.17,0,0,1,0,.33Z" transform="translate(-129.92 -13.53)"/><path class="cls-60" d="M701,578.18l8.37.67H689.59l-8.37-.67H701m0-.33H681.22a.34.34,0,0,0-.33.31.33.33,0,0,0,.3.34l8.38.67H709.4a.33.33,0,0,0,0-.65l-8.38-.67Z" transform="translate(-129.92 -13.53)"/><path class="cls-61" d="M689.59,579l-8.38-.67a.18.18,0,1,1,0-.35H701l8.39.67a.18.18,0,0,1,.16.18.18.18,0,0,1-.18.17Z" transform="translate(-129.92 -13.53)"/><path class="cls-61" d="M701,578.18l8.37.67H689.59l-8.37-.67H701m0-.36H681.22a.35.35,0,0,0-.35.34.35.35,0,0,0,.32.37l8.37.67H709.4a.35.35,0,0,0,.35-.34.35.35,0,0,0-.32-.37l-8.37-.67Z" transform="translate(-129.92 -13.53)"/><path class="cls-62" d="M689.59,579l-8.38-.68a.18.18,0,0,1-.18-.19.2.2,0,0,1,.19-.19H701l8.39.68a.17.17,0,0,1,.17.19.2.2,0,0,1-.19.19Z" transform="translate(-129.92 -13.53)"/><path class="cls-62" d="M701,578.18l8.37.67H689.59l-8.37-.67H701m0-.38H681.22a.38.38,0,0,0-.38.36.38.38,0,0,0,.35.39l8.37.67H709.4a.38.38,0,0,0,.38-.37.38.38,0,0,0-.35-.39l-8.37-.67Z" transform="translate(-129.92 -13.53)"/><path class="cls-63" d="M689.59,579.05l-8.39-.67a.21.21,0,0,1,0-.41H701l8.39.67a.19.19,0,0,1,.18.21.2.2,0,0,1-.2.2Z" transform="translate(-129.92 -13.53)"/><path class="cls-63" d="M701,578.18l8.37.67H689.59l-8.37-.67H701m0-.41H681.22a.41.41,0,0,0-.41.39.42.42,0,0,0,.38.42l8.37.67H709.4a.41.41,0,0,0,0-.81l-8.37-.67Z" transform="translate(-129.92 -13.53)"/><path class="cls-64" d="M689.59,579.06l-8.39-.67a.23.23,0,0,1-.2-.22.22.22,0,0,1,.22-.21H701l8.39.67a.22.22,0,0,1,0,.43Z" transform="translate(-129.92 -13.53)"/><path class="cls-64" d="M701,578.18l8.37.67H689.59l-8.37-.67H701m0-.44H681.22a.44.44,0,0,0-.43.42.43.43,0,0,0,.4.45l8.37.67H709.4a.42.42,0,0,0,.43-.42.43.43,0,0,0-.39-.45l-8.38-.67Z" transform="translate(-129.92 -13.53)"/><path class="cls-65" d="M689.59,579.08l-8.39-.68a.22.22,0,0,1-.21-.23.24.24,0,0,1,.23-.23H701l8.39.68a.22.22,0,0,1,.21.23.23.23,0,0,1-.23.23Z" transform="translate(-129.92 -13.53)"/><path class="cls-65" d="M701,578.18l8.37.67H689.59l-8.37-.67H701m0-.46H681.22a.46.46,0,0,0,0,.91l8.38.67H709.4a.46.46,0,0,0,0-.92l-8.37-.67Z" transform="translate(-129.92 -13.53)"/><path class="cls-66" d="M689.59,579.09l-8.39-.67a.25.25,0,0,1,0-.49H701l8.39.67a.24.24,0,0,1,.22.26.23.23,0,0,1-.24.23Z" transform="translate(-129.92 -13.53)"/><path class="cls-66" d="M701,578.18l8.37.67H689.59l-8.37-.67H701m0-.49H681.22a.49.49,0,0,0,0,1l8.37.67H709.4a.49.49,0,0,0,0-1l-8.37-.67Z" transform="translate(-129.92 -13.53)"/><path class="cls-67" d="M689.59,579.1l-8.39-.67a.26.26,0,0,1,0-.51H701l8.39.67a.26.26,0,0,1,0,.51Z" transform="translate(-129.92 -13.53)"/><path class="cls-67" d="M701,578.18l8.37.67H689.59l-8.37-.67H701m0-.52H681.22a.52.52,0,0,0,0,1l8.37.67H709.4a.52.52,0,0,0,0-1l-8.37-.67Z" transform="translate(-129.92 -13.53)"/><path class="cls-68" d="M689.59,579.12l-8.39-.68a.26.26,0,0,1-.25-.28.28.28,0,0,1,.27-.26H701l8.39.68a.26.26,0,0,1,.25.28.27.27,0,0,1-.27.26Z" transform="translate(-129.92 -13.53)"/><path class="cls-68" d="M701,578.18l8.37.67H689.59l-8.37-.67H701m0-.55H681.22a.54.54,0,0,0,0,1.08l8.37.67H709.4a.54.54,0,0,0,0-1.08l-8.37-.67Z" transform="translate(-129.92 -13.53)"/><path class="cls-69" d="M689.59,579.13l-8.39-.67a.28.28,0,0,1-.26-.3.28.28,0,0,1,.28-.27H701l8.39.67a.27.27,0,0,1,.26.3.28.28,0,0,1-.28.27Z" transform="translate(-129.92 -13.53)"/><path class="cls-69" d="M701,578.18l8.37.67H689.59l-8.37-.67H701m0-.57H681.22a.58.58,0,0,0-.57.54.57.57,0,0,0,.53.59l8.37.67H709.4a.57.57,0,0,0,.05-1.13l-8.38-.67Z" transform="translate(-129.92 -13.53)"/><path class="cls-70" d="M689.59,579.14l-8.39-.67a.31.31,0,0,1-.28-.31.3.3,0,0,1,.3-.28H701l8.39.67a.3.3,0,0,1,0,.59Z" transform="translate(-129.92 -13.53)"/><path class="cls-70" d="M701,578.18l8.37.67H689.59l-8.37-.67H701m0-.6H681.22a.59.59,0,0,0-.59.57.6.6,0,0,0,.54.62l8.38.67H709.4a.6.6,0,0,0,.05-1.19l-8.37-.67Z" transform="translate(-129.92 -13.53)"/><path class="cls-71" d="M689.59,579.16l-8.39-.68a.3.3,0,0,1-.29-.32.32.32,0,0,1,.31-.3H701l8.4.68a.3.3,0,0,1,.28.32.31.31,0,0,1-.31.3Z" transform="translate(-129.92 -13.53)"/><path class="cls-71" d="M701,578.18l8.37.67H689.59l-8.37-.67H701m0-.63H681.22a.63.63,0,0,0-.62.6.62.62,0,0,0,.57.64l8.37.67H709.4a.63.63,0,0,0,.62-.6.62.62,0,0,0-.57-.64l-8.37-.67Z" transform="translate(-129.92 -13.53)"/><path class="cls-72" d="M689.59,579.17l-8.39-.67a.33.33,0,0,1,0-.65H701l8.4.67a.32.32,0,0,1,.29.34.31.31,0,0,1-.32.31Z" transform="translate(-129.92 -13.53)"/><path class="cls-72" d="M701,578.18l8.37.67H689.59l-8.37-.67H701m0-.65H681.22a.65.65,0,0,0-.05,1.29l8.37.67H709.4a.65.65,0,0,0,.05-1.29l-8.37-.67Z" transform="translate(-129.92 -13.53)"/><path class="cls-73" d="M689.59,579.18l-8.4-.67a.34.34,0,0,1,0-.67H701l8.4.67a.33.33,0,0,1,.31.35.34.34,0,0,1-.34.32Z" transform="translate(-129.92 -13.53)"/><path class="cls-73" d="M701,578.18l8.37.67H689.59l-8.37-.67H701m0-.68H681.22a.68.68,0,0,0-.05,1.35l8.37.67H709.4a.68.68,0,0,0,.05-1.35l-8.37-.67Z" transform="translate(-129.92 -13.53)"/><path class="cls-74" d="M689.59,579.2l-8.4-.68a.34.34,0,0,1-.32-.36.35.35,0,0,1,.35-.34H701l8.4.68a.34.34,0,0,1,.32.36.35.35,0,0,1-.35.34Z" transform="translate(-129.92 -13.53)"/><path class="cls-74" d="M701,578.18l8.37.67H689.59l-8.37-.67H701m0-.71H681.22a.7.7,0,0,0-.06,1.4l8.38.67H709.4a.7.7,0,0,0,.06-1.4l-8.38-.67Z" transform="translate(-129.92 -13.53)"/><path class="cls-75" d="M689.59,579.21l-8.4-.67a.36.36,0,0,1-.33-.38.37.37,0,0,1,.36-.35H701l8.4.67a.36.36,0,0,1,.33.38.35.35,0,0,1-.36.35Z" transform="translate(-129.92 -13.53)"/><path class="cls-75" d="M701,578.18l8.37.67H689.59l-8.37-.67H701m0-.73H681.22a.74.74,0,0,0-.73.7.73.73,0,0,0,.67.75l8.37.67H709.4a.74.74,0,0,0,.73-.7.73.73,0,0,0-.67-.75l-8.37-.67Z" transform="translate(-129.92 -13.53)"/><path class="cls-76" d="M689.59,579.22l-8.4-.67a.38.38,0,0,1,0-.75H701l8.4.67a.38.38,0,0,1,.35.39.38.38,0,0,1-.38.36Z" transform="translate(-129.92 -13.53)"/><path class="cls-76" d="M701,578.18l8.37.67H689.59l-8.37-.67H701m0-.76H681.22a.76.76,0,0,0-.06,1.51l8.37.67H709.4a.76.76,0,0,0,.76-.72.78.78,0,0,0-.7-.79l-8.37-.67Z" transform="translate(-129.92 -13.53)"/><path class="cls-55" d="M659.92,585.78l-7-.67a.08.08,0,0,1-.08-.09.08.08,0,0,1,.08-.08H669.5l7,.67a.09.09,0,0,1,0,.17Z" transform="translate(-129.92 -13.53)"/><path class="cls-55" d="M669.5,585l7,.67H659.91l-7-.67H669.5m0-.17H652.89a.18.18,0,0,0,0,.35l7,.67h16.62a.17.17,0,0,0,.18-.17.18.18,0,0,0-.16-.18l-7-.67Z" transform="translate(-129.92 -13.53)"/><path class="cls-55" d="M659.92,585.46l-7-.67a.09.09,0,0,1-.08-.1.09.09,0,0,1,.08-.08H669.5l7,.67a.08.08,0,0,1,.08.09.09.09,0,0,1-.09.09Z" transform="translate(-129.92 -13.53)"/><path class="cls-55" d="M669.5,584.7l7,.67H659.91l-7-.67H669.5m0-.18H652.89a.18.18,0,0,0-.17.17.17.17,0,0,0,.16.18l7,.67h16.62a.17.17,0,0,0,.18-.16.19.19,0,0,0-.16-.19l-7-.67Z" transform="translate(-129.92 -13.53)"/><path class="cls-55" d="M659.92,585.13l-7-.67s-.09-.05-.08-.09a.09.09,0,0,1,.08-.09H669.5l7,.67a.1.1,0,0,1,.08.1.09.09,0,0,1-.09.08Z" transform="translate(-129.92 -13.53)"/><path class="cls-55" d="M669.5,584.37l7,.67H659.91l-7-.67H669.5m0-.18H652.89a.18.18,0,0,0-.17.17.17.17,0,0,0,.16.19l7,.67h16.62a.18.18,0,0,0,0-.35l-7-.67Z" transform="translate(-129.92 -13.53)"/><path class="cls-55" d="M659.92,584.8l-7-.67a.08.08,0,0,1-.08-.09.08.08,0,0,1,.08-.08H669.5l7,.67a.09.09,0,0,1,0,.17Z" transform="translate(-129.92 -13.53)"/><path class="cls-55" d="M669.5,584.05l7,.67H659.91l-7-.67H669.5m0-.18H652.89a.18.18,0,0,0,0,.35l7,.67h16.62a.17.17,0,0,0,.18-.17.18.18,0,0,0-.16-.18l-7-.67Z" transform="translate(-129.92 -13.53)"/><path class="cls-55" d="M659.92,584.48l-7-.67s-.09,0-.08-.09a.09.09,0,0,1,.08-.09H669.5l7,.67a.09.09,0,0,1,.08.09.09.09,0,0,1-.09.09Z" transform="translate(-129.92 -13.53)"/><path class="cls-55" d="M669.5,583.72l7,.67H659.91l-7-.67H669.5m0-.18H652.89a.18.18,0,0,0-.17.17.17.17,0,0,0,.16.19l7,.67h16.62a.18.18,0,0,0,.18-.17.19.19,0,0,0-.16-.19l-7-.67Z" transform="translate(-129.92 -13.53)"/><path class="cls-55" d="M659.92,584.15l-7-.67a.08.08,0,0,1-.08-.09.08.08,0,0,1,.08-.08H669.5l7,.67a.08.08,0,0,1,.08.09.09.09,0,0,1-.09.08Z" transform="translate(-129.92 -13.53)"/><path class="cls-55" d="M669.5,583.39l7,.67H659.91l-7-.67H669.5m0-.17H652.89a.17.17,0,0,0-.17.16.17.17,0,0,0,.16.19l7,.67h16.62a.17.17,0,0,0,.18-.17.18.18,0,0,0-.16-.18l-7-.67Z" transform="translate(-129.92 -13.53)"/><path class="cls-55" d="M659.92,583.82l-7-.67a.08.08,0,0,1-.08-.09.09.09,0,0,1,.08-.08H669.5l7,.67a.09.09,0,0,1,0,.17Z" transform="translate(-129.92 -13.53)"/><path class="cls-55" d="M669.5,583.07l7,.67H659.91l-7-.67H669.5m0-.18H652.89a.18.18,0,0,0,0,.35l7,.67h16.62a.17.17,0,0,0,.18-.16.19.19,0,0,0-.16-.19l-7-.67Z" transform="translate(-129.92 -13.53)"/><path class="cls-55" d="M659.92,583.5l-7-.67s-.09-.05-.08-.09a.09.09,0,0,1,.08-.09H669.5l7,.67a.09.09,0,0,1,.08.09.09.09,0,0,1-.09.09Z" transform="translate(-129.92 -13.53)"/><path class="cls-55" d="M669.5,582.74l7,.67H659.91l-7-.67H669.5m0-.18H652.89a.18.18,0,0,0-.17.17.17.17,0,0,0,.16.19l7,.67h16.62a.18.18,0,0,0,.18-.17.19.19,0,0,0-.16-.19l-7-.66Z" transform="translate(-129.92 -13.53)"/><path class="cls-55" d="M659.92,583.17l-7-.67a.08.08,0,0,1-.08-.09.08.08,0,0,1,.08-.08H669.5l7,.67a.09.09,0,0,1,0,.17Z" transform="translate(-129.92 -13.53)"/><path class="cls-55" d="M669.5,582.42l7,.66H659.91l-7-.66H669.5m0-.18H652.89a.18.18,0,0,0,0,.35l7,.67h16.62a.17.17,0,0,0,.18-.17.18.18,0,0,0-.16-.18l-7-.67Z" transform="translate(-129.92 -13.53)"/><path class="cls-55" d="M659.92,582.85l-7-.67a.09.09,0,0,1-.08-.1.09.09,0,0,1,.08-.08H669.5l7,.67a.09.09,0,0,1,.08.09.09.09,0,0,1-.09.09Z" transform="translate(-129.92 -13.53)"/><path class="cls-55" d="M669.5,582.09l7,.67H659.91l-7-.67H669.5m0-.18H652.89a.18.18,0,0,0-.17.17.16.16,0,0,0,.16.18l7,.67h16.62a.18.18,0,0,0,.18-.17.19.19,0,0,0-.16-.19l-7-.67Z" transform="translate(-129.92 -13.53)"/><path class="cls-55" d="M659.92,582.52l-7-.67a.08.08,0,0,1-.08-.09.08.08,0,0,1,.08-.08H669.5l7,.66a.1.1,0,0,1,.08.1.09.09,0,0,1-.09.08Z" transform="translate(-129.92 -13.53)"/><path class="cls-55" d="M669.5,581.76l7,.67H659.91l-7-.67H669.5m0-.17H652.89a.17.17,0,0,0-.17.16.17.17,0,0,0,.16.19l7,.67h16.62a.17.17,0,0,0,.18-.17.18.18,0,0,0-.16-.18l-7-.67Z" transform="translate(-129.92 -13.53)"/><path class="cls-55" d="M659.92,582.19l-7-.67a.08.08,0,0,1-.08-.09.09.09,0,0,1,.08-.08H669.5l7,.67a.09.09,0,0,1,0,.17Z" transform="translate(-129.92 -13.53)"/><path class="cls-55" d="M669.5,581.44l7,.67H659.91l-7-.67H669.5m0-.18H652.89a.18.18,0,0,0,0,.35l7,.67h16.62a.17.17,0,0,0,.18-.17.18.18,0,0,0-.16-.18l-7-.67Z" transform="translate(-129.92 -13.53)"/><path class="cls-55" d="M659.92,581.87l-7-.67s-.09-.05-.08-.09a.09.09,0,0,1,.08-.09H669.5l7,.67a.09.09,0,0,1,.08.09.09.09,0,0,1-.09.09Z" transform="translate(-129.92 -13.53)"/><path class="cls-55" d="M669.5,581.11l7,.67H659.91l-7-.67H669.5m0-.18H652.89a.18.18,0,0,0-.17.17.17.17,0,0,0,.16.19l7,.67h16.62a.18.18,0,0,0,.18-.17.19.19,0,0,0-.16-.19l-7-.67Z" transform="translate(-129.92 -13.53)"/><path class="cls-55" d="M659.92,581.54l-7-.67a.08.08,0,0,1-.08-.09.08.08,0,0,1,.08-.08H669.5l7,.67a.09.09,0,0,1,0,.17Z" transform="translate(-129.92 -13.53)"/><path class="cls-55" d="M669.5,580.78l7,.67H659.91l-7-.67H669.5m0-.17H652.89a.18.18,0,0,0,0,.35l7,.67h16.62a.17.17,0,0,0,.18-.17.18.18,0,0,0-.16-.18l-7-.67Z" transform="translate(-129.92 -13.53)"/><path class="cls-55" d="M659.92,581.22l-7-.67a.09.09,0,0,1-.08-.1.09.09,0,0,1,.08-.08H669.5l7,.67a.09.09,0,0,1,.08.09.09.09,0,0,1-.09.09Z" transform="translate(-129.92 -13.53)"/><path class="cls-55" d="M669.5,580.46l7,.67H659.91l-7-.67H669.5m0-.18H652.89a.18.18,0,0,0-.17.17.16.16,0,0,0,.16.18l7,.67h16.62a.17.17,0,0,0,.18-.16.19.19,0,0,0-.16-.19l-7-.67Z" transform="translate(-129.92 -13.53)"/><path class="cls-55" d="M659.92,580.89l-7-.67a.08.08,0,0,1-.08-.09.09.09,0,0,1,.08-.09H669.5l7,.67a.1.1,0,0,1,.08.1.09.09,0,0,1-.09.08Z" transform="translate(-129.92 -13.53)"/><path class="cls-55" d="M669.5,580.13l7,.67H659.91l-7-.67H669.5m0-.17H652.89a.17.17,0,0,0-.17.16.17.17,0,0,0,.16.19l7,.67h16.62a.18.18,0,0,0,.18-.17.18.18,0,0,0-.16-.18l-7-.67Z" transform="translate(-129.92 -13.53)"/><path class="cls-55" d="M659.92,580.56l-7-.67a.08.08,0,0,1-.08-.09.08.08,0,0,1,.08-.08H669.5l7,.67a.09.09,0,0,1,0,.17Z" transform="translate(-129.92 -13.53)"/><path class="cls-55" d="M669.5,579.81l7,.67H659.91l-7-.67H669.5m0-.18H652.89a.18.18,0,0,0,0,.35l7,.67h16.62a.17.17,0,0,0,.18-.17.18.18,0,0,0-.16-.18l-7-.67Z" transform="translate(-129.92 -13.53)"/><path class="cls-55" d="M659.92,580.24l-7-.67s-.09-.05-.08-.09a.09.09,0,0,1,.08-.09H669.5l7,.67a.09.09,0,0,1,.08.09.09.09,0,0,1-.09.09Z" transform="translate(-129.92 -13.53)"/><path class="cls-55" d="M669.5,579.48l7,.67H659.91l-7-.67H669.5m0-.18H652.89a.18.18,0,0,0-.17.17.17.17,0,0,0,.16.19l7,.67h16.62a.18.18,0,0,0,.18-.17.19.19,0,0,0-.16-.19l-7-.67Z" transform="translate(-129.92 -13.53)"/><path class="cls-55" d="M659.92,579.91l-7-.67a.08.08,0,0,1-.08-.09.08.08,0,0,1,.08-.08H669.5l7,.67a.09.09,0,0,1,0,.17Z" transform="translate(-129.92 -13.53)"/><path class="cls-55" d="M669.5,579.15l7,.67H659.91l-7-.67H669.5m0-.17H652.89a.18.18,0,0,0,0,.35l7,.67h16.62a.17.17,0,0,0,.18-.17.18.18,0,0,0-.16-.18l-7-.67Z" transform="translate(-129.92 -13.53)"/><path class="cls-55" d="M659.92,579.59l-7-.67a.09.09,0,0,1-.08-.1.09.09,0,0,1,.08-.08H669.5l7,.67a.08.08,0,0,1,.08.09.09.09,0,0,1-.09.09Z" transform="translate(-129.92 -13.53)"/><path class="cls-55" d="M669.5,578.83l7,.67H659.91l-7-.67H669.5m0-.18H652.89a.18.18,0,0,0-.17.17.17.17,0,0,0,.16.18l7,.67h16.62a.17.17,0,0,0,.18-.16.19.19,0,0,0-.16-.19l-7-.67Z" transform="translate(-129.92 -13.53)"/><path class="cls-55" d="M659.92,579.26l-7-.67s-.09-.05-.08-.09a.09.09,0,0,1,.08-.09H669.5l7,.67a.1.1,0,0,1,.08.1.09.09,0,0,1-.09.08Z" transform="translate(-129.92 -13.53)"/><path class="cls-55" d="M669.5,578.5l7,.67H659.91l-7-.67H669.5m0-.17H652.89a.17.17,0,0,0-.17.16.17.17,0,0,0,.16.19l7,.67h16.62a.18.18,0,0,0,0-.35l-7-.67Z" transform="translate(-129.92 -13.53)"/><path class="cls-55" d="M659.92,578.93l-7-.67a.08.08,0,0,1-.08-.09.08.08,0,0,1,.08-.08H669.5l7,.67a.09.09,0,0,1,0,.17Z" transform="translate(-129.92 -13.53)"/><path class="cls-55" d="M669.5,578.18l7,.67H659.91l-7-.67H669.5m0-.18H652.89a.18.18,0,0,0,0,.35l7,.67h16.62a.17.17,0,0,0,.18-.17.18.18,0,0,0-.16-.18l-7-.67Z" transform="translate(-129.92 -13.53)"/><path class="cls-56" d="M659.92,579l-7-.67a.11.11,0,0,1,0-.21H669.5l7,.67a.11.11,0,0,1,0,.21Z" transform="translate(-129.92 -13.53)"/><path class="cls-56" d="M669.5,578.18l7,.67H659.91l-7-.67H669.5m0-.21H652.89a.21.21,0,0,0,0,.41l7,.67h16.62a.2.2,0,0,0,.2-.2.19.19,0,0,0-.18-.2l-7-.67Z" transform="translate(-129.92 -13.53)"/><path class="cls-57" d="M659.92,579l-7-.67a.12.12,0,0,1,0-.23H669.5l7,.67a.12.12,0,0,1,0,.23Z" transform="translate(-129.92 -13.53)"/><path class="cls-57" d="M669.5,578.18l7,.67H659.91l-7-.67H669.5m0-.23H652.89a.21.21,0,0,0-.22.21.22.22,0,0,0,.2.24l7,.67h16.63a.23.23,0,0,0,.23-.21.24.24,0,0,0-.21-.24l-7-.67Z" transform="translate(-129.92 -13.53)"/><path class="cls-58" d="M659.92,579l-7-.67a.13.13,0,0,1-.11-.13.12.12,0,0,1,.12-.12H669.5l7,.67a.13.13,0,0,1,.11.13.12.12,0,0,1-.13.12Z" transform="translate(-129.92 -13.53)"/><path class="cls-58" d="M669.5,578.18l7,.67H659.91l-7-.67H669.5m0-.25H652.89a.25.25,0,0,0-.25.23.25.25,0,0,0,.23.26l7,.67h16.63a.25.25,0,0,0,.25-.24.24.24,0,0,0-.22-.26l-7-.67Z" transform="translate(-129.92 -13.53)"/><path class="cls-59" d="M659.92,579l-7-.67a.13.13,0,0,1-.12-.14.13.13,0,0,1,.13-.13H669.5l7,.67a.14.14,0,0,1,.12.14.13.13,0,0,1-.14.13Z" transform="translate(-129.92 -13.53)"/><path class="cls-59" d="M669.5,578.18l7,.67H659.91l-7-.67H669.5m0-.28H652.89a.28.28,0,0,0-.27.26.27.27,0,0,0,.25.29l7,.67h16.63a.28.28,0,0,0,0-.55l-7-.67Z" transform="translate(-129.92 -13.53)"/><path class="cls-60" d="M659.92,579l-7-.67a.13.13,0,0,1-.13-.15.14.14,0,0,1,.14-.14H669.5l7,.67a.13.13,0,0,1,.13.15.15.15,0,0,1-.15.14Z" transform="translate(-129.92 -13.53)"/><path class="cls-60" d="M669.5,578.18l7,.67H659.91l-7-.67H669.5m0-.3H652.89a.28.28,0,0,0-.29.28.29.29,0,0,0,.27.31l7,.67h16.63a.3.3,0,0,0,.3-.28.29.29,0,0,0-.27-.31l-7-.67Z" transform="translate(-129.92 -13.53)"/><path class="cls-61" d="M659.92,579l-7-.67a.17.17,0,0,1,0-.33H669.5l7,.67a.18.18,0,0,1,.15.17.17.17,0,0,1-.17.16Z" transform="translate(-129.92 -13.53)"/><path class="cls-61" d="M669.5,578.18l7,.67H659.91l-7-.67H669.5m0-.33H652.89a.33.33,0,0,0,0,.65l7,.67h16.64a.33.33,0,0,0,0-.65l-7-.67Z" transform="translate(-129.92 -13.53)"/><path class="cls-62" d="M659.92,579l-7-.67a.18.18,0,0,1-.16-.18.17.17,0,0,1,.17-.17H669.5l7,.67a.18.18,0,0,1,.16.18.18.18,0,0,1-.18.17Z" transform="translate(-129.92 -13.53)"/><path class="cls-62" d="M669.5,578.18l7,.67H659.91l-7-.67H669.5m0-.35H652.89a.34.34,0,0,0-.34.33.35.35,0,0,0,.31.36l7,.67h16.64a.34.34,0,0,0,.35-.33.35.35,0,0,0-.31-.36l-7-.67Z" transform="translate(-129.92 -13.53)"/><path class="cls-63" d="M659.92,579l-7-.67a.19.19,0,0,1,0-.37H669.5l7,.67a.19.19,0,0,1,0,.37Z" transform="translate(-129.92 -13.53)"/><path class="cls-63" d="M669.5,578.18l7,.67H659.91l-7-.67H669.5m0-.38H652.89a.38.38,0,0,0-.37.36.37.37,0,0,0,.34.39l7,.67h16.64a.38.38,0,0,0,.38-.36.37.37,0,0,0-.34-.39l-7-.67Z" transform="translate(-129.92 -13.53)"/><path class="cls-64" d="M659.92,579l-7-.67a.2.2,0,0,1,0-.39H669.5l7,.67a.2.2,0,0,1,0,.39Z" transform="translate(-129.92 -13.53)"/><path class="cls-64" d="M669.5,578.18l7,.67H659.91l-7-.67H669.5m0-.4H652.89a.4.4,0,0,0,0,.79l7,.67h16.64a.39.39,0,0,0,.4-.38.4.4,0,0,0-.36-.41l-7-.67Z" transform="translate(-129.92 -13.53)"/><path class="cls-65" d="M659.92,579.06l-7-.67a.22.22,0,0,1-.19-.22.22.22,0,0,1,.21-.21H669.5l7,.68a.2.2,0,0,1,.19.22.2.2,0,0,1-.21.2Z" transform="translate(-129.92 -13.53)"/><path class="cls-65" d="M669.5,578.18l7,.67H659.91l-7-.67H669.5m0-.43H652.89a.43.43,0,0,0-.42.41.43.43,0,0,0,.38.44l7,.67h16.65a.42.42,0,0,0,.42-.4.41.41,0,0,0-.38-.44l-7-.67Z" transform="translate(-129.92 -13.53)"/><path class="cls-66" d="M659.92,579.07l-7-.67a.23.23,0,0,1-.2-.24.24.24,0,0,1,.22-.21H669.5l7,.67a.24.24,0,0,1,.21.24.23.23,0,0,1-.23.21Z" transform="translate(-129.92 -13.53)"/><path class="cls-66" d="M669.5,578.18l7,.67H659.91l-7-.67H669.5m0-.45H652.89a.45.45,0,0,0,0,.89l7,.67h16.65a.45.45,0,0,0,.05-.89l-7-.67Z" transform="translate(-129.92 -13.53)"/><path class="cls-67" d="M659.92,579.08l-7-.67a.23.23,0,0,1-.21-.25.24.24,0,0,1,.23-.22H669.5l7,.67a.24.24,0,0,1,0,.47Z" transform="translate(-129.92 -13.53)"/><path class="cls-67" d="M669.5,578.18l7,.67H659.91l-7-.67H669.5m0-.48H652.89a.48.48,0,0,0-.47.45.47.47,0,0,0,.43.49l7,.67h16.65a.47.47,0,0,0,.47-.45.46.46,0,0,0-.42-.49l-7-.67Z" transform="translate(-129.92 -13.53)"/><path class="cls-68" d="M659.92,579.09l-7-.67a.24.24,0,0,1-.22-.26.23.23,0,0,1,.24-.23H669.5l7,.67a.25.25,0,0,1,0,.49Z" transform="translate(-129.92 -13.53)"/><path class="cls-68" d="M669.5,578.18l7,.67H659.91l-7-.67H669.5m0-.5H652.89a.5.5,0,0,0,0,1l7,.67h16.65a.5.5,0,0,0,.5-.47.5.5,0,0,0-.45-.52l-7-.67Z" transform="translate(-129.92 -13.53)"/><path class="cls-69" d="M659.92,579.11l-7-.68a.26.26,0,0,1,0-.51H669.5l7,.67a.25.25,0,0,1,.23.27.26.26,0,0,1-.26.25Z" transform="translate(-129.92 -13.53)"/><path class="cls-69" d="M669.5,578.18l7,.67H659.91l-7-.67H669.5m0-.52H652.89a.52.52,0,0,0,0,1l7,.67h16.65a.52.52,0,0,0,.52-.5.5.5,0,0,0-.47-.54l-7-.67Z" transform="translate(-129.92 -13.53)"/><path class="cls-70" d="M659.92,579.12l-7-.67a.28.28,0,0,1,0-.55H669.5l7,.67a.28.28,0,0,1,.24.29.27.27,0,0,1-.27.26Z" transform="translate(-129.92 -13.53)"/><path class="cls-70" d="M669.5,578.18l7,.67H659.91l-7-.67H669.5m0-.55H652.89a.54.54,0,0,0-.54.52.55.55,0,0,0,.49.57l7,.67h16.66a.55.55,0,0,0,.06-1.09l-7-.67Z" transform="translate(-129.92 -13.53)"/><path class="cls-71" d="M659.92,579.13l-7-.67a.29.29,0,0,1-.26-.3.28.28,0,0,1,.28-.27H669.5l7,.67a.3.3,0,0,1,.26.3.29.29,0,0,1-.29.27Z" transform="translate(-129.92 -13.53)"/><path class="cls-71" d="M669.5,578.18l7,.67H659.91l-7-.67H669.5m0-.57H652.89a.57.57,0,0,0,0,1.13l7,.67h16.66a.57.57,0,0,0,.06-1.13l-7-.67Z" transform="translate(-129.92 -13.53)"/><path class="cls-72" d="M659.92,579.14l-7-.67a.29.29,0,0,1-.27-.31.29.29,0,0,1,.29-.28H669.5l7,.67a.3.3,0,0,1,0,.59Z" transform="translate(-129.92 -13.53)"/><path class="cls-72" d="M669.5,578.18l7,.67H659.91l-7-.67H669.5m0-.6H652.89a.6.6,0,0,0,0,1.19l7,.67h16.66a.6.6,0,0,0,.06-1.19l-7-.66Z" transform="translate(-129.92 -13.53)"/><path class="cls-73" d="M659.92,579.15l-7-.67a.3.3,0,0,1-.28-.32.3.3,0,0,1,.3-.29H669.5l7,.67a.3.3,0,0,1,.28.32.31.31,0,0,1-.31.29Z" transform="translate(-129.92 -13.53)"/><path class="cls-73" d="M669.5,578.18l7,.67H659.91l-7-.67H669.5m0-.62H652.89a.62.62,0,0,0,0,1.23l7,.67h16.66a.62.62,0,0,0,.62-.59.62.62,0,0,0-.56-.64l-7-.67Z" transform="translate(-129.92 -13.53)"/><path class="cls-74" d="M659.92,579.17l-7.06-.68a.32.32,0,0,1-.29-.33.33.33,0,0,1,.32-.31H669.5l7,.68a.32.32,0,0,1,0,.64Z" transform="translate(-129.92 -13.53)"/><path class="cls-74" d="M669.5,578.18l7,.67H659.91l-7-.67H669.5m0-.65H652.89a.65.65,0,0,0-.64.62.65.65,0,0,0,.58.67l7,.66h16.67a.64.64,0,0,0,.06-1.28l-7-.67Z" transform="translate(-129.92 -13.53)"/><path class="cls-75" d="M659.92,579.18l-7.06-.67a.34.34,0,0,1,0-.67H669.5l7,.67a.34.34,0,0,1,0,.67Z" transform="translate(-129.92 -13.53)"/><path class="cls-75" d="M669.5,578.18l7,.67H659.91l-7-.67H669.5m0-.67H652.89a.67.67,0,0,0-.06,1.33l7,.67h16.67a.67.67,0,0,0,.07-1.33l-7-.67Z" transform="translate(-129.92 -13.53)"/><path class="cls-76" d="M659.92,579.19l-7.06-.67a.35.35,0,0,1-.31-.36.34.34,0,0,1,.34-.33H669.5l7.06.67a.35.35,0,0,1,.31.36.34.34,0,0,1-.35.33Z" transform="translate(-129.92 -13.53)"/><path class="cls-76" d="M669.5,578.18l7,.67H659.91l-7-.67H669.5m0-.7H652.89a.69.69,0,0,0-.06,1.38l7,.67h16.67a.69.69,0,0,0,.69-.66.68.68,0,0,0-.62-.72l-7-.67Z" transform="translate(-129.92 -13.53)"/><path class="cls-77" d="M758.55,608.6h0a6.79,6.79,0,0,1,6.77,6.77v26.16a6.79,6.79,0,0,1-6.77,6.77h0a6.79,6.79,0,0,1-6.77-6.77V615.37A6.79,6.79,0,0,1,758.55,608.6Z" transform="translate(-129.92 -13.53)"/><path class="cls-78" d="M758.55,641.21A4.26,4.26,0,1,0,754,637,4.4,4.4,0,0,0,758.55,641.21Z" transform="translate(-129.92 -13.53)"/><path class="cls-35" d="M707.84,617.29a10,10,0,0,1-9.63,10.05l-2.89,0a9.94,9.94,0,1,1-.24-19.87l3.18,0A9.94,9.94,0,0,1,707.84,617.29Z" transform="translate(-129.92 -13.53)"/><circle class="cls-40" cx="697.9" cy="617.4" r="9.94" transform="translate(-200.75 77.26) rotate(-7.08)"/><path class="cls-36" d="M705.58,617.31a7.68,7.68,0,1,1-7.77-7.58A7.68,7.68,0,0,1,705.58,617.31Z" transform="translate(-129.92 -13.53)"/><path class="cls-35" d="M736.44,617.29a9.94,9.94,0,0,1-9.62,10.05l-2.9,0a9.94,9.94,0,0,1-.23-19.87l3.18,0A9.94,9.94,0,0,1,736.44,617.29Z" transform="translate(-129.92 -13.53)"/><circle class="cls-40" cx="726.51" cy="617.4" r="9.94" transform="translate(-200.53 80.79) rotate(-7.08)"/><path class="cls-36" d="M734.18,617.31a7.68,7.68,0,1,1-7.77-7.58A7.68,7.68,0,0,1,734.18,617.31Z" transform="translate(-129.92 -13.53)"/><path class="cls-35" d="M736.44,644.39a9.94,9.94,0,0,1-9.62,10.06l-2.9,0a9.94,9.94,0,0,1-.23-19.88c.16,0,3,0,3.18,0A9.93,9.93,0,0,1,736.44,644.39Z" transform="translate(-129.92 -13.53)"/><circle class="cls-40" cx="726.51" cy="644.51" r="9.94" transform="translate(-203.87 81) rotate(-7.08)"/><path class="cls-36" d="M734.18,644.42a7.68,7.68,0,1,1-7.77-7.58A7.68,7.68,0,0,1,734.18,644.42Z" transform="translate(-129.92 -13.53)"/><path class="cls-35" d="M707.84,644.39a10,10,0,0,1-9.63,10.06l-2.89,0a9.94,9.94,0,0,1-.24-19.88c.16,0,3,0,3.18,0A9.94,9.94,0,0,1,707.84,644.39Z" transform="translate(-129.92 -13.53)"/><circle class="cls-40" cx="697.9" cy="644.51" r="9.94" transform="translate(-204.09 77.47) rotate(-7.08)"/><path class="cls-36" d="M705.58,644.42a7.68,7.68,0,1,1-7.77-7.58A7.68,7.68,0,0,1,705.58,644.42Z" transform="translate(-129.92 -13.53)"/><path class="cls-49" d="M416.94,603.8a10.4,10.4,0,0,0-5.18,1.38l-27.18,15.68a10,10,0,0,0-5,8.66V661a10,10,0,0,0,5,8.65l27.18,15.68a10.39,10.39,0,0,0,10.35,0l27.18-15.68a10,10,0,0,0,5-8.65V629.52a10,10,0,0,0-5-8.66l-27.18-15.68a10.39,10.39,0,0,0-5.17-1.38Z" transform="translate(-129.92 -13.53)"/><path class="cls-49" d="M417.23,603.8a10.4,10.4,0,0,0-5.18,1.38l-27.18,15.68a10,10,0,0,0-5,8.66V661a10,10,0,0,0,5,8.65l27.18,15.68a10.39,10.39,0,0,0,10.35,0l27.18-15.68a10,10,0,0,0,5-8.65V629.52a10,10,0,0,0-5-8.66L422.4,605.18a10.39,10.39,0,0,0-5.17-1.38Z" transform="translate(-129.92 -13.53)"/><path class="cls-49" d="M417.51,603.8a10.39,10.39,0,0,0-5.17,1.38l-27.18,15.68a10,10,0,0,0-5,8.66V661a10,10,0,0,0,5,8.65l27.18,15.68a10.39,10.39,0,0,0,10.35,0l27.18-15.68a10,10,0,0,0,5-8.65V629.52a10,10,0,0,0-5-8.66l-27.18-15.68a10.4,10.4,0,0,0-5.18-1.38Z" transform="translate(-129.92 -13.53)"/><path class="cls-49" d="M417.8,603.8a10.37,10.37,0,0,0-5.17,1.38l-27.18,15.68a10,10,0,0,0-5,8.66V661a10,10,0,0,0,5,8.65l27.18,15.68a10.39,10.39,0,0,0,10.35,0l27.18-15.68a10,10,0,0,0,5-8.65V629.52a10,10,0,0,0-5-8.66L423,605.18a10.4,10.4,0,0,0-5.18-1.38Z" transform="translate(-129.92 -13.53)"/><path class="cls-49" d="M418.09,603.8a10.37,10.37,0,0,0-5.17,1.38l-27.18,15.68a10,10,0,0,0-5,8.66V661a10,10,0,0,0,5,8.65l27.17,15.68a10.41,10.41,0,0,0,10.36,0l27.18-15.68a10,10,0,0,0,5-8.65V629.52a10,10,0,0,0-5-8.66l-27.18-15.68a10.4,10.4,0,0,0-5.18-1.38Z" transform="translate(-129.92 -13.53)"/><path class="cls-49" d="M418.38,603.8a10.43,10.43,0,0,0-5.18,1.38L386,620.86a10,10,0,0,0-5,8.66V661a10,10,0,0,0,5,8.65l27.17,15.68a10.41,10.41,0,0,0,10.36,0l27.18-15.68a10,10,0,0,0,5-8.65V629.52a10,10,0,0,0-5-8.66l-27.18-15.68a10.43,10.43,0,0,0-5.18-1.38Z" transform="translate(-129.92 -13.53)"/><path class="cls-49" d="M418.67,603.8a10.43,10.43,0,0,0-5.18,1.38l-27.17,15.68a10,10,0,0,0-5,8.66V661a10,10,0,0,0,5,8.65l27.17,15.68a10.41,10.41,0,0,0,10.36,0L451,669.69a10,10,0,0,0,5.05-8.65V629.52a10,10,0,0,0-5.05-8.66l-27.17-15.68a10.43,10.43,0,0,0-5.18-1.38Z" transform="translate(-129.92 -13.53)"/><path class="cls-49" d="M419,603.8a10.43,10.43,0,0,0-5.18,1.38l-27.17,15.68a10,10,0,0,0-5,8.66V661a10,10,0,0,0,5,8.65l27.17,15.68a10.41,10.41,0,0,0,10.36,0l27.17-15.68a10,10,0,0,0,5.05-8.65V629.52a10,10,0,0,0-5.05-8.66l-27.17-15.68A10.43,10.43,0,0,0,419,603.8Z" transform="translate(-129.92 -13.53)"/><path class="cls-49" d="M419.25,603.8a10.43,10.43,0,0,0-5.18,1.38L386.9,620.86a10,10,0,0,0-5,8.66V661a10,10,0,0,0,5,8.65l27.17,15.68a10.41,10.41,0,0,0,10.36,0l27.17-15.68a10,10,0,0,0,5-8.65V629.52a10,10,0,0,0-5-8.66l-27.17-15.68a10.43,10.43,0,0,0-5.18-1.38Z" transform="translate(-129.92 -13.53)"/><path class="cls-49" d="M419.54,603.8a10.43,10.43,0,0,0-5.18,1.38l-27.17,15.68a10,10,0,0,0-5,8.66V661a10,10,0,0,0,5,8.65l27.17,15.68a10.41,10.41,0,0,0,10.36,0l27.17-15.68a10,10,0,0,0,5.05-8.65V629.52a10,10,0,0,0-5.05-8.66l-27.17-15.68a10.43,10.43,0,0,0-5.18-1.38Z" transform="translate(-129.92 -13.53)"/><path class="cls-49" d="M419.83,603.8a10.43,10.43,0,0,0-5.18,1.38l-27.17,15.68a10,10,0,0,0-5,8.66V661a10,10,0,0,0,5,8.65l27.17,15.68a10.41,10.41,0,0,0,10.36,0l27.17-15.68a10.05,10.05,0,0,0,5.05-8.65V629.52a10.06,10.06,0,0,0-5.05-8.66L425,605.18a10.43,10.43,0,0,0-5.18-1.38Z" transform="translate(-129.92 -13.53)"/><path class="cls-49" d="M420.12,603.8a10.43,10.43,0,0,0-5.18,1.38l-27.17,15.68a10,10,0,0,0-5,8.66V661a10,10,0,0,0,5,8.65l27.17,15.68a10.41,10.41,0,0,0,10.36,0l27.17-15.68a10.05,10.05,0,0,0,5-8.65V629.52a10.06,10.06,0,0,0-5-8.66L425.3,605.18a10.43,10.43,0,0,0-5.18-1.38Z" transform="translate(-129.92 -13.53)"/><path class="cls-49" d="M420.41,603.8a10.43,10.43,0,0,0-5.18,1.38l-27.17,15.68a10,10,0,0,0-5,8.66V661a10,10,0,0,0,5,8.65l27.17,15.68a10.41,10.41,0,0,0,10.36,0l27.17-15.68a10.05,10.05,0,0,0,5.05-8.65V629.52a10.06,10.06,0,0,0-5.05-8.66l-27.17-15.68a10.43,10.43,0,0,0-5.18-1.38Z" transform="translate(-129.92 -13.53)"/><path class="cls-49" d="M420.7,603.8a10.43,10.43,0,0,0-5.18,1.38l-27.17,15.68a10,10,0,0,0-5,8.66V661a10,10,0,0,0,5,8.65l27.17,15.68a10.41,10.41,0,0,0,10.36,0l27.17-15.68A10.05,10.05,0,0,0,458.1,661V629.52a10.06,10.06,0,0,0-5.05-8.66l-27.17-15.68a10.43,10.43,0,0,0-5.18-1.38Z" transform="translate(-129.92 -13.53)"/><path class="cls-49" d="M421,603.8a10.43,10.43,0,0,0-5.18,1.38l-27.17,15.68a10,10,0,0,0-5,8.66V661a10,10,0,0,0,5,8.65l27.17,15.68a10.41,10.41,0,0,0,10.36,0l27.17-15.68a10.05,10.05,0,0,0,5.05-8.65V629.52a10.06,10.06,0,0,0-5.05-8.66l-27.17-15.68A10.43,10.43,0,0,0,421,603.8Z" transform="translate(-129.92 -13.53)"/><path class="cls-49" d="M421.28,603.8a10.43,10.43,0,0,0-5.18,1.38l-27.17,15.68a10,10,0,0,0-5,8.66V661a10,10,0,0,0,5,8.65l27.17,15.68a10.41,10.41,0,0,0,10.36,0l27.17-15.68a10.05,10.05,0,0,0,5.05-8.65V629.52a10.06,10.06,0,0,0-5.05-8.66l-27.17-15.68a10.43,10.43,0,0,0-5.18-1.38Z" transform="translate(-129.92 -13.53)"/><path class="cls-49" d="M421.57,603.8a10.43,10.43,0,0,0-5.18,1.38l-27.17,15.68a10,10,0,0,0-5,8.66V661a10,10,0,0,0,5,8.65l27.17,15.68a10.41,10.41,0,0,0,10.36,0l27.17-15.68A10.05,10.05,0,0,0,459,661V629.52a10.06,10.06,0,0,0-5.05-8.66l-27.17-15.68a10.43,10.43,0,0,0-5.18-1.38Z" transform="translate(-129.92 -13.53)"/><path class="cls-49" d="M421.86,603.8a10.43,10.43,0,0,0-5.18,1.38l-27.17,15.68a10,10,0,0,0-5,8.66V661a10,10,0,0,0,5,8.65l27.17,15.68a10.41,10.41,0,0,0,10.36,0l27.17-15.68a10.05,10.05,0,0,0,5.05-8.65V629.52a10.06,10.06,0,0,0-5.05-8.66L427,605.18a10.43,10.43,0,0,0-5.18-1.38Z" transform="translate(-129.92 -13.53)"/><path class="cls-49" d="M422.15,603.8a10.43,10.43,0,0,0-5.18,1.38L389.8,620.86a10,10,0,0,0-5,8.66V661a10,10,0,0,0,5,8.65L417,685.37a10.41,10.41,0,0,0,10.36,0l27.17-15.68a10.05,10.05,0,0,0,5.05-8.65V629.52a10.06,10.06,0,0,0-5.05-8.66l-27.17-15.68a10.43,10.43,0,0,0-5.18-1.38Z" transform="translate(-129.92 -13.53)"/><path class="cls-49" d="M422.44,603.8a10.43,10.43,0,0,0-5.18,1.38l-27.17,15.68a10,10,0,0,0-5,8.66V661a10,10,0,0,0,5,8.65l27.17,15.68a10.41,10.41,0,0,0,10.36,0l27.17-15.68a10.05,10.05,0,0,0,5-8.65V629.52a10.06,10.06,0,0,0-5-8.66l-27.17-15.68a10.43,10.43,0,0,0-5.18-1.38Z" transform="translate(-129.92 -13.53)"/><path class="cls-49" d="M422.73,603.8a10.43,10.43,0,0,0-5.18,1.38l-27.17,15.68a10,10,0,0,0-5,8.66V661a10,10,0,0,0,5,8.65l27.17,15.68a10.41,10.41,0,0,0,10.36,0l27.17-15.68a10.05,10.05,0,0,0,5.05-8.65V629.52a10.06,10.06,0,0,0-5.05-8.66l-27.17-15.68a10.43,10.43,0,0,0-5.18-1.38Z" transform="translate(-129.92 -13.53)"/><path class="cls-49" d="M423,603.8a10.43,10.43,0,0,0-5.18,1.38l-27.17,15.68a10,10,0,0,0-5,8.66V661a10,10,0,0,0,5,8.65l27.17,15.68a10.41,10.41,0,0,0,10.36,0l27.17-15.68a10,10,0,0,0,5-8.65V629.52a10,10,0,0,0-5-8.66L428.2,605.18A10.43,10.43,0,0,0,423,603.8Z" transform="translate(-129.92 -13.53)"/><path class="cls-12" d="M416.94,603.8a10.4,10.4,0,0,0-5.18,1.38l-27.18,15.68a10,10,0,0,0-5,8.66V661a10,10,0,0,0,5,8.65l27.18,15.68a10.39,10.39,0,0,0,10.35,0l27.18-15.68a10,10,0,0,0,5-8.65V629.52a10,10,0,0,0-5-8.66l-27.18-15.68a10.39,10.39,0,0,0-5.17-1.38Z" transform="translate(-129.92 -13.53)"/><path class="cls-79" d="M416.94,610.12a8.75,8.75,0,0,0-4.39,1.18l-23,13.28a8.53,8.53,0,0,0-4.28,7.34v26.71a8.53,8.53,0,0,0,4.28,7.34l23,13.28a8.74,8.74,0,0,0,8.77,0l23-13.28a8.53,8.53,0,0,0,4.28-7.34V631.92a8.53,8.53,0,0,0-4.28-7.34l-23-13.28A8.78,8.78,0,0,0,416.94,610.12Z" transform="translate(-129.92 -13.53)"/><path class="cls-2" d="M417.85,615.42a2.83,2.83,0,0,0-2.79,0L392,628.7a2.79,2.79,0,0,0-1.39,2.41v26.58a2.78,2.78,0,0,0,1.39,2.43l23,13.28a2.74,2.74,0,0,0,2.79,0l23.13-13.28a2.81,2.81,0,0,0,1.4-2.42V631.11a2.79,2.79,0,0,0-1.4-2.41Z" transform="translate(-129.92 -13.53)"/><g class="cls-80"><g class="cls-81"><path class="cls-82" d="M417.31,616.9l-23.12,13.28a2.91,2.91,0,0,0-1.49,2.42v26.57a2.66,2.66,0,0,0,.71,1.69l25.92-44.24A2.83,2.83,0,0,0,417.31,616.9Z" transform="translate(-129.92 -13.53)"/><path class="cls-82" d="M419.45,675.15a2.7,2.7,0,0,0,.66-.27l23-13.29a2.84,2.84,0,0,0,1.45-2.42V632.6a2.81,2.81,0,0,0-.84-1.93Z" transform="translate(-129.92 -13.53)"/><path class="cls-12" d="M443.72,629l-23.07-13.28c-.23-.12-2.24-1.35-2.5-1.42l-24.74,46.65a3.74,3.74,0,0,0,.78.65l23.12,13.29a2.85,2.85,0,0,0,2.14.27l24.89-45.67A3,3,0,0,0,443.72,629Z" transform="translate(-129.92 -13.53)"/></g><path class="cls-1" d="M444.59,659.17V632.6a2.87,2.87,0,0,0-1.47-2.42L420.06,616.9a2.67,2.67,0,0,0-.86-.3l25.31,43.21A2.74,2.74,0,0,0,444.59,659.17Z" transform="translate(-129.92 -13.53)"/><path class="cls-1" d="M394.19,630.18a2.91,2.91,0,0,0-1.49,2.42v26.57a2.89,2.89,0,0,0,1.49,2.42l23.12,13.29a2.91,2.91,0,0,0,1.78.34l-24.77-45.11Z" transform="translate(-129.92 -13.53)"/><polygon class="cls-1" points="286.61 598.5 286.29 598.68 286.71 598.68 286.61 598.5"/><path class="cls-82" d="M443.14,661.59a3,3,0,0,0,1.37-1.78l-26.65-43c-.66-.13,0-.23-.6.1l-24.25,14,25.17,44.48a8.09,8.09,0,0,0,1.93-.51Z" transform="translate(-129.92 -13.53)"/><polygon class="cls-1" points="315.36 647.63 315.21 647.36 315.21 647.72 315.36 647.63"/><path class="cls-1" d="M443.14,661.59l-23,13.29a2.86,2.86,0,0,1-1,.34l.46.84,25.58-14.81v-.36l-.62-1.08A3,3,0,0,1,443.14,661.59Z" transform="translate(-129.92 -13.53)"/><path class="cls-1" d="M443.14,661.59l-23,13.29a2.86,2.86,0,0,1-1,.34l.46.84,25.58-14.81v-.36l-.62-1.08A3,3,0,0,1,443.14,661.59Z" transform="translate(-129.92 -13.53)"/></g><line class="cls-83" x1="286.33" y1="601.45" x2="305.83" y2="631.63"/><line class="cls-83" x1="271.31" y1="632.59" x2="288.69" y2="661.57"/><path class="cls-55" d="M727.63,585.77l-5.2-.67a.08.08,0,0,1-.06-.08.07.07,0,0,1,.07-.07h12.27l5.2.67a.06.06,0,0,1,.06.08.07.07,0,0,1-.07.07Z" transform="translate(-129.92 -13.53)"/><path class="cls-55" d="M734.71,585l5.19.67H727.63l-5.19-.67h12.27m0-.15H722.44a.15.15,0,0,0-.15.14.16.16,0,0,0,.14.16l5.18.67H739.9a.15.15,0,0,0,.15-.15.15.15,0,0,0-.13-.16l-5.19-.67Z" transform="translate(-129.92 -13.53)"/><path class="cls-55" d="M727.63,585.44l-5.2-.67s-.06,0-.06-.08a.07.07,0,0,1,.07-.07h12.27l5.2.67s.07,0,.06.08a.07.07,0,0,1-.07.07Z" transform="translate(-129.92 -13.53)"/><path class="cls-55" d="M734.71,584.7l5.19.67H727.63l-5.19-.67h12.27m0-.15H722.44a.15.15,0,0,0-.15.14.16.16,0,0,0,.14.16l5.18.67H739.9a.15.15,0,0,0,0-.3l-5.19-.67Z" transform="translate(-129.92 -13.53)"/><path class="cls-55" d="M727.63,585.12l-5.2-.67a.08.08,0,0,1-.06-.08.07.07,0,0,1,.07-.07h12.27l5.2.67a.06.06,0,0,1,.06.08.07.07,0,0,1-.07.07Z" transform="translate(-129.92 -13.53)"/><path class="cls-55" d="M734.71,584.37l5.19.67H727.63l-5.19-.67h12.27m0-.15H722.44a.15.15,0,0,0-.15.14.16.16,0,0,0,.14.16l5.18.67H739.9a.15.15,0,0,0,0-.3l-5.19-.67Z" transform="translate(-129.92 -13.53)"/><path class="cls-55" d="M727.63,584.79l-5.2-.67s-.06,0-.06-.08a.07.07,0,0,1,.07-.07h12.27l5.2.67a.06.06,0,0,1,.06.08.07.07,0,0,1-.07.07Z" transform="translate(-129.92 -13.53)"/><path class="cls-55" d="M734.71,584.05l5.19.66H727.63l-5.19-.66h12.27m0-.16H722.44a.16.16,0,0,0,0,.31l5.18.67H739.9a.15.15,0,0,0,.15-.15.15.15,0,0,0-.13-.16l-5.19-.67Z" transform="translate(-129.92 -13.53)"/><path class="cls-55" d="M727.63,584.47l-5.2-.68s-.06,0-.06-.08a.07.07,0,0,1,.07-.07h12.27l5.2.67s.07,0,.06.08a.08.08,0,0,1-.07.08Z" transform="translate(-129.92 -13.53)"/><path class="cls-55" d="M734.71,583.72l5.19.67H727.63l-5.19-.67h12.27m0-.15H722.44a.15.15,0,0,0-.15.14.16.16,0,0,0,.14.16l5.18.67H739.9a.15.15,0,0,0,0-.3l-5.19-.67Z" transform="translate(-129.92 -13.53)"/><path class="cls-55" d="M727.63,584.14l-5.2-.67a.08.08,0,0,1-.06-.08.07.07,0,0,1,.07-.07h12.27l5.2.67a.06.06,0,0,1,.06.08.07.07,0,0,1-.07.07Z" transform="translate(-129.92 -13.53)"/><path class="cls-55" d="M734.71,583.39l5.19.67H727.63l-5.19-.67h12.27m0-.15H722.44a.15.15,0,0,0-.15.14.16.16,0,0,0,.14.16l5.18.67H739.9a.15.15,0,0,0,0-.3l-5.19-.67Z" transform="translate(-129.92 -13.53)"/><path class="cls-55" d="M727.63,583.81l-5.2-.67s-.06,0-.06-.08a.07.07,0,0,1,.07-.07h12.27l5.2.67s.07,0,.06.08a.07.07,0,0,1-.07.07Z" transform="translate(-129.92 -13.53)"/><path class="cls-55" d="M734.71,583.07l5.19.67H727.63l-5.19-.67h12.27m0-.15H722.44a.15.15,0,0,0-.15.14.16.16,0,0,0,.14.16l5.18.67H739.9a.15.15,0,0,0,0-.3l-5.19-.67Z" transform="translate(-129.92 -13.53)"/><path class="cls-55" d="M727.63,583.49l-5.2-.67a.08.08,0,0,1-.06-.08.08.08,0,0,1,.07-.08h12.27l5.2.68a.06.06,0,0,1,.06.08.07.07,0,0,1-.07.07Z" transform="translate(-129.92 -13.53)"/><path class="cls-55" d="M734.71,582.74l5.19.67H727.63l-5.19-.67h12.27m0-.15H722.44a.15.15,0,0,0-.15.14.16.16,0,0,0,.14.16l5.18.67H739.9a.15.15,0,0,0,0-.3l-5.19-.67Z" transform="translate(-129.92 -13.53)"/><path class="cls-55" d="M727.63,583.16l-5.2-.67a.08.08,0,0,1-.06-.08.07.07,0,0,1,.07-.07h12.27l5.2.67a.06.06,0,0,1,.06.08.07.07,0,0,1-.07.07Z" transform="translate(-129.92 -13.53)"/><path class="cls-55" d="M734.71,582.41l5.19.67H727.63l-5.19-.67h12.27m0-.15H722.44a.16.16,0,0,0-.15.15.17.17,0,0,0,.14.16l5.18.67H739.9a.15.15,0,0,0,.15-.15.15.15,0,0,0-.13-.16l-5.19-.67Z" transform="translate(-129.92 -13.53)"/><path class="cls-55" d="M727.63,582.83l-5.2-.67s-.06,0-.06-.08a.07.07,0,0,1,.07-.07h12.27l5.2.67s.07,0,.06.08a.07.07,0,0,1-.07.07Z" transform="translate(-129.92 -13.53)"/><path class="cls-55" d="M734.71,582.09l5.19.67H727.63l-5.19-.67h12.27m0-.15H722.44a.15.15,0,0,0-.15.14.16.16,0,0,0,.14.16l5.18.67H739.9a.15.15,0,0,0,0-.3l-5.19-.67Z" transform="translate(-129.92 -13.53)"/><path class="cls-55" d="M727.63,582.51l-5.2-.67a.08.08,0,0,1-.06-.08.07.07,0,0,1,.07-.07h12.27l5.2.67a.06.06,0,0,1,.06.08.07.07,0,0,1-.07.07Z" transform="translate(-129.92 -13.53)"/><path class="cls-55" d="M734.71,581.76l5.19.67H727.63l-5.19-.67h12.27m0-.15H722.44a.15.15,0,0,0-.15.14.16.16,0,0,0,.14.16l5.18.67H739.9a.15.15,0,0,0,0-.3l-5.19-.67Z" transform="translate(-129.92 -13.53)"/><path class="cls-55" d="M727.63,582.18l-5.2-.67s-.06,0-.06-.08a.07.07,0,0,1,.07-.07h12.27l5.2.67s.07,0,.06.08a.07.07,0,0,1-.07.07Z" transform="translate(-129.92 -13.53)"/><path class="cls-55" d="M734.71,581.44l5.19.67H727.63l-5.19-.67h12.27m0-.16H722.44a.16.16,0,0,0,0,.31l5.18.67H739.9a.15.15,0,0,0,0-.3l-5.19-.67Z" transform="translate(-129.92 -13.53)"/><path class="cls-55" d="M727.63,581.86l-5.2-.67a.08.08,0,0,1-.06-.08.08.08,0,0,1,.07-.08h12.27l5.2.67s.07,0,.06.08a.08.08,0,0,1-.07.08Z" transform="translate(-129.92 -13.53)"/><path class="cls-55" d="M734.71,581.11l5.19.67H727.63l-5.19-.67h12.27m0-.15H722.44a.15.15,0,0,0-.15.14.16.16,0,0,0,.14.16l5.18.67H739.9a.15.15,0,0,0,0-.3l-5.19-.67Z" transform="translate(-129.92 -13.53)"/><path class="cls-55" d="M727.63,581.53l-5.2-.67s-.06,0-.06-.08a.07.07,0,0,1,.07-.07h12.27l5.2.67a.06.06,0,0,1,.06.08.07.07,0,0,1-.07.07Z" transform="translate(-129.92 -13.53)"/><path class="cls-55" d="M734.71,580.78l5.19.67H727.63l-5.19-.67h12.27m0-.15H722.44a.15.15,0,0,0-.15.14.16.16,0,0,0,.14.16l5.18.67H739.9a.15.15,0,0,0,.15-.15.15.15,0,0,0-.13-.16l-5.19-.67Z" transform="translate(-129.92 -13.53)"/><path class="cls-55" d="M727.63,581.2l-5.2-.67s-.06,0-.06-.08a.07.07,0,0,1,.07-.07h12.27l5.2.67s.07,0,.06.08a.07.07,0,0,1-.07.07Z" transform="translate(-129.92 -13.53)"/><path class="cls-55" d="M734.71,580.46l5.19.67H727.63l-5.19-.67h12.27m0-.15H722.44a.15.15,0,0,0-.15.14.16.16,0,0,0,.14.16l5.18.67H739.9a.15.15,0,0,0,0-.3l-5.19-.67Z" transform="translate(-129.92 -13.53)"/><path class="cls-55" d="M727.63,580.88l-5.2-.67a.08.08,0,0,1-.06-.08.07.07,0,0,1,.07-.07h12.27l5.2.67a.06.06,0,0,1,.06.08.07.07,0,0,1-.07.07Z" transform="translate(-129.92 -13.53)"/><path class="cls-55" d="M734.71,580.13l5.19.67H727.63l-5.19-.67h12.27m0-.15H722.44a.15.15,0,0,0-.15.14.16.16,0,0,0,.14.16l5.18.67H739.9a.15.15,0,0,0,0-.3l-5.19-.67Z" transform="translate(-129.92 -13.53)"/><path class="cls-55" d="M727.63,580.55l-5.2-.67s-.06,0-.06-.08a.07.07,0,0,1,.07-.07h12.27l5.2.67s.07,0,.06.08a.07.07,0,0,1-.07.07Z" transform="translate(-129.92 -13.53)"/><path class="cls-55" d="M734.71,579.81l5.19.67H727.63l-5.19-.67h12.27m0-.16H722.44a.16.16,0,0,0,0,.31l5.18.67H739.9a.15.15,0,0,0,0-.3l-5.19-.67Z" transform="translate(-129.92 -13.53)"/><path class="cls-55" d="M727.63,580.23l-5.2-.67a.08.08,0,0,1-.06-.08.08.08,0,0,1,.07-.08h12.27l5.2.67s.07,0,.06.08a.08.08,0,0,1-.07.08Z" transform="translate(-129.92 -13.53)"/><path class="cls-55" d="M734.71,579.48l5.19.67H727.63l-5.19-.67h12.27m0-.15H722.44a.15.15,0,0,0-.15.14.16.16,0,0,0,.14.16l5.18.67H739.9a.15.15,0,0,0,0-.3l-5.19-.67Z" transform="translate(-129.92 -13.53)"/><path class="cls-55" d="M727.63,579.9l-5.2-.67a.08.08,0,0,1-.06-.08.07.07,0,0,1,.07-.07h12.27l5.2.67a.06.06,0,0,1,.06.08.07.07,0,0,1-.07.07Z" transform="translate(-129.92 -13.53)"/><path class="cls-55" d="M734.71,579.15l5.19.67H727.63l-5.19-.67h12.27m0-.15H722.44a.15.15,0,0,0-.15.14.16.16,0,0,0,.14.16l5.18.67H739.9a.15.15,0,0,0,.15-.15.15.15,0,0,0-.13-.16l-5.19-.67Z" transform="translate(-129.92 -13.53)"/><path class="cls-55" d="M727.63,579.57l-5.2-.67s-.06,0-.06-.08a.07.07,0,0,1,.07-.07h12.27l5.2.67s.07,0,.06.08a.07.07,0,0,1-.07.07Z" transform="translate(-129.92 -13.53)"/><path class="cls-55" d="M734.71,578.83l5.19.67H727.63l-5.19-.67h12.27m0-.15H722.44a.15.15,0,0,0-.15.14.16.16,0,0,0,.14.16l5.18.67H739.9a.15.15,0,0,0,0-.3l-5.19-.67Z" transform="translate(-129.92 -13.53)"/><path class="cls-55" d="M727.63,579.25l-5.2-.67a.08.08,0,0,1-.06-.08.07.07,0,0,1,.07-.07h12.27l5.2.67a.06.06,0,0,1,.06.08.07.07,0,0,1-.07.07Z" transform="translate(-129.92 -13.53)"/><path class="cls-55" d="M734.71,578.5l5.19.67H727.63l-5.19-.67h12.27m0-.15H722.44a.15.15,0,0,0-.15.14.16.16,0,0,0,.14.16l5.18.67H739.9a.15.15,0,0,0,0-.3l-5.19-.67Z" transform="translate(-129.92 -13.53)"/><path class="cls-55" d="M727.63,578.92l-5.2-.67s-.06,0-.06-.08a.07.07,0,0,1,.07-.07h12.27l5.2.67a.06.06,0,0,1,.06.08.07.07,0,0,1-.07.07Z" transform="translate(-129.92 -13.53)"/><path class="cls-55" d="M734.71,578.18l5.19.67H727.63l-5.19-.67h12.27m0-.16H722.44a.16.16,0,0,0,0,.31l5.18.67H739.9a.15.15,0,0,0,.15-.14.16.16,0,0,0-.13-.17l-5.19-.66Z" transform="translate(-129.92 -13.53)"/><path class="cls-56" d="M727.63,578.93l-5.2-.67a.08.08,0,0,1-.07-.09.08.08,0,0,1,.08-.08h12.27l5.2.67a.08.08,0,0,1,.07.09.08.08,0,0,1-.08.08Z" transform="translate(-129.92 -13.53)"/><path class="cls-56" d="M734.71,578.18l5.19.67H727.63l-5.19-.67h12.27m0-.18H722.44a.17.17,0,0,0-.17.16.18.18,0,0,0,.15.19l5.19.67H739.9a.17.17,0,0,0,.17-.16.18.18,0,0,0-.15-.19l-5.18-.67Z" transform="translate(-129.92 -13.53)"/><path class="cls-57" d="M727.63,578.94l-5.2-.67a.08.08,0,0,1-.08-.1.09.09,0,0,1,.09-.09h12.27l5.2.67a.1.1,0,1,1,0,.19Z" transform="translate(-129.92 -13.53)"/><path class="cls-57" d="M734.71,578.18l5.19.67H727.63l-5.19-.67h12.27m0-.2H722.44a.19.19,0,0,0-.19.18.2.2,0,0,0,.17.21l5.19.67H739.9a.19.19,0,0,0,.19-.18.2.2,0,0,0-.17-.21l-5.18-.67Z" transform="translate(-129.92 -13.53)"/><path class="cls-58" d="M727.63,579l-5.2-.67a.09.09,0,0,1-.09-.11.1.1,0,0,1,.1-.1h12.27l5.2.67a.12.12,0,0,1,.1.11.11.11,0,0,1-.11.1Z" transform="translate(-129.92 -13.53)"/><path class="cls-58" d="M734.71,578.18l5.19.67H727.63l-5.19-.67h12.27m0-.22H722.44a.22.22,0,0,0-.21.2.21.21,0,0,0,.19.23l5.18.67h12.3a.21.21,0,0,0,.21-.2.22.22,0,0,0-.18-.23l-5.19-.67Z" transform="translate(-129.92 -13.53)"/><path class="cls-59" d="M727.63,579l-5.2-.67a.12.12,0,0,1,0-.23h12.27l5.2.67a.12.12,0,0,1,.11.12.13.13,0,0,1-.12.11Z" transform="translate(-129.92 -13.53)"/><path class="cls-59" d="M734.71,578.18l5.19.67H727.63l-5.19-.67h12.27m0-.24H722.44a.24.24,0,0,0,0,.47l5.19.67h12.3a.23.23,0,0,0,.23-.22.24.24,0,0,0-.2-.25l-5.19-.67Z" transform="translate(-129.92 -13.53)"/><path class="cls-60" d="M727.63,579l-5.2-.67a.13.13,0,0,1,0-.25h12.27l5.21.67a.14.14,0,0,1,.11.13.13.13,0,0,1-.13.12Z" transform="translate(-129.92 -13.53)"/><path class="cls-60" d="M734.71,578.18l5.19.67H727.63l-5.19-.67h12.27m0-.26H722.44a.25.25,0,0,0-.25.24.26.26,0,0,0,.22.27l5.19.67h12.3a.26.26,0,0,0,.26-.24.27.27,0,0,0-.23-.27l-5.18-.67Z" transform="translate(-129.92 -13.53)"/><path class="cls-61" d="M727.63,579l-5.2-.67a.14.14,0,0,1,0-.27h12.27l5.21.67a.14.14,0,0,1,0,.27Z" transform="translate(-129.92 -13.53)"/><path class="cls-61" d="M734.71,578.18l5.19.67H727.63l-5.19-.67h12.27m0-.28H722.44a.28.28,0,0,0,0,.55l5.18.67H739.9a.28.28,0,0,0,.28-.26.28.28,0,0,0-.25-.29l-5.18-.67Z" transform="translate(-129.92 -13.53)"/><path class="cls-62" d="M727.63,579l-5.21-.67a.15.15,0,0,1,0-.29h12.27l5.21.67a.15.15,0,0,1,.13.16.15.15,0,0,1-.15.13Z" transform="translate(-129.92 -13.53)"/><path class="cls-62" d="M734.71,578.18l5.19.67H727.63l-5.19-.67h12.27m0-.3H722.44a.3.3,0,0,0,0,.59l5.18.67H739.9a.3.3,0,0,0,.3-.28.3.3,0,0,0-.26-.31l-5.19-.67Z" transform="translate(-129.92 -13.53)"/><path class="cls-63" d="M727.63,579l-5.21-.68a.16.16,0,0,1-.14-.17.16.16,0,0,1,.16-.14h12.27l5.21.67a.16.16,0,0,1,.14.17.17.17,0,0,1-.16.15Z" transform="translate(-129.92 -13.53)"/><path class="cls-63" d="M734.71,578.18l5.19.67H727.63l-5.19-.67h12.27m0-.32H722.44a.32.32,0,0,0-.31.3.31.31,0,0,0,.27.33l5.19.67H739.9a.33.33,0,0,0,.32-.3.32.32,0,0,0-.28-.34l-5.19-.67Z" transform="translate(-129.92 -13.53)"/><path class="cls-64" d="M727.63,579l-5.21-.68a.17.17,0,0,1,0-.34h12.27l5.21.68a.17.17,0,0,1,0,.34Z" transform="translate(-129.92 -13.53)"/><path class="cls-64" d="M734.71,578.18l5.19.67H727.63l-5.19-.67h12.27m0-.35H722.44a.35.35,0,0,0-.34.32.34.34,0,0,0,.3.36l5.19.67H739.9a.34.34,0,0,0,0-.68l-5.18-.67Z" transform="translate(-129.92 -13.53)"/><path class="cls-65" d="M727.63,579l-5.21-.67a.2.2,0,0,1-.16-.2.19.19,0,0,1,.18-.17h12.27l5.21.68a.18.18,0,0,1,.16.19.19.19,0,0,1-.18.17Z" transform="translate(-129.92 -13.53)"/><path class="cls-65" d="M734.71,578.18l5.19.67H727.63l-5.19-.67h12.27m0-.37H722.44a.37.37,0,0,0-.36.34.38.38,0,0,0,.32.39l5.18.66H739.9a.36.36,0,0,0,.05-.72l-5.19-.67Z" transform="translate(-129.92 -13.53)"/><path class="cls-66" d="M727.63,579l-5.21-.67a.21.21,0,0,1-.17-.21.19.19,0,0,1,.19-.18h12.27l5.21.67a.2.2,0,0,1,.17.21.19.19,0,0,1-.19.18Z" transform="translate(-129.92 -13.53)"/><path class="cls-66" d="M734.71,578.18l5.19.67H727.63l-5.19-.67h12.27m0-.39H722.44a.39.39,0,0,0-.38.36.4.4,0,0,0,.34.41l5.18.67H739.9a.38.38,0,0,0,.38-.36.38.38,0,0,0-.33-.4l-5.19-.67Z" transform="translate(-129.92 -13.53)"/><path class="cls-67" d="M727.63,579.05l-5.21-.67a.22.22,0,0,1-.18-.22.21.21,0,0,1,.2-.19h12.27l5.21.68a.19.19,0,0,1,.18.21.21.21,0,0,1-.2.19Z" transform="translate(-129.92 -13.53)"/><path class="cls-67" d="M734.71,578.18l5.19.67H727.63l-5.19-.67h12.27m0-.41H722.44a.4.4,0,0,0-.4.38.41.41,0,0,0,.35.43l5.19.67H739.9a.41.41,0,0,0,.05-.81l-5.18-.67Z" transform="translate(-129.92 -13.53)"/><path class="cls-68" d="M727.63,579.06l-5.21-.67a.23.23,0,0,1-.19-.23.22.22,0,0,1,.21-.2h12.27l5.22.67a.22.22,0,0,1,0,.43Z" transform="translate(-129.92 -13.53)"/><path class="cls-68" d="M734.71,578.18l5.19.67H727.63l-5.19-.67h12.27m0-.43H722.44a.42.42,0,0,0-.42.4.44.44,0,0,0,.37.45l5.19.67H739.9a.43.43,0,0,0,.05-.85l-5.18-.67Z" transform="translate(-129.92 -13.53)"/><path class="cls-69" d="M727.63,579.07l-5.21-.67a.23.23,0,0,1,0-.45h12.27l5.22.67a.23.23,0,0,1,.19.24.22.22,0,0,1-.22.21Z" transform="translate(-129.92 -13.53)"/><path class="cls-69" d="M734.71,578.18l5.19.67H727.63l-5.19-.67h12.27m0-.45H722.44a.45.45,0,0,0-.05.89l5.18.67H739.9a.45.45,0,0,0,.06-.89l-5.19-.67Z" transform="translate(-129.92 -13.53)"/><path class="cls-70" d="M727.63,579.08l-5.22-.67a.24.24,0,0,1,0-.47h12.27l5.22.67a.24.24,0,0,1,0,.47Z" transform="translate(-129.92 -13.53)"/><path class="cls-70" d="M734.71,578.18l5.19.67H727.63l-5.19-.67h12.27m0-.47H722.44a.47.47,0,0,0-.06.93l5.19.67H739.9a.47.47,0,0,0,.47-.43.48.48,0,0,0-.41-.5l-5.19-.67Z" transform="translate(-129.92 -13.53)"/><path class="cls-71" d="M727.63,579.09l-5.22-.67a.25.25,0,0,1,0-.49h12.27l5.22.67a.25.25,0,0,1,0,.49Z" transform="translate(-129.92 -13.53)"/><path class="cls-71" d="M734.71,578.18l5.19.67H727.63l-5.19-.67h12.27m0-.49H722.44a.48.48,0,0,0-.48.45.49.49,0,0,0,.42.52l5.19.67H739.9a.49.49,0,0,0,.06-1l-5.18-.67Z" transform="translate(-129.92 -13.53)"/><path class="cls-72" d="M727.63,579.1l-5.22-.67a.26.26,0,0,1-.22-.27.25.25,0,0,1,.25-.24h12.27l5.22.67a.26.26,0,0,1,.22.27.25.25,0,0,1-.25.24Z" transform="translate(-129.92 -13.53)"/><path class="cls-72" d="M734.71,578.18l5.19.67H727.63l-5.19-.67h12.27m0-.51H722.44a.51.51,0,0,0-.06,1l5.19.67H739.9a.51.51,0,0,0,.06-1l-5.18-.67Z" transform="translate(-129.92 -13.53)"/><path class="cls-73" d="M727.63,579.11l-5.22-.67a.27.27,0,0,1,0-.53h12.27l5.22.67a.27.27,0,0,1,0,.53Z" transform="translate(-129.92 -13.53)"/><path class="cls-73" d="M734.71,578.18l5.19.67H727.63l-5.19-.67h12.27m0-.54H722.44a.53.53,0,0,0-.06,1.06l5.18.67H739.9a.53.53,0,0,0,.53-.5.53.53,0,0,0-.46-.56l-5.19-.67Z" transform="translate(-129.92 -13.53)"/><path class="cls-74" d="M727.63,579.12l-5.22-.67a.28.28,0,0,1,0-.55h12.27l5.22.67a.28.28,0,0,1,0,.55Z" transform="translate(-129.92 -13.53)"/><path class="cls-74" d="M734.71,578.18l5.19.67H727.63l-5.19-.67h12.27m0-.56H722.44a.55.55,0,0,0-.07,1.1l5.19.67H739.9a.56.56,0,0,0,.55-.52.55.55,0,0,0-.48-.58l-5.19-.67Z" transform="translate(-129.92 -13.53)"/><path class="cls-75" d="M727.63,579.13l-5.22-.67a.29.29,0,0,1,0-.57h12.27l5.23.67a.29.29,0,0,1,0,.57Z" transform="translate(-129.92 -13.53)"/><path class="cls-75" d="M734.71,578.18l5.19.67H727.63l-5.19-.67h12.27m0-.58H722.44a.58.58,0,0,0-.57.54.56.56,0,0,0,.5.6l5.19.67H739.9a.58.58,0,0,0,.57-.54.57.57,0,0,0-.5-.6l-5.18-.67Z" transform="translate(-129.92 -13.53)"/><path class="cls-76" d="M727.63,579.14l-5.22-.67a.3.3,0,0,1,0-.59h12.27l5.23.67a.3.3,0,0,1,.26.31.31.31,0,0,1-.3.28Z" transform="translate(-129.92 -13.53)"/><path class="cls-76" d="M734.71,578.18l5.19.67H727.63l-5.19-.67h12.27m0-.6H722.44a.59.59,0,0,0-.07,1.18l5.18.67H739.9a.59.59,0,0,0,.59-.56.58.58,0,0,0-.52-.62l-5.18-.67Z" transform="translate(-129.92 -13.53)"/></g><g id="wanko-arm"><path class="cls-14" d="M798.92,584.73c1.8-14-20.31,4.28-44,1,1.7,4.46,12.2,4.87,19,4.91C790.72,590.77,798.92,584.73,798.92,584.73Z" transform="translate(-129.92 -13.53)"/><path class="cls-17" d="M800.9,584.28c-13.12,7-36.08,4.41-36.08,4.41-7-.38-11.61-1.58-12.17-7.64-.53-5.84,5.16-7.62,9.69-7.89a115.09,115.09,0,0,0,20.54-2.93,42,42,0,0,0,14.67-6.46l9.54-2.33S803.44,582.65,800.9,584.28Z" transform="translate(-129.92 -13.53)"/><path class="cls-23" d="M752.65,581.05c.55,6,5,7.21,11.79,7.61.67-2.14,3.23-11.54-2-15.5h-.12C757.81,573.43,752.12,575.21,752.65,581.05Z" transform="translate(-129.92 -13.53)"/><path class="cls-17" d="M732,549.61a88.42,88.42,0,0,1-14.16,7.3,125.49,125.49,0,0,1-21.07,6.46c-2.68.7-9.41,3.57-8,9.58,1.49,6.23,6.34,6.27,13.53,6,0,0,18.82,0,31.07-9.39" transform="translate(-129.92 -13.53)"/><path class="cls-23" d="M696.79,563.37h0c-2.68.7-9.41,3.57-8,9.58s6.09,6.26,12.95,6.07a26.3,26.3,0,0,0-.36-8.77C700.68,567.2,698.56,563.31,696.79,563.37Z" transform="translate(-129.92 -13.53)"/></g></g></svg>